%FSLAX44Y44*%
%MOMM*%
G71*
G01*
G75*
G04 Layer_Color=16711935*
%ADD10R,0.6000X0.6000*%
%ADD11R,0.6000X0.6000*%
%ADD12R,3.4800X0.2000*%
%ADD13R,0.4600X0.4600*%
%ADD14R,0.7500X0.6500*%
%ADD15R,0.2500X0.4000*%
%ADD16R,2.2000X1.0500*%
%ADD17R,1.0500X1.0000*%
%ADD18R,0.3500X0.6000*%
%ADD19R,1.6000X1.0000*%
%ADD20R,1.0000X1.0000*%
%ADD21O,0.7500X0.2800*%
%ADD22O,0.2800X0.7500*%
%ADD23R,4.2000X4.2000*%
%ADD24C,0.1500*%
%ADD25C,0.4000*%
%ADD26C,0.6000*%
%ADD27C,0.2200*%
%ADD28C,0.2500*%
%ADD29C,0.3000*%
%ADD30C,0.2000*%
%ADD31R,4.1148X1.3716*%
%ADD32R,1.0000X1.0000*%
%ADD33C,1.0000*%
%ADD34C,1.5000*%
%ADD35R,1.5000X1.5000*%
%ADD36C,0.4000*%
%ADD37R,1.2000X1.2000*%
%ADD38R,0.5000X0.5000*%
%ADD39R,0.5000X0.5000*%
%ADD40R,0.6500X0.5500*%
%ADD41R,0.1500X0.3000*%
%ADD42R,0.2500X0.5000*%
%ADD43R,1.4000X0.8000*%
%ADD44R,0.9000X0.9000*%
%ADD45O,0.7000X0.2300*%
%ADD46O,0.2300X0.7000*%
%ADD47R,0.7000X0.7000*%
%ADD48R,0.7000X0.7000*%
%ADD49R,0.8500X0.7500*%
%ADD50R,2.3000X1.1500*%
%ADD51R,1.1500X1.1000*%
%ADD52R,0.4900X0.7400*%
%ADD53R,1.7000X1.1000*%
%ADD54R,1.1000X1.1000*%
%ADD55O,0.8500X0.3800*%
%ADD56O,0.3800X0.8500*%
%ADD57R,1.1000X1.1000*%
%ADD58C,1.1000*%
%ADD59C,1.6000*%
%ADD60R,1.6000X1.6000*%
G36*
X2860019Y2523368D02*
X2858762D01*
Y2524624D01*
X2860019D01*
Y2523368D01*
D02*
G37*
G36*
X2850562Y2526529D02*
Y2525518D01*
X2846663D01*
Y2523368D01*
X2845562D01*
Y2525518D01*
X2844344D01*
Y2526529D01*
X2845562D01*
Y2532332D01*
X2846456D01*
X2850562Y2526529D01*
D02*
G37*
G36*
X2838580Y2523368D02*
X2837388D01*
Y2527345D01*
X2835859D01*
X2835717Y2527332D01*
X2835613D01*
X2835522Y2527319D01*
X2835458Y2527306D01*
X2835406D01*
X2835380Y2527293D01*
X2835367D01*
X2835160Y2527228D01*
X2835069Y2527189D01*
X2834991Y2527151D01*
X2834914Y2527112D01*
X2834862Y2527086D01*
X2834836Y2527073D01*
X2834823Y2527060D01*
X2834720Y2526982D01*
X2834616Y2526891D01*
X2834421Y2526697D01*
X2834331Y2526606D01*
X2834266Y2526529D01*
X2834227Y2526477D01*
X2834214Y2526464D01*
X2834085Y2526283D01*
X2833942Y2526088D01*
X2833800Y2525881D01*
X2833657Y2525687D01*
X2833541Y2525505D01*
X2833450Y2525363D01*
X2833411Y2525311D01*
X2833385Y2525272D01*
X2833359Y2525246D01*
Y2525233D01*
X2832180Y2523368D01*
X2830704D01*
X2832245Y2525803D01*
X2832426Y2526062D01*
X2832595Y2526296D01*
X2832763Y2526490D01*
X2832906Y2526671D01*
X2833035Y2526801D01*
X2833139Y2526904D01*
X2833204Y2526969D01*
X2833230Y2526995D01*
X2833333Y2527073D01*
X2833450Y2527164D01*
X2833683Y2527306D01*
X2833787Y2527358D01*
X2833864Y2527410D01*
X2833916Y2527436D01*
X2833942Y2527448D01*
X2833709Y2527487D01*
X2833489Y2527526D01*
X2833294Y2527591D01*
X2833100Y2527643D01*
X2832932Y2527708D01*
X2832776Y2527785D01*
X2832634Y2527850D01*
X2832504Y2527915D01*
X2832401Y2527993D01*
X2832297Y2528057D01*
X2832219Y2528109D01*
X2832155Y2528161D01*
X2832103Y2528200D01*
X2832064Y2528239D01*
X2832051Y2528252D01*
X2832038Y2528265D01*
X2831934Y2528394D01*
X2831831Y2528524D01*
X2831675Y2528796D01*
X2831572Y2529068D01*
X2831494Y2529327D01*
X2831442Y2529547D01*
X2831429Y2529638D01*
Y2529728D01*
X2831416Y2529793D01*
Y2529845D01*
Y2529871D01*
Y2529884D01*
X2831429Y2530156D01*
X2831468Y2530402D01*
X2831533Y2530635D01*
X2831598Y2530829D01*
X2831675Y2530998D01*
X2831727Y2531127D01*
X2831779Y2531205D01*
X2831792Y2531218D01*
Y2531231D01*
X2831947Y2531438D01*
X2832103Y2531620D01*
X2832271Y2531775D01*
X2832426Y2531892D01*
X2832569Y2531982D01*
X2832686Y2532034D01*
X2832763Y2532073D01*
X2832776Y2532086D01*
X2832789D01*
X2832906Y2532125D01*
X2833048Y2532164D01*
X2833333Y2532229D01*
X2833644Y2532267D01*
X2833929Y2532306D01*
X2834201Y2532319D01*
X2834318D01*
X2834421Y2532332D01*
X2838580D01*
Y2523368D01*
D02*
G37*
G36*
X2877442D02*
X2876185D01*
Y2524624D01*
X2877442D01*
Y2523368D01*
D02*
G37*
G36*
X2820962D02*
X2819913D01*
X2817439Y2529871D01*
X2818579D01*
X2820016Y2525894D01*
X2820107Y2525635D01*
X2820198Y2525402D01*
X2820263Y2525182D01*
X2820327Y2525013D01*
X2820367Y2524858D01*
X2820405Y2524754D01*
X2820418Y2524689D01*
X2820431Y2524663D01*
X2820509Y2524910D01*
X2820574Y2525156D01*
X2820652Y2525376D01*
X2820716Y2525570D01*
X2820768Y2525739D01*
X2820807Y2525868D01*
X2820820Y2525907D01*
X2820833Y2525946D01*
X2820846Y2525959D01*
Y2525972D01*
X2822245Y2529871D01*
X2823411D01*
X2820962Y2523368D01*
D02*
G37*
G36*
X2773188D02*
X2772048D01*
Y2530998D01*
X2769457Y2523368D01*
X2768395D01*
X2765778Y2530868D01*
Y2523368D01*
X2764638D01*
Y2532332D01*
X2766232D01*
X2768382Y2526088D01*
X2768499Y2525751D01*
X2768589Y2525467D01*
X2768680Y2525220D01*
X2768745Y2525013D01*
X2768796Y2524858D01*
X2768835Y2524741D01*
X2768848Y2524676D01*
X2768861Y2524650D01*
X2768913Y2524832D01*
X2768978Y2525039D01*
X2769055Y2525259D01*
X2769120Y2525479D01*
X2769185Y2525674D01*
X2769237Y2525829D01*
X2769263Y2525894D01*
X2769276Y2525933D01*
X2769289Y2525959D01*
Y2525972D01*
X2771413Y2532332D01*
X2773188D01*
Y2523368D01*
D02*
G37*
G36*
X2827284Y2530000D02*
X2827517Y2529975D01*
X2827737Y2529936D01*
X2827945Y2529871D01*
X2828139Y2529806D01*
X2828320Y2529728D01*
X2828488Y2529651D01*
X2828631Y2529560D01*
X2828773Y2529482D01*
X2828890Y2529392D01*
X2828994Y2529314D01*
X2829071Y2529249D01*
X2829136Y2529184D01*
X2829188Y2529146D01*
X2829214Y2529120D01*
X2829227Y2529107D01*
X2829370Y2528925D01*
X2829499Y2528731D01*
X2829615Y2528537D01*
X2829719Y2528329D01*
X2829797Y2528109D01*
X2829862Y2527902D01*
X2829965Y2527487D01*
X2830004Y2527306D01*
X2830030Y2527125D01*
X2830043Y2526969D01*
X2830056Y2526827D01*
X2830069Y2526710D01*
Y2526632D01*
Y2526568D01*
Y2526555D01*
X2830056Y2526270D01*
X2830030Y2525998D01*
X2829991Y2525739D01*
X2829939Y2525505D01*
X2829875Y2525285D01*
X2829810Y2525078D01*
X2829732Y2524897D01*
X2829655Y2524728D01*
X2829577Y2524586D01*
X2829499Y2524456D01*
X2829434Y2524353D01*
X2829370Y2524262D01*
X2829318Y2524184D01*
X2829279Y2524132D01*
X2829253Y2524106D01*
X2829240Y2524093D01*
X2829071Y2523938D01*
X2828903Y2523808D01*
X2828722Y2523692D01*
X2828528Y2523588D01*
X2828346Y2523510D01*
X2828152Y2523433D01*
X2827789Y2523329D01*
X2827621Y2523303D01*
X2827465Y2523277D01*
X2827323Y2523251D01*
X2827206Y2523239D01*
X2827115Y2523226D01*
X2826973D01*
X2826571Y2523251D01*
X2826208Y2523316D01*
X2825885Y2523394D01*
X2825755Y2523446D01*
X2825626Y2523497D01*
X2825509Y2523549D01*
X2825406Y2523601D01*
X2825328Y2523640D01*
X2825250Y2523679D01*
X2825198Y2523718D01*
X2825159Y2523744D01*
X2825133Y2523770D01*
X2825121D01*
X2824861Y2524003D01*
X2824654Y2524249D01*
X2824473Y2524508D01*
X2824343Y2524754D01*
X2824240Y2524974D01*
X2824201Y2525078D01*
X2824162Y2525156D01*
X2824136Y2525233D01*
X2824123Y2525285D01*
X2824110Y2525311D01*
Y2525324D01*
X2825250Y2525467D01*
X2825354Y2525220D01*
X2825470Y2525013D01*
X2825587Y2524832D01*
X2825691Y2524689D01*
X2825781Y2524586D01*
X2825859Y2524508D01*
X2825924Y2524456D01*
X2825937Y2524443D01*
X2826105Y2524340D01*
X2826273Y2524262D01*
X2826455Y2524210D01*
X2826610Y2524171D01*
X2826753Y2524145D01*
X2826869Y2524132D01*
X2826973D01*
X2827128Y2524145D01*
X2827271Y2524158D01*
X2827530Y2524223D01*
X2827763Y2524314D01*
X2827970Y2524417D01*
X2828126Y2524508D01*
X2828242Y2524599D01*
X2828320Y2524663D01*
X2828333Y2524689D01*
X2828346D01*
X2828528Y2524922D01*
X2828670Y2525182D01*
X2828773Y2525467D01*
X2828851Y2525726D01*
X2828890Y2525959D01*
X2828916Y2526062D01*
X2828929Y2526153D01*
Y2526231D01*
X2828942Y2526283D01*
Y2526322D01*
Y2526335D01*
X2824084D01*
X2824071Y2526464D01*
Y2526555D01*
Y2526606D01*
Y2526620D01*
X2824084Y2526917D01*
X2824110Y2527189D01*
X2824149Y2527448D01*
X2824201Y2527695D01*
X2824265Y2527915D01*
X2824330Y2528122D01*
X2824408Y2528304D01*
X2824486Y2528472D01*
X2824564Y2528627D01*
X2824641Y2528757D01*
X2824706Y2528860D01*
X2824771Y2528951D01*
X2824823Y2529029D01*
X2824861Y2529081D01*
X2824887Y2529107D01*
X2824900Y2529120D01*
X2825056Y2529275D01*
X2825224Y2529418D01*
X2825406Y2529534D01*
X2825587Y2529638D01*
X2825768Y2529728D01*
X2825937Y2529793D01*
X2826118Y2529858D01*
X2826273Y2529897D01*
X2826442Y2529936D01*
X2826584Y2529962D01*
X2826714Y2529987D01*
X2826818Y2530000D01*
X2826908Y2530013D01*
X2827038D01*
X2827284Y2530000D01*
D02*
G37*
G36*
X2809174Y2523368D02*
X2807917D01*
Y2524624D01*
X2809174D01*
Y2523368D01*
D02*
G37*
G36*
X2923418Y2523114D02*
X2919998D01*
X2919687Y2523127D01*
X2919415Y2523140D01*
X2919169Y2523166D01*
X2918962Y2523192D01*
X2918793Y2523218D01*
X2918664Y2523231D01*
X2918586Y2523257D01*
X2918560D01*
X2918340Y2523321D01*
X2918159Y2523386D01*
X2917990Y2523464D01*
X2917848Y2523542D01*
X2917731Y2523593D01*
X2917640Y2523645D01*
X2917589Y2523684D01*
X2917576Y2523697D01*
X2917433Y2523813D01*
X2917304Y2523956D01*
X2917200Y2524099D01*
X2917097Y2524228D01*
X2917019Y2524358D01*
X2916967Y2524448D01*
X2916928Y2524513D01*
X2916915Y2524539D01*
X2916824Y2524746D01*
X2916760Y2524953D01*
X2916708Y2525148D01*
X2916682Y2525329D01*
X2916656Y2525485D01*
X2916643Y2525614D01*
Y2525692D01*
Y2525705D01*
Y2525718D01*
X2916656Y2526003D01*
X2916708Y2526262D01*
X2916786Y2526482D01*
X2916863Y2526689D01*
X2916941Y2526845D01*
X2917019Y2526961D01*
X2917071Y2527039D01*
X2917083Y2527065D01*
X2917265Y2527272D01*
X2917459Y2527441D01*
X2917679Y2527583D01*
X2917874Y2527700D01*
X2918055Y2527790D01*
X2918210Y2527842D01*
X2918262Y2527868D01*
X2918301Y2527881D01*
X2918327Y2527894D01*
X2918340D01*
X2918120Y2528024D01*
X2917925Y2528153D01*
X2917770Y2528296D01*
X2917640Y2528425D01*
X2917537Y2528529D01*
X2917459Y2528632D01*
X2917420Y2528684D01*
X2917407Y2528710D01*
X2917304Y2528904D01*
X2917226Y2529086D01*
X2917161Y2529267D01*
X2917122Y2529436D01*
X2917097Y2529578D01*
X2917083Y2529695D01*
Y2529759D01*
Y2529785D01*
X2917097Y2530005D01*
X2917135Y2530226D01*
X2917200Y2530420D01*
X2917265Y2530601D01*
X2917330Y2530757D01*
X2917394Y2530860D01*
X2917433Y2530938D01*
X2917446Y2530964D01*
X2917589Y2531158D01*
X2917744Y2531340D01*
X2917913Y2531482D01*
X2918068Y2531599D01*
X2918198Y2531690D01*
X2918314Y2531754D01*
X2918392Y2531793D01*
X2918405Y2531806D01*
X2918418D01*
X2918664Y2531897D01*
X2918936Y2531962D01*
X2919208Y2532013D01*
X2919467Y2532039D01*
X2919700Y2532065D01*
X2919804D01*
X2919894Y2532078D01*
X2923418D01*
Y2523114D01*
D02*
G37*
G36*
X2905943Y2531016D02*
X2902990D01*
Y2523114D01*
X2901798D01*
Y2531016D01*
X2898844D01*
Y2532078D01*
X2905943D01*
Y2531016D01*
D02*
G37*
G36*
X2911436Y2532221D02*
X2911759Y2532182D01*
X2912070Y2532117D01*
X2912368Y2532039D01*
X2912640Y2531936D01*
X2912899Y2531832D01*
X2913133Y2531716D01*
X2913340Y2531599D01*
X2913534Y2531482D01*
X2913702Y2531366D01*
X2913845Y2531262D01*
X2913961Y2531158D01*
X2914052Y2531081D01*
X2914130Y2531016D01*
X2914169Y2530977D01*
X2914182Y2530964D01*
X2914389Y2530718D01*
X2914570Y2530459D01*
X2914739Y2530174D01*
X2914868Y2529889D01*
X2914985Y2529591D01*
X2915089Y2529306D01*
X2915166Y2529021D01*
X2915218Y2528749D01*
X2915270Y2528490D01*
X2915309Y2528244D01*
X2915335Y2528024D01*
X2915361Y2527842D01*
Y2527687D01*
X2915374Y2527570D01*
Y2527493D01*
Y2527480D01*
Y2527466D01*
X2915348Y2527026D01*
X2915296Y2526624D01*
X2915218Y2526236D01*
X2915166Y2526068D01*
X2915114Y2525899D01*
X2915076Y2525757D01*
X2915024Y2525627D01*
X2914985Y2525511D01*
X2914946Y2525407D01*
X2914920Y2525329D01*
X2914894Y2525277D01*
X2914868Y2525238D01*
Y2525226D01*
X2914648Y2524850D01*
X2914415Y2524526D01*
X2914156Y2524241D01*
X2913910Y2524008D01*
X2913690Y2523813D01*
X2913599Y2523736D01*
X2913521Y2523684D01*
X2913443Y2523632D01*
X2913392Y2523593D01*
X2913366Y2523580D01*
X2913353Y2523567D01*
X2913158Y2523464D01*
X2912964Y2523373D01*
X2912575Y2523218D01*
X2912200Y2523114D01*
X2911850Y2523036D01*
X2911682Y2523010D01*
X2911539Y2522997D01*
X2911410Y2522971D01*
X2911293D01*
X2911215Y2522959D01*
X2911086D01*
X2910658Y2522984D01*
X2910257Y2523049D01*
X2909881Y2523127D01*
X2909713Y2523179D01*
X2909557Y2523231D01*
X2909415Y2523282D01*
X2909285Y2523334D01*
X2909182Y2523373D01*
X2909091Y2523412D01*
X2909013Y2523451D01*
X2908948Y2523477D01*
X2908922Y2523503D01*
X2908910D01*
X2908547Y2523736D01*
X2908236Y2523995D01*
X2907977Y2524267D01*
X2907757Y2524526D01*
X2907575Y2524772D01*
X2907510Y2524863D01*
X2907459Y2524953D01*
X2907407Y2525031D01*
X2907381Y2525083D01*
X2907355Y2525122D01*
Y2525135D01*
X2907251Y2525342D01*
X2907174Y2525549D01*
X2907031Y2525964D01*
X2906927Y2526378D01*
X2906863Y2526754D01*
X2906850Y2526922D01*
X2906824Y2527078D01*
X2906811Y2527220D01*
Y2527337D01*
X2906798Y2527441D01*
Y2527505D01*
Y2527557D01*
Y2527570D01*
X2906824Y2528062D01*
X2906876Y2528516D01*
X2906915Y2528723D01*
X2906966Y2528930D01*
X2907018Y2529112D01*
X2907057Y2529280D01*
X2907109Y2529436D01*
X2907161Y2529578D01*
X2907200Y2529695D01*
X2907251Y2529798D01*
X2907277Y2529876D01*
X2907303Y2529928D01*
X2907329Y2529967D01*
Y2529980D01*
X2907536Y2530355D01*
X2907783Y2530692D01*
X2908042Y2530977D01*
X2908275Y2531210D01*
X2908495Y2531392D01*
X2908599Y2531469D01*
X2908676Y2531534D01*
X2908754Y2531573D01*
X2908806Y2531612D01*
X2908832Y2531625D01*
X2908845Y2531638D01*
X2909039Y2531741D01*
X2909233Y2531832D01*
X2909609Y2531987D01*
X2909998Y2532091D01*
X2910334Y2532156D01*
X2910490Y2532182D01*
X2910645Y2532208D01*
X2910762Y2532221D01*
X2910879D01*
X2910969Y2532234D01*
X2911086D01*
X2911436Y2532221D01*
D02*
G37*
G36*
X2872001Y2532345D02*
X2872325Y2532293D01*
X2872597Y2532203D01*
X2872830Y2532112D01*
X2873024Y2532008D01*
X2873102Y2531969D01*
X2873167Y2531918D01*
X2873219Y2531892D01*
X2873258Y2531866D01*
X2873271Y2531840D01*
X2873283D01*
X2873517Y2531633D01*
X2873711Y2531387D01*
X2873879Y2531140D01*
X2874009Y2530907D01*
X2874113Y2530687D01*
X2874164Y2530596D01*
X2874190Y2530506D01*
X2874216Y2530441D01*
X2874242Y2530389D01*
X2874255Y2530363D01*
Y2530350D01*
X2874307Y2530156D01*
X2874359Y2529962D01*
X2874436Y2529534D01*
X2874501Y2529107D01*
X2874540Y2528705D01*
X2874553Y2528511D01*
X2874566Y2528342D01*
Y2528187D01*
X2874579Y2528044D01*
Y2527941D01*
Y2527850D01*
Y2527798D01*
Y2527785D01*
X2874566Y2527332D01*
X2874540Y2526904D01*
X2874501Y2526516D01*
X2874436Y2526153D01*
X2874372Y2525816D01*
X2874294Y2525518D01*
X2874216Y2525246D01*
X2874138Y2525013D01*
X2874061Y2524806D01*
X2873970Y2524624D01*
X2873905Y2524469D01*
X2873841Y2524353D01*
X2873776Y2524249D01*
X2873737Y2524184D01*
X2873711Y2524145D01*
X2873698Y2524132D01*
X2873556Y2523977D01*
X2873400Y2523834D01*
X2873232Y2523705D01*
X2873063Y2523601D01*
X2872895Y2523510D01*
X2872726Y2523433D01*
X2872558Y2523381D01*
X2872403Y2523329D01*
X2872247Y2523290D01*
X2872105Y2523264D01*
X2871975Y2523239D01*
X2871872Y2523226D01*
X2871781Y2523213D01*
X2871651D01*
X2871302Y2523239D01*
X2870978Y2523290D01*
X2870706Y2523381D01*
X2870472Y2523472D01*
X2870278Y2523562D01*
X2870213Y2523614D01*
X2870149Y2523653D01*
X2870097Y2523679D01*
X2870058Y2523705D01*
X2870045Y2523731D01*
X2870032D01*
X2869799Y2523951D01*
X2869604Y2524184D01*
X2869436Y2524443D01*
X2869307Y2524676D01*
X2869203Y2524897D01*
X2869151Y2524987D01*
X2869125Y2525078D01*
X2869099Y2525143D01*
X2869073Y2525195D01*
X2869060Y2525220D01*
Y2525233D01*
X2868996Y2525428D01*
X2868944Y2525622D01*
X2868866Y2526037D01*
X2868801Y2526464D01*
X2868763Y2526879D01*
X2868750Y2527060D01*
X2868737Y2527228D01*
Y2527384D01*
X2868724Y2527526D01*
Y2527630D01*
Y2527720D01*
Y2527772D01*
Y2527785D01*
Y2528031D01*
X2868737Y2528265D01*
Y2528472D01*
X2868750Y2528679D01*
X2868776Y2528860D01*
X2868788Y2529042D01*
X2868801Y2529197D01*
X2868827Y2529340D01*
X2868840Y2529469D01*
X2868866Y2529586D01*
X2868879Y2529677D01*
X2868892Y2529754D01*
X2868905Y2529819D01*
X2868918Y2529858D01*
X2868931Y2529884D01*
Y2529897D01*
X2869009Y2530182D01*
X2869099Y2530441D01*
X2869203Y2530661D01*
X2869281Y2530855D01*
X2869371Y2531024D01*
X2869423Y2531140D01*
X2869475Y2531205D01*
X2869488Y2531231D01*
X2869630Y2531425D01*
X2869773Y2531594D01*
X2869928Y2531736D01*
X2870071Y2531866D01*
X2870201Y2531956D01*
X2870304Y2532021D01*
X2870369Y2532060D01*
X2870382Y2532073D01*
X2870395D01*
X2870602Y2532177D01*
X2870822Y2532242D01*
X2871029Y2532293D01*
X2871224Y2532332D01*
X2871392Y2532358D01*
X2871535Y2532371D01*
X2871651D01*
X2872001Y2532345D01*
D02*
G37*
G36*
X2794717Y2523368D02*
X2793526D01*
Y2527008D01*
X2791233D01*
X2790896Y2527021D01*
X2790572Y2527047D01*
X2790287Y2527086D01*
X2790028Y2527138D01*
X2789782Y2527189D01*
X2789575Y2527254D01*
X2789380Y2527332D01*
X2789212Y2527410D01*
X2789070Y2527474D01*
X2788940Y2527552D01*
X2788836Y2527617D01*
X2788759Y2527682D01*
X2788694Y2527720D01*
X2788655Y2527759D01*
X2788629Y2527785D01*
X2788616Y2527798D01*
X2788487Y2527954D01*
X2788370Y2528109D01*
X2788279Y2528265D01*
X2788189Y2528433D01*
X2788111Y2528601D01*
X2788059Y2528757D01*
X2787968Y2529055D01*
X2787943Y2529197D01*
X2787917Y2529327D01*
X2787904Y2529443D01*
X2787891Y2529534D01*
X2787878Y2529625D01*
Y2529677D01*
Y2529716D01*
Y2529728D01*
X2787891Y2529975D01*
X2787917Y2530208D01*
X2787968Y2530415D01*
X2788007Y2530596D01*
X2788059Y2530752D01*
X2788111Y2530868D01*
X2788137Y2530933D01*
X2788150Y2530959D01*
X2788253Y2531153D01*
X2788383Y2531322D01*
X2788499Y2531477D01*
X2788616Y2531594D01*
X2788720Y2531685D01*
X2788798Y2531762D01*
X2788849Y2531801D01*
X2788875Y2531814D01*
X2789044Y2531918D01*
X2789238Y2532008D01*
X2789419Y2532086D01*
X2789588Y2532151D01*
X2789743Y2532190D01*
X2789860Y2532216D01*
X2789950Y2532242D01*
X2789976D01*
X2790171Y2532267D01*
X2790391Y2532293D01*
X2790624Y2532306D01*
X2790844Y2532319D01*
X2791039Y2532332D01*
X2794717D01*
Y2523368D01*
D02*
G37*
G36*
X2786349D02*
X2785157D01*
Y2527345D01*
X2783629D01*
X2783486Y2527332D01*
X2783383D01*
X2783292Y2527319D01*
X2783227Y2527306D01*
X2783175D01*
X2783150Y2527293D01*
X2783137D01*
X2782929Y2527228D01*
X2782839Y2527189D01*
X2782761Y2527151D01*
X2782683Y2527112D01*
X2782632Y2527086D01*
X2782606Y2527073D01*
X2782592Y2527060D01*
X2782489Y2526982D01*
X2782385Y2526891D01*
X2782191Y2526697D01*
X2782100Y2526606D01*
X2782036Y2526529D01*
X2781996Y2526477D01*
X2781984Y2526464D01*
X2781854Y2526283D01*
X2781712Y2526088D01*
X2781569Y2525881D01*
X2781427Y2525687D01*
X2781310Y2525505D01*
X2781219Y2525363D01*
X2781180Y2525311D01*
X2781154Y2525272D01*
X2781129Y2525246D01*
Y2525233D01*
X2779950Y2523368D01*
X2778473D01*
X2780015Y2525803D01*
X2780196Y2526062D01*
X2780364Y2526296D01*
X2780533Y2526490D01*
X2780675Y2526671D01*
X2780805Y2526801D01*
X2780909Y2526904D01*
X2780973Y2526969D01*
X2780999Y2526995D01*
X2781103Y2527073D01*
X2781219Y2527164D01*
X2781453Y2527306D01*
X2781556Y2527358D01*
X2781634Y2527410D01*
X2781686Y2527436D01*
X2781712Y2527448D01*
X2781479Y2527487D01*
X2781258Y2527526D01*
X2781064Y2527591D01*
X2780870Y2527643D01*
X2780701Y2527708D01*
X2780546Y2527785D01*
X2780403Y2527850D01*
X2780274Y2527915D01*
X2780170Y2527993D01*
X2780067Y2528057D01*
X2779989Y2528109D01*
X2779924Y2528161D01*
X2779872Y2528200D01*
X2779833Y2528239D01*
X2779820Y2528252D01*
X2779807Y2528265D01*
X2779704Y2528394D01*
X2779600Y2528524D01*
X2779445Y2528796D01*
X2779341Y2529068D01*
X2779263Y2529327D01*
X2779211Y2529547D01*
X2779199Y2529638D01*
Y2529728D01*
X2779185Y2529793D01*
Y2529845D01*
Y2529871D01*
Y2529884D01*
X2779199Y2530156D01*
X2779237Y2530402D01*
X2779302Y2530635D01*
X2779367Y2530829D01*
X2779445Y2530998D01*
X2779496Y2531127D01*
X2779548Y2531205D01*
X2779561Y2531218D01*
Y2531231D01*
X2779717Y2531438D01*
X2779872Y2531620D01*
X2780041Y2531775D01*
X2780196Y2531892D01*
X2780338Y2531982D01*
X2780455Y2532034D01*
X2780533Y2532073D01*
X2780546Y2532086D01*
X2780559D01*
X2780675Y2532125D01*
X2780818Y2532164D01*
X2781103Y2532229D01*
X2781414Y2532267D01*
X2781699Y2532306D01*
X2781971Y2532319D01*
X2782087D01*
X2782191Y2532332D01*
X2786349D01*
Y2523368D01*
D02*
G37*
G36*
X2762760D02*
X2759340D01*
X2759029Y2523381D01*
X2758757Y2523394D01*
X2758511Y2523420D01*
X2758304Y2523446D01*
X2758135Y2523472D01*
X2758006Y2523485D01*
X2757928Y2523510D01*
X2757902D01*
X2757682Y2523575D01*
X2757501Y2523640D01*
X2757332Y2523718D01*
X2757190Y2523795D01*
X2757073Y2523847D01*
X2756982Y2523899D01*
X2756931Y2523938D01*
X2756918Y2523951D01*
X2756775Y2524068D01*
X2756646Y2524210D01*
X2756542Y2524353D01*
X2756438Y2524482D01*
X2756361Y2524612D01*
X2756309Y2524702D01*
X2756270Y2524767D01*
X2756257Y2524793D01*
X2756166Y2525000D01*
X2756102Y2525208D01*
X2756050Y2525402D01*
X2756024Y2525583D01*
X2755998Y2525739D01*
X2755985Y2525868D01*
Y2525946D01*
Y2525959D01*
Y2525972D01*
X2755998Y2526257D01*
X2756050Y2526516D01*
X2756128Y2526736D01*
X2756205Y2526943D01*
X2756283Y2527099D01*
X2756361Y2527215D01*
X2756412Y2527293D01*
X2756425Y2527319D01*
X2756607Y2527526D01*
X2756801Y2527695D01*
X2757021Y2527837D01*
X2757216Y2527954D01*
X2757397Y2528044D01*
X2757552Y2528096D01*
X2757604Y2528122D01*
X2757643Y2528135D01*
X2757669Y2528148D01*
X2757682D01*
X2757462Y2528278D01*
X2757267Y2528407D01*
X2757112Y2528550D01*
X2756982Y2528679D01*
X2756879Y2528783D01*
X2756801Y2528886D01*
X2756762Y2528938D01*
X2756749Y2528964D01*
X2756646Y2529158D01*
X2756568Y2529340D01*
X2756503Y2529521D01*
X2756464Y2529690D01*
X2756438Y2529832D01*
X2756425Y2529949D01*
Y2530013D01*
Y2530039D01*
X2756438Y2530260D01*
X2756477Y2530480D01*
X2756542Y2530674D01*
X2756607Y2530855D01*
X2756671Y2531011D01*
X2756736Y2531115D01*
X2756775Y2531192D01*
X2756788Y2531218D01*
X2756931Y2531412D01*
X2757086Y2531594D01*
X2757255Y2531736D01*
X2757410Y2531853D01*
X2757539Y2531944D01*
X2757656Y2532008D01*
X2757734Y2532047D01*
X2757747Y2532060D01*
X2757760D01*
X2758006Y2532151D01*
X2758278Y2532216D01*
X2758550Y2532267D01*
X2758809Y2532293D01*
X2759042Y2532319D01*
X2759146D01*
X2759236Y2532332D01*
X2762760D01*
Y2523368D01*
D02*
G37*
G36*
X2777903Y2526062D02*
X2774496D01*
Y2527164D01*
X2777903D01*
Y2526062D01*
D02*
G37*
G36*
X2803578Y2532358D02*
X2803798Y2532345D01*
X2804005Y2532306D01*
X2804200Y2532267D01*
X2804381Y2532216D01*
X2804550Y2532164D01*
X2804705Y2532099D01*
X2804847Y2532034D01*
X2804977Y2531969D01*
X2805081Y2531905D01*
X2805172Y2531853D01*
X2805249Y2531801D01*
X2805314Y2531762D01*
X2805353Y2531723D01*
X2805379Y2531710D01*
X2805392Y2531697D01*
X2805521Y2531568D01*
X2805638Y2531425D01*
X2805754Y2531270D01*
X2805845Y2531115D01*
X2806000Y2530804D01*
X2806104Y2530493D01*
X2806143Y2530350D01*
X2806182Y2530208D01*
X2806208Y2530091D01*
X2806234Y2529987D01*
X2806247Y2529897D01*
Y2529832D01*
X2806259Y2529793D01*
Y2529780D01*
X2805132Y2529664D01*
X2805107Y2529962D01*
X2805055Y2530221D01*
X2804977Y2530454D01*
X2804886Y2530635D01*
X2804809Y2530791D01*
X2804731Y2530894D01*
X2804679Y2530959D01*
X2804653Y2530985D01*
X2804459Y2531140D01*
X2804252Y2531257D01*
X2804031Y2531348D01*
X2803837Y2531400D01*
X2803656Y2531438D01*
X2803500Y2531451D01*
X2803448Y2531464D01*
X2803371D01*
X2803099Y2531451D01*
X2802852Y2531400D01*
X2802645Y2531322D01*
X2802464Y2531244D01*
X2802321Y2531153D01*
X2802231Y2531089D01*
X2802166Y2531037D01*
X2802140Y2531011D01*
X2801985Y2530829D01*
X2801868Y2530648D01*
X2801777Y2530467D01*
X2801725Y2530285D01*
X2801687Y2530143D01*
X2801674Y2530013D01*
X2801661Y2529936D01*
Y2529923D01*
Y2529910D01*
X2801687Y2529677D01*
X2801739Y2529431D01*
X2801829Y2529210D01*
X2801920Y2529003D01*
X2802024Y2528835D01*
X2802114Y2528692D01*
X2802140Y2528640D01*
X2802166Y2528601D01*
X2802192Y2528589D01*
Y2528575D01*
X2802296Y2528433D01*
X2802425Y2528291D01*
X2802568Y2528135D01*
X2802723Y2527980D01*
X2803047Y2527669D01*
X2803371Y2527358D01*
X2803539Y2527215D01*
X2803682Y2527086D01*
X2803824Y2526969D01*
X2803941Y2526866D01*
X2804031Y2526788D01*
X2804109Y2526723D01*
X2804161Y2526684D01*
X2804174Y2526671D01*
X2804498Y2526399D01*
X2804796Y2526140D01*
X2805042Y2525907D01*
X2805236Y2525713D01*
X2805404Y2525544D01*
X2805521Y2525428D01*
X2805586Y2525350D01*
X2805612Y2525337D01*
Y2525324D01*
X2805793Y2525104D01*
X2805936Y2524897D01*
X2806065Y2524689D01*
X2806169Y2524508D01*
X2806247Y2524353D01*
X2806298Y2524236D01*
X2806324Y2524158D01*
X2806337Y2524145D01*
Y2524132D01*
X2806389Y2523990D01*
X2806415Y2523860D01*
X2806441Y2523731D01*
X2806454Y2523614D01*
X2806467Y2523510D01*
Y2523433D01*
Y2523381D01*
Y2523368D01*
X2800521D01*
Y2524430D01*
X2804938D01*
X2804783Y2524650D01*
X2804705Y2524741D01*
X2804640Y2524832D01*
X2804576Y2524910D01*
X2804524Y2524961D01*
X2804485Y2525000D01*
X2804472Y2525013D01*
X2804407Y2525078D01*
X2804329Y2525143D01*
X2804148Y2525311D01*
X2803941Y2525505D01*
X2803720Y2525700D01*
X2803513Y2525868D01*
X2803423Y2525946D01*
X2803345Y2526024D01*
X2803280Y2526075D01*
X2803228Y2526114D01*
X2803202Y2526140D01*
X2803189Y2526153D01*
X2802982Y2526335D01*
X2802775Y2526503D01*
X2802593Y2526671D01*
X2802425Y2526814D01*
X2802270Y2526956D01*
X2802140Y2527086D01*
X2802010Y2527202D01*
X2801907Y2527306D01*
X2801803Y2527410D01*
X2801725Y2527487D01*
X2801661Y2527552D01*
X2801596Y2527617D01*
X2801531Y2527695D01*
X2801505Y2527720D01*
X2801324Y2527941D01*
X2801169Y2528135D01*
X2801039Y2528329D01*
X2800935Y2528485D01*
X2800858Y2528627D01*
X2800806Y2528731D01*
X2800780Y2528796D01*
X2800767Y2528822D01*
X2800689Y2529016D01*
X2800638Y2529210D01*
X2800586Y2529392D01*
X2800560Y2529547D01*
X2800547Y2529690D01*
X2800534Y2529793D01*
Y2529858D01*
Y2529884D01*
X2800547Y2530078D01*
X2800573Y2530260D01*
X2800598Y2530441D01*
X2800650Y2530596D01*
X2800780Y2530907D01*
X2800909Y2531153D01*
X2800987Y2531270D01*
X2801052Y2531361D01*
X2801117Y2531451D01*
X2801182Y2531516D01*
X2801233Y2531568D01*
X2801259Y2531620D01*
X2801285Y2531633D01*
X2801298Y2531646D01*
X2801441Y2531775D01*
X2801596Y2531892D01*
X2801765Y2531982D01*
X2801933Y2532060D01*
X2802270Y2532190D01*
X2802607Y2532280D01*
X2802749Y2532306D01*
X2802892Y2532332D01*
X2803021Y2532345D01*
X2803125Y2532358D01*
X2803215Y2532371D01*
X2803345D01*
X2803578Y2532358D01*
D02*
G37*
G36*
X2814032D02*
X2814252Y2532345D01*
X2814460Y2532306D01*
X2814654Y2532267D01*
X2814835Y2532216D01*
X2815003Y2532164D01*
X2815159Y2532099D01*
X2815302Y2532034D01*
X2815431Y2531969D01*
X2815535Y2531905D01*
X2815625Y2531853D01*
X2815703Y2531801D01*
X2815768Y2531762D01*
X2815807Y2531723D01*
X2815833Y2531710D01*
X2815845Y2531697D01*
X2815975Y2531568D01*
X2816092Y2531425D01*
X2816208Y2531270D01*
X2816299Y2531115D01*
X2816454Y2530804D01*
X2816558Y2530493D01*
X2816597Y2530350D01*
X2816636Y2530208D01*
X2816661Y2530091D01*
X2816688Y2529987D01*
X2816700Y2529897D01*
Y2529832D01*
X2816713Y2529793D01*
Y2529780D01*
X2815587Y2529664D01*
X2815561Y2529962D01*
X2815509Y2530221D01*
X2815431Y2530454D01*
X2815340Y2530635D01*
X2815262Y2530791D01*
X2815185Y2530894D01*
X2815133Y2530959D01*
X2815107Y2530985D01*
X2814913Y2531140D01*
X2814706Y2531257D01*
X2814485Y2531348D01*
X2814291Y2531400D01*
X2814109Y2531438D01*
X2813954Y2531451D01*
X2813902Y2531464D01*
X2813824D01*
X2813553Y2531451D01*
X2813307Y2531400D01*
X2813099Y2531322D01*
X2812918Y2531244D01*
X2812775Y2531153D01*
X2812685Y2531089D01*
X2812620Y2531037D01*
X2812594Y2531011D01*
X2812438Y2530829D01*
X2812322Y2530648D01*
X2812231Y2530467D01*
X2812180Y2530285D01*
X2812141Y2530143D01*
X2812128Y2530013D01*
X2812115Y2529936D01*
Y2529923D01*
Y2529910D01*
X2812141Y2529677D01*
X2812192Y2529431D01*
X2812283Y2529210D01*
X2812374Y2529003D01*
X2812477Y2528835D01*
X2812568Y2528692D01*
X2812594Y2528640D01*
X2812620Y2528601D01*
X2812646Y2528589D01*
Y2528575D01*
X2812749Y2528433D01*
X2812879Y2528291D01*
X2813022Y2528135D01*
X2813177Y2527980D01*
X2813501Y2527669D01*
X2813824Y2527358D01*
X2813993Y2527215D01*
X2814135Y2527086D01*
X2814278Y2526969D01*
X2814395Y2526866D01*
X2814485Y2526788D01*
X2814563Y2526723D01*
X2814615Y2526684D01*
X2814628Y2526671D01*
X2814951Y2526399D01*
X2815250Y2526140D01*
X2815496Y2525907D01*
X2815690Y2525713D01*
X2815858Y2525544D01*
X2815975Y2525428D01*
X2816040Y2525350D01*
X2816066Y2525337D01*
Y2525324D01*
X2816247Y2525104D01*
X2816389Y2524897D01*
X2816519Y2524689D01*
X2816623Y2524508D01*
X2816700Y2524353D01*
X2816752Y2524236D01*
X2816778Y2524158D01*
X2816791Y2524145D01*
Y2524132D01*
X2816843Y2523990D01*
X2816869Y2523860D01*
X2816895Y2523731D01*
X2816908Y2523614D01*
X2816920Y2523510D01*
Y2523433D01*
Y2523381D01*
Y2523368D01*
X2810975D01*
Y2524430D01*
X2815392D01*
X2815237Y2524650D01*
X2815159Y2524741D01*
X2815094Y2524832D01*
X2815029Y2524910D01*
X2814977Y2524961D01*
X2814939Y2525000D01*
X2814926Y2525013D01*
X2814861Y2525078D01*
X2814783Y2525143D01*
X2814602Y2525311D01*
X2814395Y2525505D01*
X2814174Y2525700D01*
X2813967Y2525868D01*
X2813876Y2525946D01*
X2813799Y2526024D01*
X2813734Y2526075D01*
X2813682Y2526114D01*
X2813656Y2526140D01*
X2813643Y2526153D01*
X2813436Y2526335D01*
X2813229Y2526503D01*
X2813047Y2526671D01*
X2812879Y2526814D01*
X2812723Y2526956D01*
X2812594Y2527086D01*
X2812465Y2527202D01*
X2812361Y2527306D01*
X2812257Y2527410D01*
X2812180Y2527487D01*
X2812115Y2527552D01*
X2812050Y2527617D01*
X2811985Y2527695D01*
X2811959Y2527720D01*
X2811778Y2527941D01*
X2811622Y2528135D01*
X2811493Y2528329D01*
X2811389Y2528485D01*
X2811312Y2528627D01*
X2811260Y2528731D01*
X2811234Y2528796D01*
X2811221Y2528822D01*
X2811143Y2529016D01*
X2811091Y2529210D01*
X2811039Y2529392D01*
X2811013Y2529547D01*
X2811001Y2529690D01*
X2810988Y2529793D01*
Y2529858D01*
Y2529884D01*
X2811001Y2530078D01*
X2811027Y2530260D01*
X2811053Y2530441D01*
X2811104Y2530596D01*
X2811234Y2530907D01*
X2811364Y2531153D01*
X2811441Y2531270D01*
X2811506Y2531361D01*
X2811571Y2531451D01*
X2811635Y2531516D01*
X2811687Y2531568D01*
X2811713Y2531620D01*
X2811739Y2531633D01*
X2811752Y2531646D01*
X2811895Y2531775D01*
X2812050Y2531892D01*
X2812218Y2531982D01*
X2812387Y2532060D01*
X2812723Y2532190D01*
X2813060Y2532280D01*
X2813203Y2532306D01*
X2813345Y2532332D01*
X2813475Y2532345D01*
X2813578Y2532358D01*
X2813669Y2532371D01*
X2813799D01*
X2814032Y2532358D01*
D02*
G37*
G36*
X2853853Y2532151D02*
X2853995Y2531944D01*
X2854164Y2531736D01*
X2854319Y2531555D01*
X2854474Y2531400D01*
X2854591Y2531270D01*
X2854643Y2531231D01*
X2854681Y2531192D01*
X2854695Y2531179D01*
X2854707Y2531166D01*
X2854980Y2530946D01*
X2855251Y2530739D01*
X2855511Y2530558D01*
X2855770Y2530415D01*
X2855990Y2530285D01*
X2856081Y2530234D01*
X2856158Y2530195D01*
X2856223Y2530156D01*
X2856275Y2530143D01*
X2856301Y2530117D01*
X2856314D01*
Y2529055D01*
X2856119Y2529133D01*
X2855925Y2529223D01*
X2855731Y2529314D01*
X2855550Y2529405D01*
X2855394Y2529482D01*
X2855265Y2529547D01*
X2855187Y2529599D01*
X2855174Y2529612D01*
X2855161D01*
X2854928Y2529754D01*
X2854720Y2529897D01*
X2854539Y2530026D01*
X2854397Y2530143D01*
X2854267Y2530234D01*
X2854189Y2530311D01*
X2854124Y2530363D01*
X2854112Y2530376D01*
Y2523368D01*
X2853011D01*
Y2532371D01*
X2853723D01*
X2853853Y2532151D01*
D02*
G37*
G36*
X2888699D02*
X2888841Y2531944D01*
X2889010Y2531736D01*
X2889165Y2531555D01*
X2889320Y2531400D01*
X2889437Y2531270D01*
X2889489Y2531231D01*
X2889528Y2531192D01*
X2889541Y2531179D01*
X2889554Y2531166D01*
X2889826Y2530946D01*
X2890098Y2530739D01*
X2890357Y2530558D01*
X2890616Y2530415D01*
X2890836Y2530285D01*
X2890927Y2530234D01*
X2891005Y2530195D01*
X2891069Y2530156D01*
X2891121Y2530143D01*
X2891147Y2530117D01*
X2891160D01*
Y2529055D01*
X2890966Y2529133D01*
X2890771Y2529223D01*
X2890577Y2529314D01*
X2890396Y2529405D01*
X2890240Y2529482D01*
X2890111Y2529547D01*
X2890033Y2529599D01*
X2890020Y2529612D01*
X2890007D01*
X2889774Y2529754D01*
X2889567Y2529897D01*
X2889385Y2530026D01*
X2889243Y2530143D01*
X2889113Y2530234D01*
X2889036Y2530311D01*
X2888971Y2530363D01*
X2888958Y2530376D01*
Y2523368D01*
X2887857D01*
Y2532371D01*
X2888569D01*
X2888699Y2532151D01*
D02*
G37*
G36*
X2799472Y2526062D02*
X2796065D01*
Y2527164D01*
X2799472D01*
Y2526062D01*
D02*
G37*
G36*
X2843347D02*
X2839940D01*
Y2527164D01*
X2843347D01*
Y2526062D01*
D02*
G37*
G36*
X2882442Y2532358D02*
X2882649Y2532332D01*
X2882856Y2532293D01*
X2883038Y2532242D01*
X2883387Y2532099D01*
X2883543Y2532034D01*
X2883672Y2531956D01*
X2883802Y2531866D01*
X2883906Y2531801D01*
X2884009Y2531723D01*
X2884087Y2531659D01*
X2884152Y2531607D01*
X2884191Y2531568D01*
X2884217Y2531542D01*
X2884230Y2531529D01*
X2884372Y2531374D01*
X2884489Y2531192D01*
X2884605Y2531024D01*
X2884696Y2530842D01*
X2884774Y2530648D01*
X2884839Y2530467D01*
X2884929Y2530130D01*
X2884968Y2529962D01*
X2884994Y2529819D01*
X2885007Y2529677D01*
X2885020Y2529560D01*
X2885033Y2529469D01*
Y2529405D01*
Y2529353D01*
Y2529340D01*
X2885020Y2529094D01*
X2884994Y2528873D01*
X2884968Y2528653D01*
X2884916Y2528446D01*
X2884851Y2528265D01*
X2884787Y2528083D01*
X2884722Y2527928D01*
X2884644Y2527785D01*
X2884579Y2527656D01*
X2884514Y2527539D01*
X2884450Y2527448D01*
X2884385Y2527358D01*
X2884333Y2527293D01*
X2884307Y2527254D01*
X2884281Y2527228D01*
X2884268Y2527215D01*
X2884126Y2527073D01*
X2883971Y2526956D01*
X2883815Y2526840D01*
X2883647Y2526749D01*
X2883491Y2526671D01*
X2883336Y2526606D01*
X2883038Y2526516D01*
X2882908Y2526477D01*
X2882779Y2526451D01*
X2882675Y2526438D01*
X2882571Y2526425D01*
X2882494Y2526412D01*
X2882390D01*
X2882144Y2526425D01*
X2881911Y2526464D01*
X2881703Y2526516D01*
X2881509Y2526581D01*
X2881367Y2526632D01*
X2881250Y2526684D01*
X2881172Y2526723D01*
X2881147Y2526736D01*
X2880939Y2526866D01*
X2880758Y2527008D01*
X2880602Y2527151D01*
X2880473Y2527280D01*
X2880382Y2527410D01*
X2880305Y2527500D01*
X2880253Y2527565D01*
X2880240Y2527591D01*
Y2527487D01*
Y2527423D01*
Y2527384D01*
Y2527371D01*
X2880253Y2527112D01*
X2880266Y2526866D01*
X2880292Y2526645D01*
X2880317Y2526438D01*
X2880356Y2526270D01*
X2880382Y2526140D01*
X2880395Y2526088D01*
Y2526049D01*
X2880408Y2526037D01*
Y2526024D01*
X2880473Y2525790D01*
X2880538Y2525583D01*
X2880602Y2525402D01*
X2880667Y2525246D01*
X2880719Y2525130D01*
X2880771Y2525039D01*
X2880797Y2524974D01*
X2880810Y2524961D01*
X2880913Y2524819D01*
X2881017Y2524702D01*
X2881121Y2524599D01*
X2881224Y2524508D01*
X2881302Y2524430D01*
X2881380Y2524378D01*
X2881432Y2524353D01*
X2881444Y2524340D01*
X2881587Y2524262D01*
X2881742Y2524210D01*
X2881885Y2524171D01*
X2882027Y2524145D01*
X2882144Y2524132D01*
X2882235Y2524119D01*
X2882325D01*
X2882533Y2524132D01*
X2882727Y2524171D01*
X2882896Y2524223D01*
X2883038Y2524288D01*
X2883141Y2524340D01*
X2883232Y2524391D01*
X2883284Y2524430D01*
X2883297Y2524443D01*
X2883427Y2524586D01*
X2883530Y2524754D01*
X2883621Y2524935D01*
X2883686Y2525117D01*
X2883737Y2525272D01*
X2883776Y2525415D01*
X2883789Y2525467D01*
Y2525493D01*
X2883802Y2525518D01*
Y2525531D01*
X2884865Y2525441D01*
X2884787Y2525065D01*
X2884683Y2524741D01*
X2884554Y2524456D01*
X2884424Y2524223D01*
X2884294Y2524042D01*
X2884230Y2523964D01*
X2884178Y2523899D01*
X2884139Y2523860D01*
X2884100Y2523821D01*
X2884087Y2523808D01*
X2884074Y2523795D01*
X2883945Y2523692D01*
X2883802Y2523601D01*
X2883517Y2523459D01*
X2883232Y2523355D01*
X2882960Y2523290D01*
X2882714Y2523239D01*
X2882610Y2523226D01*
X2882520D01*
X2882455Y2523213D01*
X2882351D01*
X2881989Y2523239D01*
X2881665Y2523290D01*
X2881367Y2523381D01*
X2881121Y2523485D01*
X2881017Y2523524D01*
X2880913Y2523575D01*
X2880836Y2523627D01*
X2880758Y2523666D01*
X2880706Y2523692D01*
X2880667Y2523718D01*
X2880641Y2523744D01*
X2880628D01*
X2880369Y2523964D01*
X2880136Y2524210D01*
X2879955Y2524469D01*
X2879799Y2524715D01*
X2879670Y2524935D01*
X2879618Y2525039D01*
X2879579Y2525117D01*
X2879553Y2525195D01*
X2879527Y2525246D01*
X2879514Y2525272D01*
Y2525285D01*
X2879449Y2525479D01*
X2879385Y2525700D01*
X2879294Y2526140D01*
X2879229Y2526606D01*
X2879190Y2527047D01*
X2879165Y2527241D01*
X2879152Y2527436D01*
Y2527604D01*
X2879139Y2527746D01*
Y2527863D01*
Y2527954D01*
Y2528018D01*
Y2528031D01*
Y2528329D01*
X2879152Y2528614D01*
X2879178Y2528873D01*
X2879203Y2529120D01*
X2879229Y2529340D01*
X2879255Y2529547D01*
X2879294Y2529741D01*
X2879333Y2529910D01*
X2879372Y2530052D01*
X2879398Y2530182D01*
X2879437Y2530298D01*
X2879463Y2530389D01*
X2879489Y2530454D01*
X2879514Y2530506D01*
X2879527Y2530532D01*
Y2530544D01*
X2879683Y2530855D01*
X2879851Y2531127D01*
X2880045Y2531361D01*
X2880214Y2531555D01*
X2880382Y2531697D01*
X2880512Y2531801D01*
X2880564Y2531840D01*
X2880602Y2531866D01*
X2880616Y2531892D01*
X2880628D01*
X2880900Y2532047D01*
X2881172Y2532164D01*
X2881444Y2532254D01*
X2881691Y2532306D01*
X2881911Y2532345D01*
X2882002Y2532358D01*
X2882066D01*
X2882131Y2532371D01*
X2882222D01*
X2882442Y2532358D01*
D02*
G37*
G36*
X2864876D02*
X2865097Y2532345D01*
X2865304Y2532306D01*
X2865498Y2532267D01*
X2865680Y2532216D01*
X2865848Y2532164D01*
X2866003Y2532099D01*
X2866146Y2532034D01*
X2866275Y2531969D01*
X2866379Y2531905D01*
X2866470Y2531853D01*
X2866548Y2531801D01*
X2866612Y2531762D01*
X2866651Y2531723D01*
X2866677Y2531710D01*
X2866690Y2531697D01*
X2866819Y2531568D01*
X2866936Y2531425D01*
X2867053Y2531270D01*
X2867143Y2531115D01*
X2867299Y2530804D01*
X2867402Y2530493D01*
X2867441Y2530350D01*
X2867480Y2530208D01*
X2867506Y2530091D01*
X2867532Y2529987D01*
X2867545Y2529897D01*
Y2529832D01*
X2867558Y2529793D01*
Y2529780D01*
X2866431Y2529664D01*
X2866405Y2529962D01*
X2866353Y2530221D01*
X2866275Y2530454D01*
X2866185Y2530635D01*
X2866107Y2530791D01*
X2866029Y2530894D01*
X2865977Y2530959D01*
X2865952Y2530985D01*
X2865757Y2531140D01*
X2865550Y2531257D01*
X2865330Y2531348D01*
X2865135Y2531400D01*
X2864954Y2531438D01*
X2864799Y2531451D01*
X2864747Y2531464D01*
X2864669D01*
X2864397Y2531451D01*
X2864151Y2531400D01*
X2863943Y2531322D01*
X2863762Y2531244D01*
X2863620Y2531153D01*
X2863529Y2531089D01*
X2863464Y2531037D01*
X2863438Y2531011D01*
X2863283Y2530829D01*
X2863167Y2530648D01*
X2863076Y2530467D01*
X2863024Y2530285D01*
X2862985Y2530143D01*
X2862972Y2530013D01*
X2862959Y2529936D01*
Y2529923D01*
Y2529910D01*
X2862985Y2529677D01*
X2863037Y2529431D01*
X2863127Y2529210D01*
X2863218Y2529003D01*
X2863322Y2528835D01*
X2863412Y2528692D01*
X2863438Y2528640D01*
X2863464Y2528601D01*
X2863490Y2528589D01*
Y2528575D01*
X2863594Y2528433D01*
X2863723Y2528291D01*
X2863866Y2528135D01*
X2864021Y2527980D01*
X2864345Y2527669D01*
X2864669Y2527358D01*
X2864838Y2527215D01*
X2864980Y2527086D01*
X2865122Y2526969D01*
X2865239Y2526866D01*
X2865330Y2526788D01*
X2865407Y2526723D01*
X2865459Y2526684D01*
X2865472Y2526671D01*
X2865796Y2526399D01*
X2866094Y2526140D01*
X2866340Y2525907D01*
X2866534Y2525713D01*
X2866703Y2525544D01*
X2866819Y2525428D01*
X2866884Y2525350D01*
X2866910Y2525337D01*
Y2525324D01*
X2867091Y2525104D01*
X2867234Y2524897D01*
X2867364Y2524689D01*
X2867467Y2524508D01*
X2867545Y2524353D01*
X2867597Y2524236D01*
X2867623Y2524158D01*
X2867635Y2524145D01*
Y2524132D01*
X2867687Y2523990D01*
X2867713Y2523860D01*
X2867739Y2523731D01*
X2867752Y2523614D01*
X2867765Y2523510D01*
Y2523433D01*
Y2523381D01*
Y2523368D01*
X2861819D01*
Y2524430D01*
X2866237D01*
X2866081Y2524650D01*
X2866003Y2524741D01*
X2865939Y2524832D01*
X2865874Y2524910D01*
X2865822Y2524961D01*
X2865783Y2525000D01*
X2865770Y2525013D01*
X2865705Y2525078D01*
X2865628Y2525143D01*
X2865446Y2525311D01*
X2865239Y2525505D01*
X2865019Y2525700D01*
X2864812Y2525868D01*
X2864721Y2525946D01*
X2864643Y2526024D01*
X2864579Y2526075D01*
X2864527Y2526114D01*
X2864501Y2526140D01*
X2864488Y2526153D01*
X2864280Y2526335D01*
X2864073Y2526503D01*
X2863892Y2526671D01*
X2863723Y2526814D01*
X2863568Y2526956D01*
X2863438Y2527086D01*
X2863309Y2527202D01*
X2863205Y2527306D01*
X2863102Y2527410D01*
X2863024Y2527487D01*
X2862959Y2527552D01*
X2862894Y2527617D01*
X2862830Y2527695D01*
X2862804Y2527720D01*
X2862622Y2527941D01*
X2862467Y2528135D01*
X2862337Y2528329D01*
X2862234Y2528485D01*
X2862156Y2528627D01*
X2862104Y2528731D01*
X2862078Y2528796D01*
X2862065Y2528822D01*
X2861988Y2529016D01*
X2861936Y2529210D01*
X2861884Y2529392D01*
X2861858Y2529547D01*
X2861845Y2529690D01*
X2861832Y2529793D01*
Y2529858D01*
Y2529884D01*
X2861845Y2530078D01*
X2861871Y2530260D01*
X2861897Y2530441D01*
X2861949Y2530596D01*
X2862078Y2530907D01*
X2862208Y2531153D01*
X2862285Y2531270D01*
X2862350Y2531361D01*
X2862415Y2531451D01*
X2862480Y2531516D01*
X2862532Y2531568D01*
X2862558Y2531620D01*
X2862584Y2531633D01*
X2862596Y2531646D01*
X2862739Y2531775D01*
X2862894Y2531892D01*
X2863063Y2531982D01*
X2863231Y2532060D01*
X2863568Y2532190D01*
X2863905Y2532280D01*
X2864047Y2532306D01*
X2864190Y2532332D01*
X2864319Y2532345D01*
X2864423Y2532358D01*
X2864514Y2532371D01*
X2864643D01*
X2864876Y2532358D01*
D02*
G37*
%LPC*%
G36*
X2922226Y2531016D02*
X2920102D01*
X2919817Y2530990D01*
X2919597Y2530977D01*
X2919402Y2530951D01*
X2919260Y2530925D01*
X2919169Y2530912D01*
X2919104Y2530886D01*
X2919091D01*
X2918949Y2530835D01*
X2918819Y2530757D01*
X2918716Y2530679D01*
X2918625Y2530601D01*
X2918560Y2530537D01*
X2918508Y2530472D01*
X2918482Y2530433D01*
X2918470Y2530420D01*
X2918392Y2530291D01*
X2918340Y2530161D01*
X2918301Y2530031D01*
X2918275Y2529902D01*
X2918262Y2529798D01*
X2918250Y2529720D01*
Y2529669D01*
Y2529643D01*
X2918262Y2529474D01*
X2918288Y2529319D01*
X2918327Y2529189D01*
X2918366Y2529086D01*
X2918405Y2528995D01*
X2918444Y2528917D01*
X2918470Y2528878D01*
X2918482Y2528866D01*
X2918573Y2528762D01*
X2918690Y2528658D01*
X2918806Y2528581D01*
X2918910Y2528529D01*
X2919014Y2528477D01*
X2919091Y2528438D01*
X2919143Y2528425D01*
X2919169Y2528412D01*
X2919312Y2528386D01*
X2919493Y2528360D01*
X2919674Y2528347D01*
X2919856Y2528335D01*
X2920024Y2528322D01*
X2922226D01*
Y2531016D01*
D02*
G37*
G36*
X2911202Y2531210D02*
X2911086D01*
X2910762Y2531197D01*
X2910451Y2531145D01*
X2910179Y2531068D01*
X2909946Y2530990D01*
X2909752Y2530899D01*
X2909674Y2530860D01*
X2909609Y2530835D01*
X2909544Y2530796D01*
X2909505Y2530783D01*
X2909492Y2530757D01*
X2909479D01*
X2909233Y2530576D01*
X2909013Y2530368D01*
X2908819Y2530161D01*
X2908663Y2529954D01*
X2908547Y2529772D01*
X2908456Y2529617D01*
X2908430Y2529565D01*
X2908404Y2529526D01*
X2908391Y2529500D01*
Y2529487D01*
X2908262Y2529176D01*
X2908171Y2528840D01*
X2908106Y2528529D01*
X2908068Y2528231D01*
X2908042Y2528088D01*
X2908029Y2527972D01*
Y2527855D01*
X2908016Y2527764D01*
Y2527687D01*
Y2527635D01*
Y2527596D01*
Y2527583D01*
X2908029Y2527272D01*
X2908055Y2526974D01*
X2908093Y2526689D01*
X2908145Y2526430D01*
X2908223Y2526197D01*
X2908288Y2525977D01*
X2908365Y2525770D01*
X2908443Y2525588D01*
X2908534Y2525433D01*
X2908611Y2525290D01*
X2908676Y2525174D01*
X2908741Y2525083D01*
X2908806Y2525005D01*
X2908845Y2524940D01*
X2908871Y2524915D01*
X2908884Y2524902D01*
X2909052Y2524733D01*
X2909233Y2524591D01*
X2909415Y2524474D01*
X2909596Y2524358D01*
X2909778Y2524267D01*
X2909972Y2524202D01*
X2910140Y2524137D01*
X2910321Y2524086D01*
X2910477Y2524047D01*
X2910632Y2524021D01*
X2910762Y2523995D01*
X2910879Y2523982D01*
X2910969D01*
X2911034Y2523969D01*
X2911099D01*
X2911345Y2523982D01*
X2911578Y2524008D01*
X2911785Y2524060D01*
X2911992Y2524111D01*
X2912187Y2524189D01*
X2912368Y2524267D01*
X2912537Y2524345D01*
X2912692Y2524435D01*
X2912822Y2524526D01*
X2912938Y2524604D01*
X2913042Y2524681D01*
X2913133Y2524759D01*
X2913197Y2524811D01*
X2913249Y2524863D01*
X2913275Y2524889D01*
X2913288Y2524902D01*
X2913443Y2525083D01*
X2913573Y2525277D01*
X2913690Y2525485D01*
X2913793Y2525692D01*
X2913871Y2525912D01*
X2913949Y2526119D01*
X2914052Y2526534D01*
X2914078Y2526715D01*
X2914104Y2526897D01*
X2914130Y2527052D01*
X2914143Y2527182D01*
X2914156Y2527298D01*
Y2527389D01*
Y2527441D01*
Y2527454D01*
X2914143Y2527816D01*
X2914117Y2528153D01*
X2914078Y2528477D01*
X2914013Y2528762D01*
X2913949Y2529021D01*
X2913871Y2529254D01*
X2913780Y2529474D01*
X2913702Y2529656D01*
X2913612Y2529824D01*
X2913534Y2529967D01*
X2913456Y2530083D01*
X2913392Y2530174D01*
X2913327Y2530252D01*
X2913288Y2530303D01*
X2913262Y2530329D01*
X2913249Y2530342D01*
X2913081Y2530498D01*
X2912899Y2530627D01*
X2912718Y2530744D01*
X2912524Y2530847D01*
X2912342Y2530925D01*
X2912161Y2531003D01*
X2911824Y2531107D01*
X2911669Y2531133D01*
X2911526Y2531158D01*
X2911410Y2531184D01*
X2911293Y2531197D01*
X2911202Y2531210D01*
D02*
G37*
G36*
X2922226Y2527259D02*
X2919868D01*
X2919597Y2527233D01*
X2919377Y2527207D01*
X2919195Y2527182D01*
X2919052Y2527156D01*
X2918936Y2527130D01*
X2918884Y2527117D01*
X2918858Y2527104D01*
X2918690Y2527039D01*
X2918547Y2526961D01*
X2918418Y2526871D01*
X2918314Y2526780D01*
X2918236Y2526702D01*
X2918185Y2526638D01*
X2918146Y2526586D01*
X2918133Y2526573D01*
X2918042Y2526430D01*
X2917977Y2526288D01*
X2917925Y2526145D01*
X2917899Y2526016D01*
X2917874Y2525899D01*
X2917861Y2525795D01*
Y2525744D01*
Y2525718D01*
X2917874Y2525562D01*
X2917887Y2525407D01*
X2917913Y2525277D01*
X2917951Y2525174D01*
X2917990Y2525083D01*
X2918016Y2525005D01*
X2918029Y2524966D01*
X2918042Y2524953D01*
X2918120Y2524837D01*
X2918185Y2524733D01*
X2918275Y2524655D01*
X2918340Y2524578D01*
X2918405Y2524526D01*
X2918457Y2524487D01*
X2918495Y2524461D01*
X2918508Y2524448D01*
X2918729Y2524345D01*
X2918949Y2524267D01*
X2919040Y2524241D01*
X2919117Y2524228D01*
X2919169Y2524215D01*
X2919182D01*
X2919286Y2524202D01*
X2919402Y2524189D01*
X2919674Y2524176D01*
X2922226D01*
Y2527259D01*
D02*
G37*
G36*
X2761568Y2531270D02*
X2759444D01*
X2759159Y2531244D01*
X2758939Y2531231D01*
X2758744Y2531205D01*
X2758602Y2531179D01*
X2758511Y2531166D01*
X2758446Y2531140D01*
X2758433D01*
X2758291Y2531089D01*
X2758161Y2531011D01*
X2758058Y2530933D01*
X2757967Y2530855D01*
X2757902Y2530791D01*
X2757850Y2530726D01*
X2757824Y2530687D01*
X2757812Y2530674D01*
X2757734Y2530544D01*
X2757682Y2530415D01*
X2757643Y2530285D01*
X2757617Y2530156D01*
X2757604Y2530052D01*
X2757591Y2529975D01*
Y2529923D01*
Y2529897D01*
X2757604Y2529728D01*
X2757630Y2529573D01*
X2757669Y2529443D01*
X2757708Y2529340D01*
X2757747Y2529249D01*
X2757786Y2529171D01*
X2757812Y2529133D01*
X2757824Y2529120D01*
X2757915Y2529016D01*
X2758032Y2528912D01*
X2758148Y2528835D01*
X2758252Y2528783D01*
X2758356Y2528731D01*
X2758433Y2528692D01*
X2758485Y2528679D01*
X2758511Y2528666D01*
X2758654Y2528640D01*
X2758835Y2528614D01*
X2759016Y2528601D01*
X2759198Y2528589D01*
X2759366Y2528575D01*
X2761568D01*
Y2531270D01*
D02*
G37*
G36*
X2846663Y2530544D02*
Y2526529D01*
X2849487D01*
X2846663Y2530544D01*
D02*
G37*
G36*
X2827102Y2529107D02*
X2827025D01*
X2826869Y2529094D01*
X2826727Y2529081D01*
X2826455Y2529003D01*
X2826222Y2528899D01*
X2826027Y2528783D01*
X2825872Y2528666D01*
X2825755Y2528563D01*
X2825691Y2528485D01*
X2825665Y2528472D01*
Y2528459D01*
X2825548Y2528291D01*
X2825444Y2528096D01*
X2825380Y2527902D01*
X2825315Y2527695D01*
X2825276Y2527526D01*
X2825250Y2527371D01*
Y2527319D01*
X2825237Y2527280D01*
Y2527254D01*
Y2527241D01*
X2828877D01*
X2828838Y2527539D01*
X2828761Y2527811D01*
X2828670Y2528044D01*
X2828566Y2528226D01*
X2828476Y2528381D01*
X2828385Y2528498D01*
X2828333Y2528563D01*
X2828307Y2528589D01*
X2828100Y2528757D01*
X2827893Y2528886D01*
X2827672Y2528977D01*
X2827465Y2529042D01*
X2827297Y2529081D01*
X2827154Y2529094D01*
X2827102Y2529107D01*
D02*
G37*
G36*
X2761568Y2527513D02*
X2759211D01*
X2758939Y2527487D01*
X2758718Y2527462D01*
X2758537Y2527436D01*
X2758394Y2527410D01*
X2758278Y2527384D01*
X2758226Y2527371D01*
X2758200Y2527358D01*
X2758032Y2527293D01*
X2757889Y2527215D01*
X2757760Y2527125D01*
X2757656Y2527034D01*
X2757578Y2526956D01*
X2757527Y2526891D01*
X2757488Y2526840D01*
X2757475Y2526827D01*
X2757384Y2526684D01*
X2757319Y2526542D01*
X2757267Y2526399D01*
X2757242Y2526270D01*
X2757216Y2526153D01*
X2757203Y2526049D01*
Y2525998D01*
Y2525972D01*
X2757216Y2525816D01*
X2757229Y2525661D01*
X2757255Y2525531D01*
X2757293Y2525428D01*
X2757332Y2525337D01*
X2757358Y2525259D01*
X2757371Y2525220D01*
X2757384Y2525208D01*
X2757462Y2525091D01*
X2757527Y2524987D01*
X2757617Y2524910D01*
X2757682Y2524832D01*
X2757747Y2524780D01*
X2757798Y2524741D01*
X2757838Y2524715D01*
X2757850Y2524702D01*
X2758071Y2524599D01*
X2758291Y2524521D01*
X2758381Y2524495D01*
X2758459Y2524482D01*
X2758511Y2524469D01*
X2758524D01*
X2758628Y2524456D01*
X2758744Y2524443D01*
X2759016Y2524430D01*
X2761568D01*
Y2527513D01*
D02*
G37*
G36*
X2871742Y2531464D02*
X2871664D01*
X2871522Y2531451D01*
X2871379Y2531438D01*
X2871250Y2531400D01*
X2871133Y2531348D01*
X2870913Y2531231D01*
X2870719Y2531102D01*
X2870576Y2530959D01*
X2870460Y2530842D01*
X2870421Y2530791D01*
X2870395Y2530752D01*
X2870369Y2530739D01*
Y2530726D01*
X2870278Y2530570D01*
X2870201Y2530389D01*
X2870123Y2530182D01*
X2870071Y2529962D01*
X2870019Y2529728D01*
X2869980Y2529482D01*
X2869915Y2528990D01*
X2869890Y2528744D01*
X2869877Y2528524D01*
X2869864Y2528316D01*
Y2528148D01*
X2869851Y2527993D01*
Y2527876D01*
Y2527811D01*
Y2527798D01*
Y2527785D01*
Y2527384D01*
X2869877Y2527021D01*
X2869903Y2526697D01*
X2869928Y2526386D01*
X2869967Y2526127D01*
X2870019Y2525881D01*
X2870071Y2525674D01*
X2870110Y2525479D01*
X2870162Y2525324D01*
X2870213Y2525195D01*
X2870252Y2525078D01*
X2870304Y2524987D01*
X2870330Y2524922D01*
X2870356Y2524884D01*
X2870382Y2524858D01*
Y2524845D01*
X2870486Y2524715D01*
X2870589Y2524612D01*
X2870693Y2524508D01*
X2870796Y2524430D01*
X2871017Y2524301D01*
X2871211Y2524210D01*
X2871392Y2524158D01*
X2871522Y2524132D01*
X2871573Y2524119D01*
X2871651D01*
X2871794Y2524132D01*
X2871923Y2524145D01*
X2872169Y2524236D01*
X2872390Y2524353D01*
X2872584Y2524482D01*
X2872726Y2524612D01*
X2872843Y2524728D01*
X2872908Y2524819D01*
X2872934Y2524832D01*
Y2524845D01*
X2873024Y2525000D01*
X2873102Y2525182D01*
X2873180Y2525389D01*
X2873232Y2525609D01*
X2873283Y2525842D01*
X2873322Y2526088D01*
X2873387Y2526593D01*
X2873413Y2526827D01*
X2873426Y2527047D01*
X2873439Y2527254D01*
Y2527423D01*
X2873452Y2527578D01*
Y2527695D01*
Y2527759D01*
Y2527785D01*
X2873439Y2528187D01*
X2873426Y2528550D01*
X2873400Y2528886D01*
X2873361Y2529197D01*
X2873322Y2529469D01*
X2873271Y2529716D01*
X2873219Y2529936D01*
X2873167Y2530130D01*
X2873115Y2530298D01*
X2873076Y2530441D01*
X2873024Y2530558D01*
X2872986Y2530661D01*
X2872947Y2530726D01*
X2872921Y2530778D01*
X2872895Y2530804D01*
Y2530817D01*
X2872804Y2530933D01*
X2872714Y2531037D01*
X2872610Y2531115D01*
X2872506Y2531192D01*
X2872299Y2531309D01*
X2872105Y2531387D01*
X2871936Y2531425D01*
X2871794Y2531451D01*
X2871742Y2531464D01*
D02*
G37*
G36*
X2785157Y2531335D02*
X2782333D01*
X2781984Y2531322D01*
X2781686Y2531270D01*
X2781427Y2531205D01*
X2781232Y2531127D01*
X2781064Y2531050D01*
X2780960Y2530985D01*
X2780896Y2530933D01*
X2780870Y2530920D01*
X2780714Y2530752D01*
X2780598Y2530583D01*
X2780520Y2530402D01*
X2780455Y2530247D01*
X2780429Y2530091D01*
X2780416Y2529975D01*
X2780403Y2529897D01*
Y2529884D01*
Y2529871D01*
X2780416Y2529716D01*
X2780442Y2529560D01*
X2780481Y2529431D01*
X2780520Y2529314D01*
X2780572Y2529210D01*
X2780611Y2529133D01*
X2780637Y2529081D01*
X2780649Y2529068D01*
X2780740Y2528938D01*
X2780857Y2528822D01*
X2780973Y2528731D01*
X2781090Y2528653D01*
X2781194Y2528601D01*
X2781271Y2528563D01*
X2781323Y2528537D01*
X2781349Y2528524D01*
X2781530Y2528472D01*
X2781738Y2528433D01*
X2781945Y2528407D01*
X2782152Y2528394D01*
X2782333Y2528381D01*
X2782489Y2528368D01*
X2785157D01*
Y2531335D01*
D02*
G37*
G36*
X2837388D02*
X2834564D01*
X2834214Y2531322D01*
X2833916Y2531270D01*
X2833657Y2531205D01*
X2833463Y2531127D01*
X2833294Y2531050D01*
X2833191Y2530985D01*
X2833126Y2530933D01*
X2833100Y2530920D01*
X2832945Y2530752D01*
X2832828Y2530583D01*
X2832751Y2530402D01*
X2832686Y2530247D01*
X2832660Y2530091D01*
X2832647Y2529975D01*
X2832634Y2529897D01*
Y2529884D01*
Y2529871D01*
X2832647Y2529716D01*
X2832673Y2529560D01*
X2832711Y2529431D01*
X2832751Y2529314D01*
X2832802Y2529210D01*
X2832841Y2529133D01*
X2832867Y2529081D01*
X2832880Y2529068D01*
X2832971Y2528938D01*
X2833087Y2528822D01*
X2833204Y2528731D01*
X2833320Y2528653D01*
X2833424Y2528601D01*
X2833502Y2528563D01*
X2833553Y2528537D01*
X2833579Y2528524D01*
X2833761Y2528472D01*
X2833968Y2528433D01*
X2834175Y2528407D01*
X2834383Y2528394D01*
X2834564Y2528381D01*
X2834720Y2528368D01*
X2837388D01*
Y2531335D01*
D02*
G37*
G36*
X2882157Y2531464D02*
X2881950D01*
X2881820Y2531438D01*
X2881587Y2531374D01*
X2881380Y2531283D01*
X2881198Y2531192D01*
X2881056Y2531089D01*
X2880952Y2530998D01*
X2880887Y2530933D01*
X2880862Y2530920D01*
Y2530907D01*
X2880693Y2530687D01*
X2880564Y2530441D01*
X2880473Y2530182D01*
X2880421Y2529936D01*
X2880382Y2529728D01*
X2880369Y2529638D01*
Y2529547D01*
X2880356Y2529482D01*
Y2529431D01*
Y2529405D01*
Y2529392D01*
X2880382Y2529055D01*
X2880434Y2528757D01*
X2880512Y2528511D01*
X2880602Y2528304D01*
X2880706Y2528135D01*
X2880784Y2528018D01*
X2880836Y2527941D01*
X2880862Y2527915D01*
X2881056Y2527733D01*
X2881263Y2527604D01*
X2881470Y2527513D01*
X2881678Y2527448D01*
X2881846Y2527410D01*
X2881989Y2527397D01*
X2882040Y2527384D01*
X2882118D01*
X2882390Y2527410D01*
X2882636Y2527462D01*
X2882856Y2527552D01*
X2883051Y2527656D01*
X2883193Y2527746D01*
X2883310Y2527837D01*
X2883375Y2527889D01*
X2883401Y2527915D01*
X2883569Y2528122D01*
X2883698Y2528355D01*
X2883776Y2528589D01*
X2883841Y2528809D01*
X2883880Y2529003D01*
X2883893Y2529081D01*
Y2529158D01*
X2883906Y2529223D01*
Y2529262D01*
Y2529288D01*
Y2529301D01*
X2883880Y2529638D01*
X2883828Y2529949D01*
X2883737Y2530221D01*
X2883634Y2530441D01*
X2883543Y2530622D01*
X2883452Y2530752D01*
X2883427Y2530791D01*
X2883401Y2530829D01*
X2883375Y2530842D01*
Y2530855D01*
X2883271Y2530959D01*
X2883167Y2531063D01*
X2882947Y2531205D01*
X2882727Y2531322D01*
X2882520Y2531387D01*
X2882351Y2531438D01*
X2882209Y2531451D01*
X2882157Y2531464D01*
D02*
G37*
G36*
X2793526Y2531270D02*
X2790961D01*
X2790728Y2531257D01*
X2790533Y2531244D01*
X2790378Y2531231D01*
X2790274Y2531205D01*
X2790197Y2531192D01*
X2790145Y2531179D01*
X2790132D01*
X2789963Y2531115D01*
X2789821Y2531037D01*
X2789691Y2530959D01*
X2789575Y2530868D01*
X2789497Y2530778D01*
X2789432Y2530713D01*
X2789393Y2530661D01*
X2789380Y2530648D01*
X2789290Y2530493D01*
X2789212Y2530337D01*
X2789160Y2530169D01*
X2789134Y2530026D01*
X2789108Y2529897D01*
X2789095Y2529780D01*
Y2529716D01*
Y2529702D01*
Y2529690D01*
X2789121Y2529418D01*
X2789173Y2529184D01*
X2789251Y2528977D01*
X2789342Y2528809D01*
X2789432Y2528679D01*
X2789510Y2528575D01*
X2789562Y2528524D01*
X2789588Y2528498D01*
X2789678Y2528420D01*
X2789795Y2528355D01*
X2790041Y2528252D01*
X2790313Y2528174D01*
X2790585Y2528122D01*
X2790831Y2528096D01*
X2790935Y2528083D01*
X2791026D01*
X2791116Y2528070D01*
X2793526D01*
Y2531270D01*
D02*
G37*
%LPD*%
D57*
X2542250Y2560250D02*
D03*
D58*
X2554950D02*
D03*
X2542250Y2547550D02*
D03*
X2554950D02*
D03*
X2542250Y2534850D02*
D03*
X2554950D02*
D03*
D59*
X2590800Y2514750D02*
D03*
X2565400D02*
D03*
X2540000D02*
D03*
D60*
X2514600D02*
D03*
M02*
