%FSLAX44Y44*%
%MOMM*%
G71*
G01*
G75*
G04 Layer_Color=8421504*
%ADD10R,0.6000X0.6000*%
%ADD11R,0.6000X0.6000*%
%ADD12R,3.4800X0.2000*%
%ADD13R,0.4600X0.4600*%
%ADD14R,0.7500X0.6500*%
%ADD15R,0.2500X0.4000*%
%ADD16R,2.2000X1.0500*%
%ADD17R,1.0500X1.0000*%
%ADD18R,0.3500X0.6000*%
%ADD19R,1.6000X1.0000*%
%ADD20R,1.0000X1.0000*%
%ADD21O,0.7500X0.2800*%
%ADD22O,0.2800X0.7500*%
%ADD23R,4.2000X4.2000*%
%ADD24C,0.1500*%
%ADD25C,0.4000*%
%ADD26C,0.6000*%
%ADD27C,0.2200*%
%ADD28C,0.2500*%
%ADD29C,0.3000*%
%ADD30C,0.2000*%
%ADD31R,4.1148X1.3716*%
%ADD32R,1.0000X1.0000*%
%ADD33C,1.0000*%
%ADD34C,1.5000*%
%ADD35R,1.5000X1.5000*%
%ADD36C,0.4000*%
%ADD37R,1.2000X1.2000*%
%ADD38R,0.5000X0.5000*%
%ADD39R,0.5000X0.5000*%
%ADD40R,0.6500X0.5500*%
%ADD41R,0.1500X0.3000*%
%ADD42R,0.2500X0.5000*%
%ADD43R,1.4000X0.8000*%
%ADD44R,0.9000X0.9000*%
%ADD45O,0.7000X0.2300*%
%ADD46O,0.2300X0.7000*%
D37*
X2656750Y2553750D02*
D03*
X2642750D02*
D03*
X2628750D02*
D03*
Y2539750D02*
D03*
X2656750D02*
D03*
Y2525750D02*
D03*
X2642750D02*
D03*
X2628750D02*
D03*
X2642750Y2539750D02*
D03*
D38*
X2684250Y2513500D02*
D03*
X2694250D02*
D03*
X2595500Y2563500D02*
D03*
X2585500D02*
D03*
X2595250Y2555750D02*
D03*
X2585250D02*
D03*
X2603806Y2532766D02*
D03*
X2593806D02*
D03*
X2683500Y2527000D02*
D03*
X2693500Y2527000D02*
D03*
X2687500Y2565250D02*
D03*
X2697500D02*
D03*
X2687500Y2557250D02*
D03*
X2697500D02*
D03*
X2687500Y2549250D02*
D03*
X2697500D02*
D03*
X2712500Y2571250D02*
D03*
X2702500D02*
D03*
X2728000Y2525750D02*
D03*
X2738000D02*
D03*
X2514500Y2568000D02*
D03*
X2524500D02*
D03*
X2517250Y2527500D02*
D03*
X2527250D02*
D03*
D39*
X2565532Y2552912D02*
D03*
Y2562912D02*
D03*
X2702250Y2516500D02*
D03*
Y2506500D02*
D03*
X2679750Y2573750D02*
D03*
Y2563750D02*
D03*
X2505500Y2567750D02*
D03*
Y2557750D02*
D03*
X2575250Y2569750D02*
D03*
Y2559750D02*
D03*
D40*
X2714750Y2507000D02*
D03*
X2727750D02*
D03*
X2714750Y2517000D02*
D03*
X2727750D02*
D03*
D41*
X2713500Y2536000D02*
D03*
Y2544000D02*
D03*
X2708500Y2536000D02*
D03*
Y2544000D02*
D03*
X2703500Y2536000D02*
D03*
Y2544000D02*
D03*
D42*
X2513750Y2534750D02*
D03*
X2520250D02*
D03*
X2513750Y2556750D02*
D03*
X2520250D02*
D03*
X2526750Y2534750D02*
D03*
Y2556750D02*
D03*
D43*
X2520250Y2545750D02*
D03*
D44*
X2509500Y2642000D02*
D03*
X2528500D02*
D03*
D45*
X2613000Y2562250D02*
D03*
Y2557250D02*
D03*
Y2552250D02*
D03*
Y2547250D02*
D03*
Y2542250D02*
D03*
Y2537250D02*
D03*
Y2532250D02*
D03*
Y2527250D02*
D03*
Y2522250D02*
D03*
Y2517250D02*
D03*
X2672500D02*
D03*
Y2522250D02*
D03*
Y2527250D02*
D03*
Y2532250D02*
D03*
Y2537250D02*
D03*
Y2542250D02*
D03*
Y2547250D02*
D03*
Y2552250D02*
D03*
Y2557250D02*
D03*
Y2562250D02*
D03*
D46*
X2620250Y2510000D02*
D03*
X2625250D02*
D03*
X2630250D02*
D03*
X2635250D02*
D03*
X2640250D02*
D03*
X2645250D02*
D03*
X2650250D02*
D03*
X2655250D02*
D03*
X2660250D02*
D03*
X2665250D02*
D03*
Y2569500D02*
D03*
X2660250D02*
D03*
X2655250D02*
D03*
X2650250D02*
D03*
X2645250D02*
D03*
X2640250D02*
D03*
X2635250D02*
D03*
X2630250D02*
D03*
X2625250D02*
D03*
X2620250D02*
D03*
M02*
