M48
;Layer_Color=9474304
;FILE_FORMAT=4:4
METRIC,TZ
;TYPE=PLATED
T1F00S00C0.2000
T2F00S00C0.6000
T3F00S00C0.9000
%
T01
X2507250Y2527000
X2507500Y2539250
Y2546250
X2516250Y2545750
X2524250
X2532750Y2551500
X2530250Y2564000
Y2568000
X2531750Y2576000
X2543250
X2553750
X2563750
X2569250Y2569750
X2575750Y2576000
X2588750
X2600750
X2598806Y2569850
X2611500Y2576000
X2627750Y2576250
X2637750Y2576000
X2647750
X2657750
X2669750
X2685000
X2695000Y2574250
X2704216Y2564516
X2704470Y2557912
X2708010Y2551252
X2708500Y2528750
X2718000Y2537000
X2737499Y2534999
X2752476Y2534036
X2767716Y2535052
X2775336Y2550292
X2758064Y2550546
X2751206Y2564262
X2749428Y2572644
X2758572Y2571628
X2764922Y2565024
X2774320Y2574422
X2737744Y2572898
X2727330Y2573152
X2681759Y2553503
X2683500Y2531750
X2657750Y2534750
Y2544750
X2647750
Y2534750
X2637750
Y2544750
X2627750
Y2534750
Y2524750
X2637750
X2647750
X2657750
Y2554750
X2647750
X2637750
X2627750
X2645257Y2563753
X2650257
X2608255Y2541752
X2598044Y2540132
X2588500Y2540500
X2573660Y2551562
X2580754Y2563503
X2575500Y2526750
X2576750Y2508000
X2602500Y2508250
X2610500Y2512500
X2615062Y2509906
X2670500Y2506250
X2679500
X2692250
X2735750Y2506500
X2551000Y2521000
X2548533Y2529198
X2533500Y2527500
X2526000Y2508500
X2504500Y2552503
X2514500Y2562750
X2520000Y2576000
X2508000
X2505000Y2634250
X2789814Y2574168
X2782499Y2564999
X2797499
X2812499
X2809750Y2574000
X2824250
X2827499Y2564999
X2842499
X2839500Y2574000
X2855750
X2857499Y2564999
X2872499
X2872750Y2574000
X2889000
X2887499Y2564999
X2902499
X2905750Y2574000
X2925250
X2932499Y2564999
X2917499
X2909999Y2549999
X2924999
X2932499Y2534999
X2917499
X2902499
X2887499
X2872499
X2857499
X2842499
X2827499
X2812499
X2797499
X2782702Y2535052
X2789999Y2549999
X2804999
X2819999
X2834999
X2849999
X2864999
X2879999
X2894999
T02
X2542250Y2534850
X2554950
Y2547550
X2542250
Y2560250
X2554950
T03
X2514600Y2514750
X2540000
X2565400
X2590800
M30
