M48
;Layer_Color=9474304
;FILE_FORMAT=4:4
METRIC,TZ
;TYPE=PLATED
T1F00S00C0.3000
T2F00S00C0.6000
;TYPE=NON_PLATED
T4F00S00C1.3000
%
T01
X2183000Y2482000
X2189999Y2519999
X2204999
X2210000Y2554000
X2228000Y2565000
X2242499Y2564999
X2234999Y2579999
X2230252Y2588646
X2220600Y2588392
X2242698Y2587884
X2254128
X2249999Y2579999
Y2549999
X2264999
X2278258Y2546736
X2279999Y2519999
X2294999
X2311000Y2518000
X2323000Y2520000
X2321000Y2528000
X2322962Y2536322
X2321692Y2565278
X2332499Y2564999
X2348616Y2569850
X2356490Y2569088
X2368984Y2592328
X2311532Y2588646
X2303404Y2588900
X2305000Y2567000
X2302499Y2504999
X2287499
X2294999Y2489999
X2324999
X2340000Y2489000
X2340742Y2503048
X2365126Y2504826
X2364000Y2495000
X2362499Y2474999
X2377499
X2369999Y2459999
X2369190Y2449962
X2358776
X2348000Y2450000
X2337948Y2449962
X2327280Y2449454
X2318898Y2448946
X2307468
X2298070Y2449200
X2287148Y2449708
X2273686
X2264542Y2449200
X2253620
X2243206
X2232000Y2449000
X2220854Y2449962
X2234999Y2459999
X2249999
X2264999
X2279999
X2294999
X2309999
X2324999
X2339999
X2354999
X2347499Y2474999
X2332499
X2317499
X2273862Y2471466
Y2479466
X2242499Y2474999
X2249048Y2517526
X2248540Y2525654
X2228000Y2542000
X2182000Y2551000
X2347854Y2527940
X2356744Y2521590
X2380366Y2449962
X2393066
X2404242
X2414148
X2424308
X2435230
X2445390
X2457328Y2450216
X2470536Y2450470
X2481966
X2491110Y2449962
X2490602Y2458852
Y2467488
X2491110Y2475616
X2482499Y2474999
X2491110Y2485522
Y2495174
Y2504826
Y2513208
X2482499Y2504999
X2467499
X2453772Y2511684
X2439548Y2499238
X2459999Y2489999
X2474999
Y2459999
X2429999
X2414999
X2399999
X2384999
X2392499Y2474999
X2407499
X2422499
X2416942Y2487300
X2415000Y2518000
X2415000Y2528000
Y2538000
X2415000Y2548000
X2405000Y2548000
X2395000
X2385000Y2548000
X2385000Y2538000
Y2528000
X2395000
Y2538000
X2405000
Y2528000
Y2518000
X2395000
X2385000Y2518000
X2399000Y2573000
X2407000
X2391288Y2581026
X2431928Y2586360
X2439548Y2588392
X2448438
X2457836
X2467742
X2478156
X2488000Y2589000
X2502636Y2585478
X2481966Y2544270
Y2521770
X2491466Y2530020
X2436246Y2561214
T02
X2265558Y2566548
X2278258
X2290958
Y2579248
X2278258
X2265558
T04
X2201000Y2496000
Y2542000
M30
