%FSLAX44Y44*%
%MOMM*%
G71*
G01*
G75*
G04 Layer_Color=8421504*
%ADD10C,0.3000*%
%ADD11C,0.4000*%
%ADD12R,1.0000X1.0000*%
%ADD13R,0.6000X0.6000*%
%ADD14R,0.7500X0.6500*%
%ADD15R,0.2500X0.4000*%
%ADD16O,0.7500X0.2800*%
%ADD17O,0.2800X0.7500*%
%ADD18R,4.5000X4.5000*%
%ADD19R,0.6000X0.3500*%
%ADD20R,1.0000X1.6000*%
%ADD21R,0.6000X0.6000*%
%ADD22R,0.7000X0.9000*%
%ADD23R,2.1000X1.0000*%
%ADD24R,2.2000X1.0500*%
%ADD25R,1.0500X1.0000*%
%ADD26R,3.9400X0.5000*%
%ADD27R,0.5000X2.0000*%
%ADD28R,2.6400X0.5000*%
%ADD29R,4.9000X0.5000*%
%ADD30R,0.5000X5.0000*%
%ADD31R,4.9000X0.9000*%
%ADD32R,0.5000X2.7000*%
%ADD33C,0.1500*%
%ADD34C,0.2500*%
%ADD35R,0.8000X0.3000*%
%ADD36R,0.1270X0.9398*%
%ADD37R,1.0000X0.1000*%
%ADD38R,0.1000X0.7000*%
%ADD39R,0.9000X0.3000*%
%ADD40R,0.2000X0.8000*%
%ADD41R,0.2000X0.7000*%
%ADD42R,0.2000X0.6000*%
%ADD43R,0.8000X0.2000*%
%ADD44R,1.2056X0.3999*%
%ADD45R,0.2000X1.1000*%
%ADD46R,1.0562X0.1836*%
%ADD47R,0.5334X0.2032*%
%ADD48R,0.5000X0.2259*%
%ADD49R,0.1818X0.4999*%
%ADD50R,0.4999X0.3145*%
%ADD51R,0.2939X0.5000*%
%ADD52R,0.2119X0.5000*%
%ADD53R,0.5860X0.9000*%
%ADD54R,0.4872X0.5000*%
%ADD55R,0.4658X0.5000*%
%ADD56R,0.4997X0.1609*%
%ADD57R,0.3013X0.5000*%
%ADD58C,1.0000*%
%ADD59R,1.0000X1.0000*%
%ADD60C,1.8000*%
%ADD61O,3.6000X1.5000*%
%ADD62C,0.6000*%
%ADD63R,0.5000X15.1000*%
%ADD64R,1.2000X1.2000*%
%ADD65O,0.7000X0.2300*%
%ADD66O,0.2300X0.7000*%
%ADD67R,1.0000X1.0000*%
%ADD68R,0.5000X0.2500*%
%ADD69R,0.8000X1.4000*%
D12*
X2342140Y2586360D02*
D03*
X2358140D02*
D03*
D13*
X2415000Y2588000D02*
D03*
Y2578000D02*
D03*
X2295276Y2470616D02*
D03*
Y2480616D02*
D03*
X2461900Y2474520D02*
D03*
Y2464520D02*
D03*
X2429388Y2499158D02*
D03*
Y2489158D02*
D03*
X2492126Y2565358D02*
D03*
Y2575358D02*
D03*
X2423000Y2578000D02*
D03*
Y2588000D02*
D03*
X2374524Y2576788D02*
D03*
Y2586788D02*
D03*
X2383414Y2576788D02*
D03*
Y2586788D02*
D03*
D14*
X2440264Y2464854D02*
D03*
X2453264D02*
D03*
X2440264Y2474854D02*
D03*
X2453264D02*
D03*
D15*
X2476966Y2537020D02*
D03*
Y2529020D02*
D03*
X2481966Y2537020D02*
D03*
Y2529020D02*
D03*
X2486966Y2537020D02*
D03*
Y2529020D02*
D03*
D21*
X2257256Y2541910D02*
D03*
X2267256D02*
D03*
X2267256Y2509398D02*
D03*
X2257256D02*
D03*
X2267256Y2517526D02*
D03*
X2257256D02*
D03*
X2267256Y2525654D02*
D03*
X2257256D02*
D03*
X2267256Y2533782D02*
D03*
X2257256D02*
D03*
X2322534Y2586614D02*
D03*
X2332534D02*
D03*
X2354886Y2540132D02*
D03*
X2344886D02*
D03*
X2356156Y2510668D02*
D03*
X2346156D02*
D03*
X2355902Y2498730D02*
D03*
X2345902D02*
D03*
X2445564Y2482982D02*
D03*
X2435564D02*
D03*
X2452836Y2519558D02*
D03*
X2462836D02*
D03*
X2443946Y2547498D02*
D03*
X2453946D02*
D03*
X2443946Y2555626D02*
D03*
X2453946D02*
D03*
X2440484Y2568834D02*
D03*
X2430484D02*
D03*
D22*
X2271026Y2492888D02*
D03*
X2256026D02*
D03*
D23*
X2229000Y2554000D02*
D03*
Y2529000D02*
D03*
Y2509000D02*
D03*
Y2484000D02*
D03*
D64*
X2414000Y2547000D02*
D03*
X2400000D02*
D03*
X2386000D02*
D03*
X2386000Y2533000D02*
D03*
X2414000D02*
D03*
Y2519000D02*
D03*
X2400000Y2519000D02*
D03*
X2386000Y2519000D02*
D03*
D65*
X2370250Y2555500D02*
D03*
Y2550500D02*
D03*
Y2545500D02*
D03*
Y2540500D02*
D03*
Y2535500D02*
D03*
Y2530500D02*
D03*
Y2525500D02*
D03*
Y2520500D02*
D03*
X2370250Y2515500D02*
D03*
X2370250Y2510500D02*
D03*
X2429750D02*
D03*
X2429750Y2515500D02*
D03*
X2429750Y2520500D02*
D03*
Y2525500D02*
D03*
Y2530500D02*
D03*
Y2535500D02*
D03*
Y2540500D02*
D03*
Y2545500D02*
D03*
Y2550500D02*
D03*
Y2555500D02*
D03*
D66*
X2377500Y2503250D02*
D03*
X2382500D02*
D03*
X2387500D02*
D03*
X2392500D02*
D03*
X2397500D02*
D03*
X2402500D02*
D03*
X2407500D02*
D03*
X2412500D02*
D03*
X2417500Y2503250D02*
D03*
X2422500Y2503250D02*
D03*
Y2562750D02*
D03*
X2417500Y2562750D02*
D03*
X2412500Y2562750D02*
D03*
X2407500D02*
D03*
X2402500D02*
D03*
X2397500D02*
D03*
X2392500D02*
D03*
X2387500D02*
D03*
X2382500D02*
D03*
X2377500D02*
D03*
D67*
X2400000Y2533000D02*
D03*
D68*
X2284862Y2468966D02*
D03*
X2262862D02*
D03*
X2284862Y2475466D02*
D03*
Y2481966D02*
D03*
X2262862Y2475466D02*
D03*
Y2481966D02*
D03*
D69*
X2273862Y2475466D02*
D03*
M02*
