%FSLAX44Y44*%
%MOMM*%
G71*
G01*
G75*
G04 Layer_Color=8388736*
%ADD10C,0.3000*%
%ADD11C,0.4000*%
%ADD12R,1.0000X1.0000*%
%ADD13R,0.6000X0.6000*%
%ADD14R,0.7500X0.6500*%
%ADD15R,0.2500X0.4000*%
%ADD16O,0.7500X0.2800*%
%ADD17O,0.2800X0.7500*%
%ADD18R,4.5000X4.5000*%
%ADD19R,0.6000X0.3500*%
%ADD20R,1.0000X1.6000*%
%ADD21R,0.6000X0.6000*%
%ADD22R,0.7000X0.9000*%
%ADD23R,2.1000X1.0000*%
%ADD24R,2.2000X1.0500*%
%ADD25R,1.0500X1.0000*%
%ADD26R,3.9400X0.5000*%
%ADD27R,0.5000X2.0000*%
%ADD28R,2.6400X0.5000*%
%ADD29R,4.9000X0.5000*%
%ADD30R,0.5000X5.0000*%
%ADD31R,4.9000X0.9000*%
%ADD32R,0.5000X2.7000*%
%ADD33C,0.1500*%
%ADD34C,0.2500*%
%ADD35R,0.8000X0.3000*%
%ADD36R,0.1270X0.9398*%
%ADD37R,1.0000X0.1000*%
%ADD38R,0.1000X0.7000*%
%ADD39R,0.9000X0.3000*%
%ADD40R,0.2000X0.8000*%
%ADD41R,0.2000X0.7000*%
%ADD42R,0.2000X0.6000*%
%ADD43R,0.8000X0.2000*%
%ADD44R,1.2056X0.3999*%
%ADD45R,0.2000X1.1000*%
%ADD46R,1.0562X0.1836*%
%ADD47R,0.5334X0.2032*%
%ADD48R,0.5000X0.2259*%
%ADD49R,0.1818X0.4999*%
%ADD50R,0.4999X0.3145*%
%ADD51R,0.2939X0.5000*%
%ADD52R,0.2119X0.5000*%
%ADD53R,0.5860X0.9000*%
%ADD54R,0.4872X0.5000*%
%ADD55R,0.4658X0.5000*%
%ADD56R,0.4997X0.1609*%
%ADD57R,0.3013X0.5000*%
%ADD58C,1.0000*%
%ADD59R,1.0000X1.0000*%
%ADD60C,1.8000*%
%ADD61O,3.6000X1.5000*%
%ADD62C,0.6000*%
%ADD63R,0.5000X15.1000*%
%ADD64R,1.2000X1.2000*%
%ADD65O,0.7000X0.2300*%
%ADD66O,0.2300X0.7000*%
%ADD67R,1.0000X1.0000*%
%ADD68R,0.5000X0.2500*%
%ADD69R,0.8000X1.4000*%
%ADD70R,1.1000X1.1000*%
%ADD71R,0.7000X0.7000*%
%ADD72R,0.8500X0.7500*%
%ADD73O,0.8500X0.3800*%
%ADD74O,0.3800X0.8500*%
%ADD75R,0.7400X0.4900*%
%ADD76R,1.1000X1.7000*%
%ADD77R,0.7000X0.7000*%
%ADD78R,0.8000X1.0000*%
%ADD79R,2.2000X1.1000*%
%ADD80R,2.3000X1.1500*%
%ADD81R,1.1500X1.1000*%
%ADD82C,1.1000*%
%ADD83R,1.1000X1.1000*%
%ADD84C,1.9000*%
%ADD85O,3.7000X1.6000*%
G36*
X2232216Y2452951D02*
X2232436Y2452938D01*
X2232669Y2452925D01*
X2232889Y2452899D01*
X2233083Y2452874D01*
X2233109D01*
X2233200Y2452848D01*
X2233317Y2452822D01*
X2233472Y2452783D01*
X2233641Y2452718D01*
X2233822Y2452640D01*
X2234016Y2452550D01*
X2234185Y2452446D01*
X2234211Y2452433D01*
X2234262Y2452394D01*
X2234340Y2452316D01*
X2234444Y2452226D01*
X2234560Y2452109D01*
X2234677Y2451954D01*
X2234806Y2451785D01*
X2234910Y2451591D01*
X2234923Y2451565D01*
X2234949Y2451500D01*
X2235001Y2451384D01*
X2235053Y2451228D01*
X2235091Y2451047D01*
X2235143Y2450840D01*
X2235169Y2450607D01*
X2235182Y2450360D01*
Y2450347D01*
Y2450309D01*
Y2450257D01*
X2235169Y2450166D01*
X2235156Y2450075D01*
X2235143Y2449959D01*
X2235117Y2449829D01*
X2235091Y2449687D01*
X2235001Y2449389D01*
X2234949Y2449233D01*
X2234871Y2449065D01*
X2234780Y2448897D01*
X2234690Y2448741D01*
X2234573Y2448586D01*
X2234444Y2448430D01*
X2234431Y2448417D01*
X2234405Y2448391D01*
X2234366Y2448353D01*
X2234301Y2448314D01*
X2234223Y2448249D01*
X2234120Y2448184D01*
X2233990Y2448106D01*
X2233848Y2448042D01*
X2233679Y2447964D01*
X2233485Y2447886D01*
X2233278Y2447821D01*
X2233032Y2447770D01*
X2232773Y2447718D01*
X2232488Y2447679D01*
X2232164Y2447653D01*
X2231827Y2447640D01*
X2229534D01*
Y2444000D01*
X2228342D01*
Y2452964D01*
X2232021D01*
X2232216Y2452951D01*
D02*
G37*
G36*
X2226490Y2451902D02*
X2221192D01*
Y2449169D01*
X2226153D01*
Y2448106D01*
X2221192D01*
Y2445062D01*
X2226697D01*
Y2444000D01*
X2220000D01*
Y2452964D01*
X2226490D01*
Y2451902D01*
D02*
G37*
G36*
X2294615Y2450632D02*
X2294809Y2450620D01*
X2295030Y2450594D01*
X2295250Y2450555D01*
X2295470Y2450503D01*
X2295677Y2450438D01*
X2295703Y2450425D01*
X2295768Y2450399D01*
X2295859Y2450360D01*
X2295975Y2450309D01*
X2296105Y2450231D01*
X2296234Y2450153D01*
X2296351Y2450049D01*
X2296454Y2449946D01*
X2296467Y2449933D01*
X2296493Y2449894D01*
X2296532Y2449829D01*
X2296584Y2449752D01*
X2296649Y2449635D01*
X2296701Y2449518D01*
X2296752Y2449376D01*
X2296791Y2449207D01*
Y2449195D01*
X2296804Y2449156D01*
X2296817Y2449078D01*
X2296830Y2448974D01*
Y2448832D01*
X2296843Y2448663D01*
X2296856Y2448443D01*
Y2448197D01*
Y2446720D01*
Y2446707D01*
Y2446656D01*
Y2446578D01*
Y2446474D01*
Y2446358D01*
Y2446215D01*
X2296869Y2445904D01*
Y2445580D01*
X2296882Y2445257D01*
X2296895Y2445114D01*
Y2444984D01*
X2296908Y2444868D01*
X2296921Y2444777D01*
Y2444764D01*
X2296934Y2444713D01*
X2296947Y2444635D01*
X2296986Y2444531D01*
X2297012Y2444415D01*
X2297063Y2444285D01*
X2297128Y2444142D01*
X2297193Y2444000D01*
X2296040D01*
X2296027Y2444013D01*
X2296014Y2444065D01*
X2295988Y2444130D01*
X2295949Y2444233D01*
X2295910Y2444350D01*
X2295885Y2444492D01*
X2295859Y2444648D01*
X2295833Y2444816D01*
X2295820D01*
X2295807Y2444790D01*
X2295729Y2444725D01*
X2295612Y2444635D01*
X2295457Y2444518D01*
X2295263Y2444402D01*
X2295068Y2444272D01*
X2294861Y2444155D01*
X2294641Y2444065D01*
X2294615Y2444052D01*
X2294537Y2444039D01*
X2294421Y2444000D01*
X2294278Y2443961D01*
X2294097Y2443922D01*
X2293890Y2443896D01*
X2293656Y2443871D01*
X2293423Y2443858D01*
X2293320D01*
X2293242Y2443871D01*
X2293151D01*
X2293048Y2443883D01*
X2292814Y2443922D01*
X2292555Y2443987D01*
X2292270Y2444078D01*
X2292011Y2444207D01*
X2291778Y2444376D01*
X2291752Y2444402D01*
X2291687Y2444466D01*
X2291597Y2444583D01*
X2291493Y2444738D01*
X2291389Y2444933D01*
X2291299Y2445153D01*
X2291234Y2445425D01*
X2291221Y2445555D01*
X2291208Y2445710D01*
Y2445736D01*
Y2445788D01*
X2291221Y2445878D01*
X2291234Y2445995D01*
X2291260Y2446137D01*
X2291299Y2446280D01*
X2291351Y2446435D01*
X2291415Y2446578D01*
X2291428Y2446591D01*
X2291454Y2446643D01*
X2291506Y2446720D01*
X2291571Y2446811D01*
X2291649Y2446915D01*
X2291752Y2447018D01*
X2291856Y2447122D01*
X2291985Y2447213D01*
X2291998Y2447226D01*
X2292050Y2447251D01*
X2292115Y2447303D01*
X2292219Y2447355D01*
X2292335Y2447407D01*
X2292478Y2447472D01*
X2292620Y2447523D01*
X2292789Y2447575D01*
X2292802D01*
X2292853Y2447588D01*
X2292931Y2447614D01*
X2293035Y2447627D01*
X2293164Y2447653D01*
X2293333Y2447679D01*
X2293527Y2447718D01*
X2293760Y2447744D01*
X2293773D01*
X2293825Y2447757D01*
X2293890D01*
X2293980Y2447770D01*
X2294084Y2447783D01*
X2294214Y2447809D01*
X2294356Y2447821D01*
X2294511Y2447847D01*
X2294822Y2447912D01*
X2295159Y2447977D01*
X2295457Y2448055D01*
X2295600Y2448094D01*
X2295729Y2448132D01*
Y2448145D01*
Y2448171D01*
X2295742Y2448249D01*
Y2448340D01*
Y2448391D01*
Y2448417D01*
Y2448430D01*
Y2448443D01*
Y2448521D01*
X2295729Y2448651D01*
X2295703Y2448793D01*
X2295664Y2448948D01*
X2295600Y2449104D01*
X2295522Y2449246D01*
X2295418Y2449363D01*
X2295405Y2449376D01*
X2295341Y2449428D01*
X2295237Y2449480D01*
X2295107Y2449557D01*
X2294926Y2449622D01*
X2294719Y2449687D01*
X2294460Y2449726D01*
X2294162Y2449739D01*
X2294032D01*
X2293903Y2449726D01*
X2293721Y2449700D01*
X2293540Y2449674D01*
X2293346Y2449622D01*
X2293164Y2449557D01*
X2293009Y2449467D01*
X2292996Y2449454D01*
X2292944Y2449415D01*
X2292879Y2449350D01*
X2292802Y2449246D01*
X2292724Y2449117D01*
X2292633Y2448948D01*
X2292555Y2448741D01*
X2292478Y2448508D01*
X2291402Y2448651D01*
Y2448663D01*
X2291415Y2448676D01*
Y2448715D01*
X2291428Y2448767D01*
X2291467Y2448884D01*
X2291519Y2449052D01*
X2291584Y2449220D01*
X2291662Y2449402D01*
X2291765Y2449583D01*
X2291882Y2449752D01*
X2291895Y2449765D01*
X2291947Y2449816D01*
X2292024Y2449894D01*
X2292128Y2449998D01*
X2292270Y2450101D01*
X2292439Y2450205D01*
X2292633Y2450322D01*
X2292853Y2450412D01*
X2292866D01*
X2292879Y2450425D01*
X2292918Y2450438D01*
X2292970Y2450451D01*
X2293099Y2450490D01*
X2293281Y2450529D01*
X2293488Y2450568D01*
X2293747Y2450607D01*
X2294019Y2450632D01*
X2294330Y2450645D01*
X2294473D01*
X2294615Y2450632D01*
D02*
G37*
G36*
X2242812Y2451902D02*
X2237941D01*
Y2449130D01*
X2242151D01*
Y2448068D01*
X2237941D01*
Y2444000D01*
X2236750D01*
Y2452964D01*
X2242812D01*
Y2451902D01*
D02*
G37*
G36*
X2245493Y2445062D02*
X2249911D01*
Y2444000D01*
X2244302D01*
Y2452964D01*
X2245493D01*
Y2445062D01*
D02*
G37*
G36*
X2281441Y2450632D02*
X2281635Y2450620D01*
X2281842Y2450594D01*
X2282063Y2450542D01*
X2282296Y2450490D01*
X2282516Y2450412D01*
X2282529D01*
X2282542Y2450399D01*
X2282607Y2450373D01*
X2282710Y2450322D01*
X2282840Y2450257D01*
X2282982Y2450166D01*
X2283125Y2450063D01*
X2283254Y2449946D01*
X2283371Y2449816D01*
X2283384Y2449803D01*
X2283410Y2449752D01*
X2283462Y2449661D01*
X2283526Y2449557D01*
X2283591Y2449402D01*
X2283656Y2449233D01*
X2283708Y2449039D01*
X2283760Y2448819D01*
X2282684Y2448676D01*
Y2448702D01*
X2282672Y2448754D01*
X2282646Y2448845D01*
X2282607Y2448961D01*
X2282542Y2449078D01*
X2282464Y2449207D01*
X2282374Y2449337D01*
X2282244Y2449454D01*
X2282231Y2449467D01*
X2282179Y2449492D01*
X2282101Y2449544D01*
X2281985Y2449596D01*
X2281855Y2449648D01*
X2281687Y2449700D01*
X2281480Y2449726D01*
X2281259Y2449739D01*
X2281130D01*
X2281000Y2449726D01*
X2280832Y2449713D01*
X2280664Y2449674D01*
X2280482Y2449635D01*
X2280314Y2449570D01*
X2280171Y2449480D01*
X2280158Y2449467D01*
X2280119Y2449441D01*
X2280068Y2449389D01*
X2280016Y2449311D01*
X2279951Y2449233D01*
X2279899Y2449130D01*
X2279860Y2449013D01*
X2279848Y2448897D01*
Y2448884D01*
Y2448858D01*
X2279860Y2448819D01*
Y2448767D01*
X2279899Y2448638D01*
X2279977Y2448508D01*
X2279990Y2448495D01*
X2280003Y2448482D01*
X2280029Y2448443D01*
X2280081Y2448404D01*
X2280132Y2448365D01*
X2280210Y2448314D01*
X2280301Y2448275D01*
X2280405Y2448223D01*
X2280417D01*
X2280443Y2448210D01*
X2280495Y2448197D01*
X2280586Y2448158D01*
X2280715Y2448119D01*
X2280884Y2448080D01*
X2280987Y2448042D01*
X2281104Y2448016D01*
X2281234Y2447977D01*
X2281376Y2447938D01*
X2281389D01*
X2281428Y2447925D01*
X2281493Y2447912D01*
X2281570Y2447886D01*
X2281661Y2447860D01*
X2281778Y2447834D01*
X2282024Y2447757D01*
X2282296Y2447679D01*
X2282568Y2447588D01*
X2282814Y2447498D01*
X2282918Y2447459D01*
X2283008Y2447420D01*
X2283034Y2447407D01*
X2283086Y2447381D01*
X2283164Y2447342D01*
X2283280Y2447277D01*
X2283397Y2447200D01*
X2283513Y2447096D01*
X2283630Y2446979D01*
X2283734Y2446850D01*
X2283747Y2446837D01*
X2283772Y2446785D01*
X2283824Y2446707D01*
X2283876Y2446591D01*
X2283915Y2446448D01*
X2283967Y2446293D01*
X2283993Y2446111D01*
X2284006Y2445904D01*
Y2445878D01*
Y2445814D01*
X2283993Y2445710D01*
X2283967Y2445567D01*
X2283928Y2445412D01*
X2283863Y2445244D01*
X2283786Y2445049D01*
X2283682Y2444868D01*
X2283669Y2444842D01*
X2283617Y2444790D01*
X2283552Y2444700D01*
X2283449Y2444596D01*
X2283306Y2444479D01*
X2283151Y2444350D01*
X2282969Y2444233D01*
X2282749Y2444117D01*
X2282736D01*
X2282723Y2444104D01*
X2282646Y2444078D01*
X2282516Y2444039D01*
X2282348Y2443987D01*
X2282140Y2443935D01*
X2281907Y2443896D01*
X2281661Y2443871D01*
X2281376Y2443858D01*
X2281259D01*
X2281169Y2443871D01*
X2281065D01*
X2280936Y2443883D01*
X2280806Y2443896D01*
X2280664Y2443922D01*
X2280353Y2443987D01*
X2280029Y2444078D01*
X2279718Y2444207D01*
X2279576Y2444285D01*
X2279446Y2444376D01*
X2279433Y2444389D01*
X2279420Y2444402D01*
X2279342Y2444479D01*
X2279226Y2444596D01*
X2279096Y2444777D01*
X2278954Y2444998D01*
X2278811Y2445257D01*
X2278695Y2445580D01*
X2278604Y2445943D01*
X2279692Y2446111D01*
Y2446099D01*
Y2446086D01*
X2279718Y2446008D01*
X2279744Y2445878D01*
X2279796Y2445736D01*
X2279860Y2445580D01*
X2279938Y2445412D01*
X2280055Y2445244D01*
X2280197Y2445101D01*
X2280223Y2445088D01*
X2280275Y2445049D01*
X2280379Y2444998D01*
X2280508Y2444933D01*
X2280677Y2444868D01*
X2280871Y2444816D01*
X2281104Y2444777D01*
X2281376Y2444764D01*
X2281506D01*
X2281635Y2444777D01*
X2281803Y2444803D01*
X2281985Y2444842D01*
X2282179Y2444894D01*
X2282348Y2444959D01*
X2282503Y2445062D01*
X2282516Y2445075D01*
X2282568Y2445114D01*
X2282620Y2445179D01*
X2282697Y2445269D01*
X2282762Y2445373D01*
X2282827Y2445503D01*
X2282866Y2445632D01*
X2282879Y2445788D01*
Y2445801D01*
Y2445852D01*
X2282866Y2445917D01*
X2282840Y2446008D01*
X2282801Y2446099D01*
X2282736Y2446189D01*
X2282659Y2446293D01*
X2282542Y2446371D01*
X2282529Y2446384D01*
X2282490Y2446396D01*
X2282425Y2446435D01*
X2282322Y2446474D01*
X2282166Y2446526D01*
X2282076Y2446565D01*
X2281972Y2446591D01*
X2281855Y2446630D01*
X2281726Y2446669D01*
X2281583Y2446707D01*
X2281415Y2446746D01*
X2281402D01*
X2281363Y2446759D01*
X2281298Y2446772D01*
X2281221Y2446798D01*
X2281117Y2446824D01*
X2281000Y2446863D01*
X2280754Y2446928D01*
X2280469Y2447018D01*
X2280197Y2447096D01*
X2279938Y2447187D01*
X2279822Y2447238D01*
X2279731Y2447277D01*
X2279705Y2447290D01*
X2279653Y2447316D01*
X2279576Y2447368D01*
X2279472Y2447433D01*
X2279355Y2447523D01*
X2279239Y2447627D01*
X2279122Y2447744D01*
X2279018Y2447886D01*
X2279005Y2447899D01*
X2278980Y2447951D01*
X2278941Y2448042D01*
X2278902Y2448145D01*
X2278863Y2448275D01*
X2278824Y2448430D01*
X2278798Y2448586D01*
X2278785Y2448767D01*
Y2448793D01*
Y2448845D01*
X2278798Y2448922D01*
X2278811Y2449039D01*
X2278837Y2449156D01*
X2278863Y2449298D01*
X2278915Y2449428D01*
X2278980Y2449570D01*
X2278992Y2449583D01*
X2279018Y2449635D01*
X2279057Y2449700D01*
X2279122Y2449790D01*
X2279200Y2449881D01*
X2279290Y2449998D01*
X2279394Y2450101D01*
X2279524Y2450192D01*
X2279537Y2450205D01*
X2279576Y2450218D01*
X2279627Y2450257D01*
X2279705Y2450296D01*
X2279809Y2450347D01*
X2279925Y2450399D01*
X2280068Y2450451D01*
X2280223Y2450503D01*
X2280249Y2450516D01*
X2280301Y2450529D01*
X2280392Y2450555D01*
X2280508Y2450581D01*
X2280651Y2450607D01*
X2280806Y2450620D01*
X2280987Y2450645D01*
X2281298D01*
X2281441Y2450632D01*
D02*
G37*
G36*
X2267956D02*
X2268072Y2450620D01*
X2268202Y2450594D01*
X2268344Y2450568D01*
X2268513Y2450542D01*
X2268862Y2450425D01*
X2269044Y2450360D01*
X2269225Y2450270D01*
X2269407Y2450179D01*
X2269588Y2450049D01*
X2269756Y2449920D01*
X2269925Y2449765D01*
X2269938Y2449752D01*
X2269964Y2449726D01*
X2270002Y2449674D01*
X2270054Y2449609D01*
X2270119Y2449518D01*
X2270197Y2449402D01*
X2270275Y2449272D01*
X2270352Y2449130D01*
X2270430Y2448974D01*
X2270508Y2448780D01*
X2270585Y2448586D01*
X2270650Y2448365D01*
X2270702Y2448132D01*
X2270741Y2447886D01*
X2270767Y2447627D01*
X2270780Y2447342D01*
Y2447329D01*
Y2447290D01*
Y2447226D01*
Y2447135D01*
X2270767Y2447031D01*
X2270754Y2446902D01*
Y2446772D01*
X2270728Y2446630D01*
X2270689Y2446306D01*
X2270611Y2445982D01*
X2270521Y2445658D01*
X2270391Y2445360D01*
Y2445347D01*
X2270378Y2445334D01*
X2270352Y2445295D01*
X2270326Y2445244D01*
X2270236Y2445114D01*
X2270119Y2444959D01*
X2269964Y2444777D01*
X2269769Y2444596D01*
X2269549Y2444415D01*
X2269290Y2444246D01*
X2269277D01*
X2269264Y2444233D01*
X2269225Y2444207D01*
X2269160Y2444181D01*
X2269096Y2444155D01*
X2269018Y2444130D01*
X2268824Y2444052D01*
X2268603Y2443987D01*
X2268331Y2443922D01*
X2268046Y2443871D01*
X2267735Y2443858D01*
X2267606D01*
X2267502Y2443871D01*
X2267386Y2443883D01*
X2267256Y2443909D01*
X2267101Y2443935D01*
X2266945Y2443961D01*
X2266595Y2444065D01*
X2266401Y2444142D01*
X2266220Y2444220D01*
X2266039Y2444324D01*
X2265857Y2444440D01*
X2265689Y2444570D01*
X2265520Y2444725D01*
X2265507Y2444738D01*
X2265482Y2444764D01*
X2265443Y2444816D01*
X2265391Y2444894D01*
X2265326Y2444984D01*
X2265261Y2445088D01*
X2265184Y2445218D01*
X2265106Y2445373D01*
X2265028Y2445542D01*
X2264950Y2445736D01*
X2264886Y2445943D01*
X2264821Y2446163D01*
X2264769Y2446409D01*
X2264730Y2446669D01*
X2264704Y2446953D01*
X2264691Y2447251D01*
Y2447277D01*
Y2447329D01*
X2264704Y2447420D01*
Y2447549D01*
X2264717Y2447692D01*
X2264743Y2447873D01*
X2264769Y2448055D01*
X2264821Y2448262D01*
X2264873Y2448469D01*
X2264937Y2448689D01*
X2265015Y2448922D01*
X2265119Y2449143D01*
X2265222Y2449350D01*
X2265365Y2449557D01*
X2265507Y2449752D01*
X2265689Y2449920D01*
X2265702Y2449933D01*
X2265728Y2449946D01*
X2265779Y2449985D01*
X2265844Y2450037D01*
X2265922Y2450088D01*
X2266026Y2450153D01*
X2266129Y2450218D01*
X2266259Y2450283D01*
X2266401Y2450347D01*
X2266557Y2450412D01*
X2266906Y2450529D01*
X2267308Y2450620D01*
X2267515Y2450632D01*
X2267735Y2450645D01*
X2267865D01*
X2267956Y2450632D01*
D02*
G37*
G36*
X2263318Y2444000D02*
X2262178D01*
Y2451500D01*
X2259561Y2444000D01*
X2258499D01*
X2255909Y2451630D01*
Y2444000D01*
X2254769D01*
Y2452964D01*
X2256543D01*
X2258668Y2446604D01*
Y2446591D01*
X2258681Y2446565D01*
X2258694Y2446526D01*
X2258719Y2446461D01*
X2258771Y2446306D01*
X2258836Y2446111D01*
X2258901Y2445891D01*
X2258979Y2445671D01*
X2259043Y2445464D01*
X2259095Y2445282D01*
X2259108Y2445308D01*
X2259121Y2445373D01*
X2259160Y2445490D01*
X2259212Y2445645D01*
X2259276Y2445852D01*
X2259367Y2446099D01*
X2259458Y2446384D01*
X2259574Y2446720D01*
X2261725Y2452964D01*
X2263318D01*
Y2444000D01*
D02*
G37*
G36*
X2273150Y2449765D02*
X2273163Y2449778D01*
X2273176Y2449803D01*
X2273215Y2449842D01*
X2273280Y2449907D01*
X2273345Y2449972D01*
X2273422Y2450049D01*
X2273526Y2450127D01*
X2273630Y2450205D01*
X2273889Y2450373D01*
X2274187Y2450503D01*
X2274355Y2450568D01*
X2274536Y2450607D01*
X2274731Y2450632D01*
X2274925Y2450645D01*
X2275029D01*
X2275145Y2450632D01*
X2275288Y2450620D01*
X2275456Y2450581D01*
X2275650Y2450542D01*
X2275858Y2450477D01*
X2276052Y2450399D01*
X2276078Y2450386D01*
X2276143Y2450360D01*
X2276246Y2450296D01*
X2276363Y2450218D01*
X2276505Y2450127D01*
X2276648Y2450011D01*
X2276803Y2449868D01*
X2276933Y2449713D01*
X2276946Y2449700D01*
X2276985Y2449635D01*
X2277049Y2449544D01*
X2277127Y2449428D01*
X2277218Y2449272D01*
X2277309Y2449091D01*
X2277399Y2448884D01*
X2277477Y2448663D01*
Y2448651D01*
X2277490Y2448638D01*
X2277503Y2448599D01*
X2277516Y2448560D01*
X2277542Y2448430D01*
X2277581Y2448262D01*
X2277619Y2448068D01*
X2277658Y2447847D01*
X2277671Y2447601D01*
X2277684Y2447342D01*
Y2447329D01*
Y2447264D01*
Y2447187D01*
X2277671Y2447070D01*
X2277658Y2446928D01*
X2277645Y2446772D01*
X2277619Y2446591D01*
X2277581Y2446396D01*
X2277477Y2445982D01*
X2277412Y2445762D01*
X2277334Y2445555D01*
X2277244Y2445334D01*
X2277127Y2445140D01*
X2276998Y2444946D01*
X2276855Y2444764D01*
X2276842Y2444751D01*
X2276816Y2444725D01*
X2276777Y2444687D01*
X2276713Y2444622D01*
X2276622Y2444557D01*
X2276531Y2444479D01*
X2276428Y2444402D01*
X2276298Y2444311D01*
X2276156Y2444233D01*
X2276013Y2444142D01*
X2275663Y2444000D01*
X2275482Y2443935D01*
X2275288Y2443896D01*
X2275080Y2443871D01*
X2274873Y2443858D01*
X2274821D01*
X2274757Y2443871D01*
X2274679D01*
X2274588Y2443883D01*
X2274472Y2443909D01*
X2274212Y2443974D01*
X2274070Y2444026D01*
X2273927Y2444091D01*
X2273772Y2444168D01*
X2273630Y2444259D01*
X2273474Y2444376D01*
X2273332Y2444505D01*
X2273202Y2444648D01*
X2273073Y2444816D01*
Y2444000D01*
X2272049D01*
Y2452964D01*
X2273150D01*
Y2449765D01*
D02*
G37*
G36*
X2288164Y2443896D02*
Y2443883D01*
X2288151Y2443845D01*
X2288125Y2443793D01*
X2288099Y2443728D01*
X2288060Y2443637D01*
X2288022Y2443534D01*
X2287931Y2443313D01*
X2287840Y2443067D01*
X2287737Y2442821D01*
X2287633Y2442601D01*
X2287581Y2442510D01*
X2287542Y2442420D01*
X2287529Y2442394D01*
X2287490Y2442329D01*
X2287426Y2442238D01*
X2287348Y2442122D01*
X2287244Y2441992D01*
X2287128Y2441863D01*
X2287011Y2441733D01*
X2286869Y2441629D01*
X2286856Y2441617D01*
X2286804Y2441591D01*
X2286726Y2441552D01*
X2286609Y2441500D01*
X2286480Y2441448D01*
X2286324Y2441409D01*
X2286156Y2441383D01*
X2285962Y2441370D01*
X2285910D01*
X2285845Y2441383D01*
X2285755D01*
X2285651Y2441409D01*
X2285534Y2441435D01*
X2285405Y2441461D01*
X2285262Y2441513D01*
X2285146Y2442536D01*
X2285159D01*
X2285210Y2442523D01*
X2285275Y2442510D01*
X2285353Y2442484D01*
X2285560Y2442446D01*
X2285768Y2442433D01*
X2285832D01*
X2285897Y2442446D01*
X2285975D01*
X2286169Y2442484D01*
X2286260Y2442523D01*
X2286350Y2442562D01*
X2286363D01*
X2286389Y2442588D01*
X2286428Y2442614D01*
X2286480Y2442653D01*
X2286597Y2442756D01*
X2286700Y2442899D01*
Y2442912D01*
X2286726Y2442938D01*
X2286752Y2442990D01*
X2286778Y2443067D01*
X2286830Y2443171D01*
X2286882Y2443326D01*
X2286959Y2443508D01*
X2287037Y2443728D01*
Y2443741D01*
X2287063Y2443793D01*
X2287089Y2443883D01*
X2287141Y2444000D01*
X2284679Y2450503D01*
X2285845D01*
X2287205Y2446733D01*
Y2446720D01*
X2287218Y2446707D01*
X2287231Y2446669D01*
X2287244Y2446604D01*
X2287270Y2446539D01*
X2287296Y2446461D01*
X2287361Y2446280D01*
X2287439Y2446060D01*
X2287516Y2445801D01*
X2287594Y2445529D01*
X2287672Y2445231D01*
Y2445244D01*
X2287685Y2445269D01*
X2287698Y2445308D01*
X2287711Y2445360D01*
X2287724Y2445425D01*
X2287749Y2445503D01*
X2287801Y2445697D01*
X2287866Y2445917D01*
X2287957Y2446176D01*
X2288034Y2446435D01*
X2288138Y2446707D01*
X2289537Y2450503D01*
X2290638D01*
X2288164Y2443896D01*
D02*
G37*
%LPC*%
G36*
X2274951Y2449739D02*
X2274757D01*
X2274705Y2449726D01*
X2274562Y2449700D01*
X2274394Y2449661D01*
X2274200Y2449583D01*
X2273992Y2449467D01*
X2273889Y2449402D01*
X2273785Y2449311D01*
X2273681Y2449220D01*
X2273578Y2449104D01*
Y2449091D01*
X2273552Y2449078D01*
X2273526Y2449039D01*
X2273500Y2448987D01*
X2273461Y2448922D01*
X2273409Y2448845D01*
X2273371Y2448754D01*
X2273319Y2448651D01*
X2273267Y2448521D01*
X2273228Y2448391D01*
X2273176Y2448236D01*
X2273137Y2448080D01*
X2273111Y2447899D01*
X2273085Y2447705D01*
X2273060Y2447511D01*
Y2447290D01*
Y2447277D01*
Y2447238D01*
Y2447174D01*
Y2447096D01*
X2273073Y2447005D01*
Y2446889D01*
X2273098Y2446643D01*
X2273137Y2446371D01*
X2273189Y2446086D01*
X2273267Y2445827D01*
X2273319Y2445710D01*
X2273371Y2445606D01*
Y2445593D01*
X2273396Y2445567D01*
X2273422Y2445529D01*
X2273461Y2445477D01*
X2273578Y2445334D01*
X2273746Y2445192D01*
X2273940Y2445036D01*
X2274187Y2444894D01*
X2274316Y2444842D01*
X2274472Y2444803D01*
X2274614Y2444777D01*
X2274783Y2444764D01*
X2274847D01*
X2274899Y2444777D01*
X2275042Y2444803D01*
X2275210Y2444842D01*
X2275404Y2444920D01*
X2275612Y2445023D01*
X2275819Y2445179D01*
X2275922Y2445282D01*
X2276026Y2445386D01*
Y2445399D01*
X2276052Y2445412D01*
X2276078Y2445451D01*
X2276104Y2445503D01*
X2276156Y2445567D01*
X2276194Y2445645D01*
X2276246Y2445749D01*
X2276298Y2445852D01*
X2276337Y2445982D01*
X2276389Y2446111D01*
X2276441Y2446267D01*
X2276479Y2446435D01*
X2276505Y2446617D01*
X2276531Y2446811D01*
X2276557Y2447031D01*
Y2447251D01*
Y2447264D01*
Y2447303D01*
Y2447368D01*
X2276544Y2447459D01*
Y2447562D01*
X2276531Y2447692D01*
X2276492Y2447964D01*
X2276441Y2448262D01*
X2276350Y2448586D01*
X2276220Y2448871D01*
X2276143Y2449013D01*
X2276052Y2449130D01*
Y2449143D01*
X2276026Y2449156D01*
X2275961Y2449220D01*
X2275858Y2449324D01*
X2275715Y2449441D01*
X2275534Y2449544D01*
X2275327Y2449648D01*
X2275080Y2449713D01*
X2274951Y2449739D01*
D02*
G37*
G36*
X2232099Y2451902D02*
X2229534D01*
Y2448702D01*
X2231944D01*
X2232034Y2448715D01*
X2232125D01*
X2232229Y2448728D01*
X2232475Y2448754D01*
X2232747Y2448806D01*
X2233019Y2448884D01*
X2233265Y2448987D01*
X2233382Y2449052D01*
X2233472Y2449130D01*
X2233498Y2449156D01*
X2233550Y2449207D01*
X2233628Y2449311D01*
X2233718Y2449441D01*
X2233809Y2449609D01*
X2233887Y2449816D01*
X2233938Y2450049D01*
X2233964Y2450322D01*
Y2450334D01*
Y2450347D01*
Y2450412D01*
X2233952Y2450529D01*
X2233926Y2450658D01*
X2233900Y2450801D01*
X2233848Y2450969D01*
X2233770Y2451125D01*
X2233679Y2451280D01*
X2233667Y2451293D01*
X2233628Y2451345D01*
X2233563Y2451410D01*
X2233485Y2451500D01*
X2233369Y2451591D01*
X2233239Y2451669D01*
X2233096Y2451747D01*
X2232928Y2451811D01*
X2232915D01*
X2232863Y2451824D01*
X2232786Y2451837D01*
X2232682Y2451863D01*
X2232527Y2451876D01*
X2232332Y2451889D01*
X2232099Y2451902D01*
D02*
G37*
G36*
X2295742Y2447264D02*
X2295729D01*
X2295716Y2447251D01*
X2295677Y2447238D01*
X2295625Y2447226D01*
X2295561Y2447200D01*
X2295483Y2447174D01*
X2295392Y2447148D01*
X2295289Y2447122D01*
X2295172Y2447083D01*
X2295030Y2447057D01*
X2294887Y2447018D01*
X2294719Y2446979D01*
X2294537Y2446941D01*
X2294356Y2446902D01*
X2294149Y2446876D01*
X2293929Y2446837D01*
X2293903D01*
X2293825Y2446824D01*
X2293695Y2446798D01*
X2293553Y2446772D01*
X2293397Y2446746D01*
X2293242Y2446707D01*
X2293099Y2446669D01*
X2292970Y2446617D01*
X2292957D01*
X2292918Y2446591D01*
X2292866Y2446565D01*
X2292814Y2446526D01*
X2292659Y2446422D01*
X2292529Y2446267D01*
Y2446254D01*
X2292504Y2446228D01*
X2292491Y2446176D01*
X2292465Y2446111D01*
X2292439Y2446034D01*
X2292413Y2445956D01*
X2292400Y2445852D01*
X2292387Y2445749D01*
Y2445736D01*
Y2445671D01*
X2292400Y2445593D01*
X2292426Y2445490D01*
X2292465Y2445373D01*
X2292529Y2445257D01*
X2292607Y2445127D01*
X2292711Y2445010D01*
X2292724Y2444998D01*
X2292776Y2444972D01*
X2292853Y2444920D01*
X2292957Y2444868D01*
X2293099Y2444816D01*
X2293268Y2444764D01*
X2293462Y2444738D01*
X2293695Y2444725D01*
X2293799D01*
X2293929Y2444738D01*
X2294071Y2444764D01*
X2294252Y2444790D01*
X2294434Y2444842D01*
X2294628Y2444907D01*
X2294822Y2444998D01*
X2294848Y2445010D01*
X2294900Y2445049D01*
X2294991Y2445114D01*
X2295094Y2445205D01*
X2295211Y2445308D01*
X2295341Y2445438D01*
X2295444Y2445593D01*
X2295548Y2445762D01*
X2295561Y2445775D01*
X2295574Y2445827D01*
X2295600Y2445917D01*
X2295638Y2446034D01*
X2295677Y2446189D01*
X2295703Y2446371D01*
X2295716Y2446591D01*
X2295729Y2446850D01*
X2295742Y2447264D01*
D02*
G37*
G36*
X2267735Y2449739D02*
X2267658D01*
X2267593Y2449726D01*
X2267451Y2449713D01*
X2267256Y2449661D01*
X2267036Y2449583D01*
X2266803Y2449480D01*
X2266583Y2449324D01*
X2266466Y2449220D01*
X2266362Y2449117D01*
Y2449104D01*
X2266337Y2449091D01*
X2266311Y2449052D01*
X2266272Y2449000D01*
X2266233Y2448936D01*
X2266194Y2448858D01*
X2266142Y2448754D01*
X2266090Y2448651D01*
X2266039Y2448521D01*
X2265987Y2448391D01*
X2265948Y2448236D01*
X2265909Y2448068D01*
X2265870Y2447886D01*
X2265844Y2447692D01*
X2265831Y2447472D01*
X2265818Y2447251D01*
Y2447238D01*
Y2447200D01*
Y2447135D01*
X2265831Y2447044D01*
Y2446941D01*
X2265844Y2446824D01*
X2265883Y2446552D01*
X2265948Y2446241D01*
X2266051Y2445930D01*
X2266181Y2445632D01*
X2266272Y2445503D01*
X2266362Y2445373D01*
X2266375D01*
X2266388Y2445347D01*
X2266466Y2445282D01*
X2266583Y2445179D01*
X2266738Y2445075D01*
X2266932Y2444959D01*
X2267166Y2444855D01*
X2267438Y2444790D01*
X2267580Y2444777D01*
X2267735Y2444764D01*
X2267813D01*
X2267878Y2444777D01*
X2268020Y2444803D01*
X2268215Y2444842D01*
X2268422Y2444920D01*
X2268655Y2445023D01*
X2268875Y2445179D01*
X2268992Y2445282D01*
X2269096Y2445386D01*
X2269109Y2445399D01*
X2269122Y2445412D01*
X2269147Y2445451D01*
X2269186Y2445503D01*
X2269225Y2445567D01*
X2269277Y2445645D01*
X2269329Y2445749D01*
X2269381Y2445852D01*
X2269433Y2445982D01*
X2269471Y2446125D01*
X2269523Y2446280D01*
X2269562Y2446448D01*
X2269601Y2446643D01*
X2269627Y2446837D01*
X2269653Y2447057D01*
Y2447290D01*
Y2447303D01*
Y2447342D01*
Y2447407D01*
X2269640Y2447485D01*
Y2447588D01*
X2269627Y2447705D01*
X2269588Y2447977D01*
X2269523Y2448262D01*
X2269420Y2448573D01*
X2269277Y2448858D01*
X2269199Y2449000D01*
X2269096Y2449117D01*
Y2449130D01*
X2269070Y2449143D01*
X2268992Y2449220D01*
X2268875Y2449311D01*
X2268720Y2449428D01*
X2268526Y2449544D01*
X2268293Y2449648D01*
X2268033Y2449713D01*
X2267891Y2449726D01*
X2267735Y2449739D01*
D02*
G37*
%LPD*%
D15*
X2476966Y2537020D02*
D03*
Y2529020D02*
D03*
X2481966Y2537020D02*
D03*
Y2529020D02*
D03*
X2486966Y2537020D02*
D03*
Y2529020D02*
D03*
D18*
X2400000Y2533000D02*
D03*
D70*
X2342140Y2586360D02*
D03*
X2358140D02*
D03*
D71*
X2415000Y2588000D02*
D03*
Y2578000D02*
D03*
X2295276Y2470616D02*
D03*
Y2480616D02*
D03*
X2461900Y2474520D02*
D03*
Y2464520D02*
D03*
X2429388Y2499158D02*
D03*
Y2489158D02*
D03*
X2492126Y2565358D02*
D03*
Y2575358D02*
D03*
X2423000Y2578000D02*
D03*
Y2588000D02*
D03*
X2374524Y2576788D02*
D03*
Y2586788D02*
D03*
X2383414Y2576788D02*
D03*
Y2586788D02*
D03*
D72*
X2440264Y2464854D02*
D03*
X2453264D02*
D03*
X2440264Y2474854D02*
D03*
X2453264D02*
D03*
D73*
X2370250Y2555500D02*
D03*
Y2550500D02*
D03*
Y2545500D02*
D03*
Y2540500D02*
D03*
Y2535500D02*
D03*
Y2530500D02*
D03*
Y2525500D02*
D03*
Y2520500D02*
D03*
X2370250Y2515500D02*
D03*
X2370250Y2510500D02*
D03*
X2429750D02*
D03*
X2429750Y2515500D02*
D03*
X2429750Y2520500D02*
D03*
Y2525500D02*
D03*
Y2530500D02*
D03*
Y2535500D02*
D03*
Y2540500D02*
D03*
Y2545500D02*
D03*
Y2550500D02*
D03*
Y2555500D02*
D03*
D74*
X2377500Y2503250D02*
D03*
X2382500D02*
D03*
X2387500D02*
D03*
X2392500D02*
D03*
X2397500D02*
D03*
X2402500D02*
D03*
X2407500D02*
D03*
X2412500D02*
D03*
X2417500Y2503250D02*
D03*
X2422500Y2503250D02*
D03*
Y2562750D02*
D03*
X2417500Y2562750D02*
D03*
X2412500Y2562750D02*
D03*
X2407500D02*
D03*
X2402500D02*
D03*
X2397500D02*
D03*
X2392500D02*
D03*
X2387500D02*
D03*
X2382500D02*
D03*
X2377500D02*
D03*
D75*
X2284862Y2468966D02*
D03*
X2262862D02*
D03*
X2284862Y2475466D02*
D03*
Y2481966D02*
D03*
X2262862Y2475466D02*
D03*
Y2481966D02*
D03*
D76*
X2273862Y2475466D02*
D03*
D77*
X2257256Y2541910D02*
D03*
X2267256D02*
D03*
X2267256Y2509398D02*
D03*
X2257256D02*
D03*
X2267256Y2517526D02*
D03*
X2257256D02*
D03*
X2267256Y2525654D02*
D03*
X2257256D02*
D03*
X2267256Y2533782D02*
D03*
X2257256D02*
D03*
X2322534Y2586614D02*
D03*
X2332534D02*
D03*
X2354886Y2540132D02*
D03*
X2344886D02*
D03*
X2356156Y2510668D02*
D03*
X2346156D02*
D03*
X2355902Y2498730D02*
D03*
X2345902D02*
D03*
X2445564Y2482982D02*
D03*
X2435564D02*
D03*
X2452836Y2519558D02*
D03*
X2462836D02*
D03*
X2443946Y2547498D02*
D03*
X2453946D02*
D03*
X2443946Y2555626D02*
D03*
X2453946D02*
D03*
X2440484Y2568834D02*
D03*
X2430484D02*
D03*
D78*
X2271026Y2492888D02*
D03*
X2256026D02*
D03*
D79*
X2229000Y2554000D02*
D03*
Y2529000D02*
D03*
Y2509000D02*
D03*
Y2484000D02*
D03*
D80*
X2472060Y2547734D02*
D03*
Y2577234D02*
D03*
D81*
X2487310Y2562484D02*
D03*
D82*
X2290958Y2579248D02*
D03*
Y2566548D02*
D03*
X2278258Y2579248D02*
D03*
Y2566548D02*
D03*
X2265558Y2579248D02*
D03*
D83*
Y2566548D02*
D03*
D84*
X2201000Y2496000D02*
D03*
Y2542000D02*
D03*
D85*
Y2459000D02*
D03*
Y2579000D02*
D03*
M02*
