%FSLAX44Y44*%
%MOMM*%
G71*
G01*
G75*
G04 Layer_Color=16711935*
%ADD10C,0.3000*%
%ADD11C,0.4000*%
%ADD12R,1.0000X1.0000*%
%ADD13R,0.6000X0.6000*%
%ADD14R,0.7500X0.6500*%
%ADD15R,0.2500X0.4000*%
%ADD16O,0.7500X0.2800*%
%ADD17O,0.2800X0.7500*%
%ADD18R,4.5000X4.5000*%
%ADD19R,0.6000X0.3500*%
%ADD20R,1.0000X1.6000*%
%ADD21R,0.6000X0.6000*%
%ADD22R,0.7000X0.9000*%
%ADD23R,2.1000X1.0000*%
%ADD24R,2.2000X1.0500*%
%ADD25R,1.0500X1.0000*%
%ADD26R,3.9400X0.5000*%
%ADD27R,0.5000X2.0000*%
%ADD28R,2.6400X0.5000*%
%ADD29R,4.9000X0.5000*%
%ADD30R,0.5000X5.0000*%
%ADD31R,4.9000X0.9000*%
%ADD32R,0.5000X2.7000*%
%ADD33C,0.1500*%
%ADD34C,0.2500*%
%ADD35R,0.8000X0.3000*%
%ADD36R,0.1270X0.9398*%
%ADD37R,1.0000X0.1000*%
%ADD38R,0.1000X0.7000*%
%ADD39R,0.9000X0.3000*%
%ADD40R,0.2000X0.8000*%
%ADD41R,0.2000X0.7000*%
%ADD42R,0.2000X0.6000*%
%ADD43R,0.8000X0.2000*%
%ADD44R,1.2056X0.3999*%
%ADD45R,0.2000X1.1000*%
%ADD46R,1.0562X0.1836*%
%ADD47R,0.5334X0.2032*%
%ADD48R,0.5000X0.2259*%
%ADD49R,0.1818X0.4999*%
%ADD50R,0.4999X0.3145*%
%ADD51R,0.2939X0.5000*%
%ADD52R,0.2119X0.5000*%
%ADD53R,0.5860X0.9000*%
%ADD54R,0.4872X0.5000*%
%ADD55R,0.4658X0.5000*%
%ADD56R,0.4997X0.1609*%
%ADD57R,0.3013X0.5000*%
%ADD58C,1.0000*%
%ADD59R,1.0000X1.0000*%
%ADD60C,1.8000*%
%ADD61O,3.6000X1.5000*%
%ADD62C,0.6000*%
%ADD63R,0.5000X15.1000*%
%ADD64R,1.2000X1.2000*%
%ADD65O,0.7000X0.2300*%
%ADD66O,0.2300X0.7000*%
%ADD67R,1.0000X1.0000*%
%ADD68R,0.5000X0.2500*%
%ADD69R,0.8000X1.4000*%
%ADD70R,1.1000X1.1000*%
%ADD71R,0.7000X0.7000*%
%ADD72R,0.8500X0.7500*%
%ADD73O,0.8500X0.3800*%
%ADD74O,0.3800X0.8500*%
%ADD75R,0.7400X0.4900*%
%ADD76R,1.1000X1.7000*%
%ADD77R,0.7000X0.7000*%
%ADD78R,0.8000X1.0000*%
%ADD79R,2.2000X1.1000*%
%ADD80R,2.3000X1.1500*%
%ADD81R,1.1500X1.1000*%
%ADD82C,1.1000*%
%ADD83R,1.1000X1.1000*%
%ADD84C,1.9000*%
%ADD85O,3.7000X1.6000*%
G36*
X2380848Y2443000D02*
X2379592D01*
Y2444257D01*
X2380848D01*
Y2443000D01*
D02*
G37*
G36*
X2357453Y2446161D02*
Y2445150D01*
X2353554D01*
Y2443000D01*
X2352453D01*
Y2445150D01*
X2351235D01*
Y2446161D01*
X2352453D01*
Y2451964D01*
X2353347D01*
X2357453Y2446161D01*
D02*
G37*
G36*
X2345471Y2443000D02*
X2344279D01*
Y2446977D01*
X2342751D01*
X2342608Y2446964D01*
X2342504D01*
X2342414Y2446951D01*
X2342349Y2446938D01*
X2342297D01*
X2342271Y2446925D01*
X2342258D01*
X2342051Y2446860D01*
X2341960Y2446821D01*
X2341882Y2446783D01*
X2341805Y2446744D01*
X2341753Y2446718D01*
X2341727Y2446705D01*
X2341714Y2446692D01*
X2341611Y2446614D01*
X2341507Y2446523D01*
X2341313Y2446329D01*
X2341222Y2446239D01*
X2341157Y2446161D01*
X2341118Y2446109D01*
X2341105Y2446096D01*
X2340976Y2445915D01*
X2340833Y2445720D01*
X2340691Y2445513D01*
X2340548Y2445319D01*
X2340432Y2445137D01*
X2340341Y2444995D01*
X2340302Y2444943D01*
X2340276Y2444904D01*
X2340250Y2444878D01*
Y2444865D01*
X2339072Y2443000D01*
X2337595D01*
X2339136Y2445435D01*
X2339318Y2445694D01*
X2339486Y2445928D01*
X2339655Y2446122D01*
X2339797Y2446303D01*
X2339926Y2446433D01*
X2340030Y2446537D01*
X2340095Y2446601D01*
X2340121Y2446627D01*
X2340224Y2446705D01*
X2340341Y2446796D01*
X2340574Y2446938D01*
X2340678Y2446990D01*
X2340755Y2447042D01*
X2340807Y2447068D01*
X2340833Y2447081D01*
X2340600Y2447119D01*
X2340380Y2447158D01*
X2340186Y2447223D01*
X2339991Y2447275D01*
X2339823Y2447340D01*
X2339667Y2447417D01*
X2339525Y2447482D01*
X2339395Y2447547D01*
X2339292Y2447625D01*
X2339188Y2447689D01*
X2339110Y2447741D01*
X2339046Y2447793D01*
X2338994Y2447832D01*
X2338955Y2447871D01*
X2338942Y2447884D01*
X2338929Y2447897D01*
X2338825Y2448026D01*
X2338722Y2448156D01*
X2338566Y2448428D01*
X2338463Y2448700D01*
X2338385Y2448959D01*
X2338333Y2449179D01*
X2338320Y2449270D01*
Y2449360D01*
X2338307Y2449425D01*
Y2449477D01*
Y2449503D01*
Y2449516D01*
X2338320Y2449788D01*
X2338359Y2450034D01*
X2338424Y2450267D01*
X2338489Y2450461D01*
X2338566Y2450630D01*
X2338618Y2450759D01*
X2338670Y2450837D01*
X2338683Y2450850D01*
Y2450863D01*
X2338838Y2451070D01*
X2338994Y2451252D01*
X2339162Y2451407D01*
X2339318Y2451524D01*
X2339460Y2451614D01*
X2339577Y2451666D01*
X2339655Y2451705D01*
X2339667Y2451718D01*
X2339680D01*
X2339797Y2451757D01*
X2339939Y2451796D01*
X2340224Y2451861D01*
X2340535Y2451899D01*
X2340820Y2451938D01*
X2341092Y2451951D01*
X2341209D01*
X2341313Y2451964D01*
X2345471D01*
Y2443000D01*
D02*
G37*
G36*
X2398271D02*
X2397015D01*
Y2444257D01*
X2398271D01*
Y2443000D01*
D02*
G37*
G36*
X2327853D02*
X2326804D01*
X2324330Y2449503D01*
X2325470D01*
X2326908Y2445526D01*
X2326998Y2445267D01*
X2327089Y2445034D01*
X2327154Y2444814D01*
X2327219Y2444645D01*
X2327258Y2444490D01*
X2327296Y2444386D01*
X2327309Y2444321D01*
X2327322Y2444295D01*
X2327400Y2444541D01*
X2327465Y2444788D01*
X2327543Y2445008D01*
X2327607Y2445202D01*
X2327659Y2445371D01*
X2327698Y2445500D01*
X2327711Y2445539D01*
X2327724Y2445578D01*
X2327737Y2445591D01*
Y2445604D01*
X2329136Y2449503D01*
X2330302D01*
X2327853Y2443000D01*
D02*
G37*
G36*
X2276594D02*
X2275454D01*
Y2450630D01*
X2272864Y2443000D01*
X2271801D01*
X2269185Y2450500D01*
Y2443000D01*
X2268045D01*
Y2451964D01*
X2269638D01*
X2271788Y2445720D01*
X2271905Y2445384D01*
X2271996Y2445099D01*
X2272086Y2444852D01*
X2272151Y2444645D01*
X2272203Y2444490D01*
X2272242Y2444373D01*
X2272255Y2444308D01*
X2272268Y2444283D01*
X2272320Y2444464D01*
X2272384Y2444671D01*
X2272462Y2444891D01*
X2272527Y2445112D01*
X2272592Y2445306D01*
X2272643Y2445461D01*
X2272669Y2445526D01*
X2272682Y2445565D01*
X2272695Y2445591D01*
Y2445604D01*
X2274820Y2451964D01*
X2276594D01*
Y2443000D01*
D02*
G37*
G36*
X2334175Y2449633D02*
X2334408Y2449607D01*
X2334628Y2449568D01*
X2334836Y2449503D01*
X2335030Y2449438D01*
X2335211Y2449360D01*
X2335380Y2449283D01*
X2335522Y2449192D01*
X2335665Y2449114D01*
X2335781Y2449024D01*
X2335885Y2448946D01*
X2335963Y2448881D01*
X2336027Y2448816D01*
X2336079Y2448777D01*
X2336105Y2448752D01*
X2336118Y2448739D01*
X2336261Y2448557D01*
X2336390Y2448363D01*
X2336507Y2448169D01*
X2336610Y2447961D01*
X2336688Y2447741D01*
X2336753Y2447534D01*
X2336856Y2447119D01*
X2336895Y2446938D01*
X2336921Y2446757D01*
X2336934Y2446601D01*
X2336947Y2446459D01*
X2336960Y2446342D01*
Y2446264D01*
Y2446200D01*
Y2446187D01*
X2336947Y2445902D01*
X2336921Y2445630D01*
X2336882Y2445371D01*
X2336830Y2445137D01*
X2336766Y2444917D01*
X2336701Y2444710D01*
X2336623Y2444529D01*
X2336546Y2444360D01*
X2336468Y2444218D01*
X2336390Y2444088D01*
X2336325Y2443985D01*
X2336261Y2443894D01*
X2336209Y2443816D01*
X2336170Y2443764D01*
X2336144Y2443738D01*
X2336131Y2443725D01*
X2335963Y2443570D01*
X2335794Y2443441D01*
X2335613Y2443324D01*
X2335419Y2443220D01*
X2335237Y2443143D01*
X2335043Y2443065D01*
X2334680Y2442961D01*
X2334512Y2442935D01*
X2334356Y2442909D01*
X2334214Y2442883D01*
X2334097Y2442870D01*
X2334007Y2442858D01*
X2333864D01*
X2333462Y2442883D01*
X2333100Y2442948D01*
X2332776Y2443026D01*
X2332646Y2443078D01*
X2332517Y2443130D01*
X2332400Y2443181D01*
X2332297Y2443233D01*
X2332219Y2443272D01*
X2332141Y2443311D01*
X2332089Y2443350D01*
X2332050Y2443376D01*
X2332025Y2443402D01*
X2332012D01*
X2331752Y2443635D01*
X2331545Y2443881D01*
X2331364Y2444140D01*
X2331234Y2444386D01*
X2331131Y2444606D01*
X2331092Y2444710D01*
X2331053Y2444788D01*
X2331027Y2444865D01*
X2331014Y2444917D01*
X2331001Y2444943D01*
Y2444956D01*
X2332141Y2445099D01*
X2332245Y2444852D01*
X2332361Y2444645D01*
X2332478Y2444464D01*
X2332582Y2444321D01*
X2332672Y2444218D01*
X2332750Y2444140D01*
X2332815Y2444088D01*
X2332828Y2444075D01*
X2332996Y2443972D01*
X2333165Y2443894D01*
X2333346Y2443842D01*
X2333501Y2443803D01*
X2333644Y2443777D01*
X2333760Y2443764D01*
X2333864D01*
X2334019Y2443777D01*
X2334162Y2443790D01*
X2334421Y2443855D01*
X2334654Y2443946D01*
X2334861Y2444049D01*
X2335017Y2444140D01*
X2335134Y2444231D01*
X2335211Y2444295D01*
X2335224Y2444321D01*
X2335237D01*
X2335419Y2444554D01*
X2335561Y2444814D01*
X2335665Y2445099D01*
X2335742Y2445358D01*
X2335781Y2445591D01*
X2335807Y2445694D01*
X2335820Y2445785D01*
Y2445863D01*
X2335833Y2445915D01*
Y2445954D01*
Y2445966D01*
X2330975D01*
X2330962Y2446096D01*
Y2446187D01*
Y2446239D01*
Y2446252D01*
X2330975Y2446549D01*
X2331001Y2446821D01*
X2331040Y2447081D01*
X2331092Y2447327D01*
X2331157Y2447547D01*
X2331221Y2447754D01*
X2331299Y2447935D01*
X2331377Y2448104D01*
X2331455Y2448259D01*
X2331532Y2448389D01*
X2331597Y2448492D01*
X2331662Y2448583D01*
X2331714Y2448661D01*
X2331752Y2448713D01*
X2331778Y2448739D01*
X2331791Y2448752D01*
X2331947Y2448907D01*
X2332115Y2449050D01*
X2332297Y2449166D01*
X2332478Y2449270D01*
X2332659Y2449360D01*
X2332828Y2449425D01*
X2333009Y2449490D01*
X2333165Y2449529D01*
X2333333Y2449568D01*
X2333475Y2449594D01*
X2333605Y2449619D01*
X2333709Y2449633D01*
X2333799Y2449645D01*
X2333929D01*
X2334175Y2449633D01*
D02*
G37*
G36*
X2403284Y2451977D02*
X2403608Y2451925D01*
X2403880Y2451835D01*
X2404114Y2451744D01*
X2404308Y2451640D01*
X2404386Y2451602D01*
X2404450Y2451550D01*
X2404502Y2451524D01*
X2404541Y2451498D01*
X2404554Y2451472D01*
X2404567D01*
X2404800Y2451265D01*
X2404994Y2451019D01*
X2405163Y2450772D01*
X2405292Y2450539D01*
X2405396Y2450319D01*
X2405448Y2450228D01*
X2405474Y2450138D01*
X2405500Y2450073D01*
X2405526Y2450021D01*
X2405538Y2449995D01*
Y2449982D01*
X2405590Y2449788D01*
X2405642Y2449594D01*
X2405720Y2449166D01*
X2405785Y2448739D01*
X2405824Y2448337D01*
X2405836Y2448143D01*
X2405849Y2447974D01*
Y2447819D01*
X2405862Y2447676D01*
Y2447573D01*
Y2447482D01*
Y2447430D01*
Y2447417D01*
X2405849Y2446964D01*
X2405824Y2446537D01*
X2405785Y2446148D01*
X2405720Y2445785D01*
X2405655Y2445448D01*
X2405577Y2445150D01*
X2405500Y2444878D01*
X2405422Y2444645D01*
X2405344Y2444438D01*
X2405253Y2444257D01*
X2405189Y2444101D01*
X2405124Y2443985D01*
X2405059Y2443881D01*
X2405020Y2443816D01*
X2404994Y2443777D01*
X2404982Y2443764D01*
X2404839Y2443609D01*
X2404684Y2443466D01*
X2404515Y2443337D01*
X2404347Y2443233D01*
X2404178Y2443143D01*
X2404010Y2443065D01*
X2403842Y2443013D01*
X2403686Y2442961D01*
X2403531Y2442922D01*
X2403388Y2442896D01*
X2403259Y2442870D01*
X2403155Y2442858D01*
X2403064Y2442845D01*
X2402935D01*
X2402585Y2442870D01*
X2402261Y2442922D01*
X2401989Y2443013D01*
X2401756Y2443104D01*
X2401562Y2443194D01*
X2401497Y2443246D01*
X2401432Y2443285D01*
X2401380Y2443311D01*
X2401341Y2443337D01*
X2401328Y2443363D01*
X2401315D01*
X2401082Y2443583D01*
X2400888Y2443816D01*
X2400720Y2444075D01*
X2400590Y2444308D01*
X2400486Y2444529D01*
X2400435Y2444619D01*
X2400409Y2444710D01*
X2400383Y2444775D01*
X2400357Y2444827D01*
X2400344Y2444852D01*
Y2444865D01*
X2400279Y2445060D01*
X2400227Y2445254D01*
X2400150Y2445668D01*
X2400085Y2446096D01*
X2400046Y2446511D01*
X2400033Y2446692D01*
X2400020Y2446860D01*
Y2447016D01*
X2400007Y2447158D01*
Y2447262D01*
Y2447353D01*
Y2447404D01*
Y2447417D01*
Y2447664D01*
X2400020Y2447897D01*
Y2448104D01*
X2400033Y2448311D01*
X2400059Y2448492D01*
X2400072Y2448674D01*
X2400085Y2448829D01*
X2400111Y2448972D01*
X2400124Y2449101D01*
X2400150Y2449218D01*
X2400163Y2449309D01*
X2400175Y2449386D01*
X2400188Y2449451D01*
X2400201Y2449490D01*
X2400214Y2449516D01*
Y2449529D01*
X2400292Y2449814D01*
X2400383Y2450073D01*
X2400486Y2450293D01*
X2400564Y2450487D01*
X2400655Y2450656D01*
X2400707Y2450772D01*
X2400759Y2450837D01*
X2400771Y2450863D01*
X2400914Y2451057D01*
X2401056Y2451226D01*
X2401212Y2451368D01*
X2401354Y2451498D01*
X2401484Y2451588D01*
X2401588Y2451653D01*
X2401652Y2451692D01*
X2401665Y2451705D01*
X2401678D01*
X2401886Y2451809D01*
X2402106Y2451873D01*
X2402313Y2451925D01*
X2402507Y2451964D01*
X2402676Y2451990D01*
X2402818Y2452003D01*
X2402935D01*
X2403284Y2451977D01*
D02*
G37*
G36*
X2392831D02*
X2393154Y2451925D01*
X2393427Y2451835D01*
X2393660Y2451744D01*
X2393854Y2451640D01*
X2393932Y2451602D01*
X2393996Y2451550D01*
X2394048Y2451524D01*
X2394087Y2451498D01*
X2394100Y2451472D01*
X2394113D01*
X2394346Y2451265D01*
X2394541Y2451019D01*
X2394709Y2450772D01*
X2394839Y2450539D01*
X2394942Y2450319D01*
X2394994Y2450228D01*
X2395020Y2450138D01*
X2395046Y2450073D01*
X2395072Y2450021D01*
X2395085Y2449995D01*
Y2449982D01*
X2395136Y2449788D01*
X2395188Y2449594D01*
X2395266Y2449166D01*
X2395331Y2448739D01*
X2395370Y2448337D01*
X2395383Y2448143D01*
X2395396Y2447974D01*
Y2447819D01*
X2395408Y2447676D01*
Y2447573D01*
Y2447482D01*
Y2447430D01*
Y2447417D01*
X2395396Y2446964D01*
X2395370Y2446537D01*
X2395331Y2446148D01*
X2395266Y2445785D01*
X2395201Y2445448D01*
X2395123Y2445150D01*
X2395046Y2444878D01*
X2394968Y2444645D01*
X2394890Y2444438D01*
X2394800Y2444257D01*
X2394735Y2444101D01*
X2394670Y2443985D01*
X2394605Y2443881D01*
X2394566Y2443816D01*
X2394541Y2443777D01*
X2394528Y2443764D01*
X2394385Y2443609D01*
X2394230Y2443466D01*
X2394061Y2443337D01*
X2393893Y2443233D01*
X2393724Y2443143D01*
X2393556Y2443065D01*
X2393388Y2443013D01*
X2393232Y2442961D01*
X2393077Y2442922D01*
X2392934Y2442896D01*
X2392805Y2442870D01*
X2392701Y2442858D01*
X2392610Y2442845D01*
X2392481D01*
X2392131Y2442870D01*
X2391807Y2442922D01*
X2391535Y2443013D01*
X2391302Y2443104D01*
X2391108Y2443194D01*
X2391043Y2443246D01*
X2390978Y2443285D01*
X2390926Y2443311D01*
X2390887Y2443337D01*
X2390875Y2443363D01*
X2390862D01*
X2390628Y2443583D01*
X2390434Y2443816D01*
X2390266Y2444075D01*
X2390136Y2444308D01*
X2390033Y2444529D01*
X2389981Y2444619D01*
X2389955Y2444710D01*
X2389929Y2444775D01*
X2389903Y2444827D01*
X2389890Y2444852D01*
Y2444865D01*
X2389825Y2445060D01*
X2389774Y2445254D01*
X2389696Y2445668D01*
X2389631Y2446096D01*
X2389592Y2446511D01*
X2389579Y2446692D01*
X2389566Y2446860D01*
Y2447016D01*
X2389553Y2447158D01*
Y2447262D01*
Y2447353D01*
Y2447404D01*
Y2447417D01*
Y2447664D01*
X2389566Y2447897D01*
Y2448104D01*
X2389579Y2448311D01*
X2389605Y2448492D01*
X2389618Y2448674D01*
X2389631Y2448829D01*
X2389657Y2448972D01*
X2389670Y2449101D01*
X2389696Y2449218D01*
X2389709Y2449309D01*
X2389722Y2449386D01*
X2389735Y2449451D01*
X2389748Y2449490D01*
X2389760Y2449516D01*
Y2449529D01*
X2389838Y2449814D01*
X2389929Y2450073D01*
X2390033Y2450293D01*
X2390110Y2450487D01*
X2390201Y2450656D01*
X2390253Y2450772D01*
X2390305Y2450837D01*
X2390318Y2450863D01*
X2390460Y2451057D01*
X2390603Y2451226D01*
X2390758Y2451368D01*
X2390901Y2451498D01*
X2391030Y2451588D01*
X2391134Y2451653D01*
X2391198Y2451692D01*
X2391211Y2451705D01*
X2391224D01*
X2391432Y2451809D01*
X2391652Y2451873D01*
X2391859Y2451925D01*
X2392053Y2451964D01*
X2392222Y2451990D01*
X2392364Y2452003D01*
X2392481D01*
X2392831Y2451977D01*
D02*
G37*
G36*
X2368438D02*
X2368762Y2451925D01*
X2369034Y2451835D01*
X2369267Y2451744D01*
X2369462Y2451640D01*
X2369539Y2451602D01*
X2369604Y2451550D01*
X2369656Y2451524D01*
X2369695Y2451498D01*
X2369708Y2451472D01*
X2369721D01*
X2369954Y2451265D01*
X2370148Y2451019D01*
X2370317Y2450772D01*
X2370446Y2450539D01*
X2370550Y2450319D01*
X2370602Y2450228D01*
X2370627Y2450138D01*
X2370653Y2450073D01*
X2370679Y2450021D01*
X2370692Y2449995D01*
Y2449982D01*
X2370744Y2449788D01*
X2370796Y2449594D01*
X2370874Y2449166D01*
X2370938Y2448739D01*
X2370977Y2448337D01*
X2370990Y2448143D01*
X2371003Y2447974D01*
Y2447819D01*
X2371016Y2447676D01*
Y2447573D01*
Y2447482D01*
Y2447430D01*
Y2447417D01*
X2371003Y2446964D01*
X2370977Y2446537D01*
X2370938Y2446148D01*
X2370874Y2445785D01*
X2370809Y2445448D01*
X2370731Y2445150D01*
X2370653Y2444878D01*
X2370576Y2444645D01*
X2370498Y2444438D01*
X2370407Y2444257D01*
X2370343Y2444101D01*
X2370278Y2443985D01*
X2370213Y2443881D01*
X2370174Y2443816D01*
X2370148Y2443777D01*
X2370135Y2443764D01*
X2369993Y2443609D01*
X2369837Y2443466D01*
X2369669Y2443337D01*
X2369500Y2443233D01*
X2369332Y2443143D01*
X2369164Y2443065D01*
X2368995Y2443013D01*
X2368840Y2442961D01*
X2368684Y2442922D01*
X2368542Y2442896D01*
X2368412Y2442870D01*
X2368309Y2442858D01*
X2368218Y2442845D01*
X2368089D01*
X2367739Y2442870D01*
X2367415Y2442922D01*
X2367143Y2443013D01*
X2366910Y2443104D01*
X2366715Y2443194D01*
X2366651Y2443246D01*
X2366586Y2443285D01*
X2366534Y2443311D01*
X2366495Y2443337D01*
X2366482Y2443363D01*
X2366469D01*
X2366236Y2443583D01*
X2366042Y2443816D01*
X2365873Y2444075D01*
X2365744Y2444308D01*
X2365640Y2444529D01*
X2365588Y2444619D01*
X2365562Y2444710D01*
X2365536Y2444775D01*
X2365511Y2444827D01*
X2365498Y2444852D01*
Y2444865D01*
X2365433Y2445060D01*
X2365381Y2445254D01*
X2365303Y2445668D01*
X2365239Y2446096D01*
X2365200Y2446511D01*
X2365187Y2446692D01*
X2365174Y2446860D01*
Y2447016D01*
X2365161Y2447158D01*
Y2447262D01*
Y2447353D01*
Y2447404D01*
Y2447417D01*
Y2447664D01*
X2365174Y2447897D01*
Y2448104D01*
X2365187Y2448311D01*
X2365213Y2448492D01*
X2365226Y2448674D01*
X2365239Y2448829D01*
X2365264Y2448972D01*
X2365278Y2449101D01*
X2365303Y2449218D01*
X2365316Y2449309D01*
X2365329Y2449386D01*
X2365342Y2449451D01*
X2365355Y2449490D01*
X2365368Y2449516D01*
Y2449529D01*
X2365446Y2449814D01*
X2365536Y2450073D01*
X2365640Y2450293D01*
X2365718Y2450487D01*
X2365809Y2450656D01*
X2365860Y2450772D01*
X2365912Y2450837D01*
X2365925Y2450863D01*
X2366068Y2451057D01*
X2366210Y2451226D01*
X2366366Y2451368D01*
X2366508Y2451498D01*
X2366638Y2451588D01*
X2366741Y2451653D01*
X2366806Y2451692D01*
X2366819Y2451705D01*
X2366832D01*
X2367039Y2451809D01*
X2367259Y2451873D01*
X2367467Y2451925D01*
X2367661Y2451964D01*
X2367829Y2451990D01*
X2367972Y2452003D01*
X2368089D01*
X2368438Y2451977D01*
D02*
G37*
G36*
X2266166Y2443000D02*
X2262747D01*
X2262436Y2443013D01*
X2262164Y2443026D01*
X2261918Y2443052D01*
X2261710Y2443078D01*
X2261542Y2443104D01*
X2261412Y2443117D01*
X2261335Y2443143D01*
X2261309D01*
X2261088Y2443207D01*
X2260907Y2443272D01*
X2260739Y2443350D01*
X2260596Y2443427D01*
X2260480Y2443479D01*
X2260389Y2443531D01*
X2260337Y2443570D01*
X2260324Y2443583D01*
X2260182Y2443699D01*
X2260052Y2443842D01*
X2259948Y2443985D01*
X2259845Y2444114D01*
X2259767Y2444244D01*
X2259715Y2444334D01*
X2259677Y2444399D01*
X2259664Y2444425D01*
X2259573Y2444632D01*
X2259508Y2444839D01*
X2259456Y2445034D01*
X2259430Y2445215D01*
X2259404Y2445371D01*
X2259391Y2445500D01*
Y2445578D01*
Y2445591D01*
Y2445604D01*
X2259404Y2445889D01*
X2259456Y2446148D01*
X2259534Y2446368D01*
X2259612Y2446575D01*
X2259689Y2446731D01*
X2259767Y2446847D01*
X2259819Y2446925D01*
X2259832Y2446951D01*
X2260013Y2447158D01*
X2260208Y2447327D01*
X2260428Y2447469D01*
X2260622Y2447586D01*
X2260804Y2447676D01*
X2260959Y2447728D01*
X2261011Y2447754D01*
X2261050Y2447767D01*
X2261075Y2447780D01*
X2261088D01*
X2260868Y2447910D01*
X2260674Y2448039D01*
X2260518Y2448182D01*
X2260389Y2448311D01*
X2260285Y2448415D01*
X2260208Y2448518D01*
X2260169Y2448570D01*
X2260156Y2448596D01*
X2260052Y2448790D01*
X2259974Y2448972D01*
X2259910Y2449153D01*
X2259871Y2449322D01*
X2259845Y2449464D01*
X2259832Y2449581D01*
Y2449645D01*
Y2449671D01*
X2259845Y2449892D01*
X2259884Y2450112D01*
X2259948Y2450306D01*
X2260013Y2450487D01*
X2260078Y2450643D01*
X2260143Y2450746D01*
X2260182Y2450824D01*
X2260195Y2450850D01*
X2260337Y2451044D01*
X2260493Y2451226D01*
X2260661Y2451368D01*
X2260816Y2451485D01*
X2260946Y2451576D01*
X2261062Y2451640D01*
X2261140Y2451679D01*
X2261153Y2451692D01*
X2261166D01*
X2261412Y2451783D01*
X2261684Y2451848D01*
X2261956Y2451899D01*
X2262215Y2451925D01*
X2262449Y2451951D01*
X2262552D01*
X2262643Y2451964D01*
X2266166D01*
Y2443000D01*
D02*
G37*
G36*
X2312581D02*
X2311324D01*
Y2444257D01*
X2312581D01*
Y2443000D01*
D02*
G37*
G36*
X2298124D02*
X2296932D01*
Y2446640D01*
X2294639D01*
X2294303Y2446653D01*
X2293979Y2446679D01*
X2293694Y2446718D01*
X2293435Y2446770D01*
X2293188Y2446821D01*
X2292981Y2446886D01*
X2292787Y2446964D01*
X2292619Y2447042D01*
X2292476Y2447106D01*
X2292346Y2447184D01*
X2292243Y2447249D01*
X2292165Y2447314D01*
X2292100Y2447353D01*
X2292061Y2447391D01*
X2292036Y2447417D01*
X2292023Y2447430D01*
X2291893Y2447586D01*
X2291776Y2447741D01*
X2291686Y2447897D01*
X2291595Y2448065D01*
X2291517Y2448233D01*
X2291466Y2448389D01*
X2291375Y2448687D01*
X2291349Y2448829D01*
X2291323Y2448959D01*
X2291310Y2449075D01*
X2291297Y2449166D01*
X2291284Y2449257D01*
Y2449309D01*
Y2449348D01*
Y2449360D01*
X2291297Y2449607D01*
X2291323Y2449840D01*
X2291375Y2450047D01*
X2291414Y2450228D01*
X2291466Y2450384D01*
X2291517Y2450500D01*
X2291543Y2450565D01*
X2291556Y2450591D01*
X2291660Y2450785D01*
X2291789Y2450954D01*
X2291906Y2451109D01*
X2292023Y2451226D01*
X2292126Y2451317D01*
X2292204Y2451394D01*
X2292256Y2451433D01*
X2292282Y2451446D01*
X2292450Y2451550D01*
X2292644Y2451640D01*
X2292826Y2451718D01*
X2292994Y2451783D01*
X2293150Y2451822D01*
X2293266Y2451848D01*
X2293357Y2451873D01*
X2293383D01*
X2293577Y2451899D01*
X2293797Y2451925D01*
X2294030Y2451938D01*
X2294251Y2451951D01*
X2294445Y2451964D01*
X2298124D01*
Y2443000D01*
D02*
G37*
G36*
X2289756D02*
X2288564D01*
Y2446977D01*
X2287035D01*
X2286893Y2446964D01*
X2286789D01*
X2286698Y2446951D01*
X2286634Y2446938D01*
X2286582D01*
X2286556Y2446925D01*
X2286543D01*
X2286336Y2446860D01*
X2286245Y2446821D01*
X2286167Y2446783D01*
X2286090Y2446744D01*
X2286038Y2446718D01*
X2286012Y2446705D01*
X2285999Y2446692D01*
X2285895Y2446614D01*
X2285792Y2446523D01*
X2285597Y2446329D01*
X2285507Y2446239D01*
X2285442Y2446161D01*
X2285403Y2446109D01*
X2285390Y2446096D01*
X2285261Y2445915D01*
X2285118Y2445720D01*
X2284976Y2445513D01*
X2284833Y2445319D01*
X2284716Y2445137D01*
X2284626Y2444995D01*
X2284587Y2444943D01*
X2284561Y2444904D01*
X2284535Y2444878D01*
Y2444865D01*
X2283356Y2443000D01*
X2281880D01*
X2283421Y2445435D01*
X2283602Y2445694D01*
X2283771Y2445928D01*
X2283939Y2446122D01*
X2284082Y2446303D01*
X2284211Y2446433D01*
X2284315Y2446537D01*
X2284380Y2446601D01*
X2284406Y2446627D01*
X2284509Y2446705D01*
X2284626Y2446796D01*
X2284859Y2446938D01*
X2284963Y2446990D01*
X2285040Y2447042D01*
X2285092Y2447068D01*
X2285118Y2447081D01*
X2284885Y2447119D01*
X2284665Y2447158D01*
X2284470Y2447223D01*
X2284276Y2447275D01*
X2284108Y2447340D01*
X2283952Y2447417D01*
X2283810Y2447482D01*
X2283680Y2447547D01*
X2283577Y2447625D01*
X2283473Y2447689D01*
X2283395Y2447741D01*
X2283331Y2447793D01*
X2283279Y2447832D01*
X2283240Y2447871D01*
X2283227Y2447884D01*
X2283214Y2447897D01*
X2283110Y2448026D01*
X2283007Y2448156D01*
X2282851Y2448428D01*
X2282747Y2448700D01*
X2282670Y2448959D01*
X2282618Y2449179D01*
X2282605Y2449270D01*
Y2449360D01*
X2282592Y2449425D01*
Y2449477D01*
Y2449503D01*
Y2449516D01*
X2282605Y2449788D01*
X2282644Y2450034D01*
X2282709Y2450267D01*
X2282773Y2450461D01*
X2282851Y2450630D01*
X2282903Y2450759D01*
X2282955Y2450837D01*
X2282968Y2450850D01*
Y2450863D01*
X2283123Y2451070D01*
X2283279Y2451252D01*
X2283447Y2451407D01*
X2283602Y2451524D01*
X2283745Y2451614D01*
X2283862Y2451666D01*
X2283939Y2451705D01*
X2283952Y2451718D01*
X2283965D01*
X2284082Y2451757D01*
X2284224Y2451796D01*
X2284509Y2451861D01*
X2284820Y2451899D01*
X2285105Y2451938D01*
X2285377Y2451951D01*
X2285494D01*
X2285597Y2451964D01*
X2289756D01*
Y2443000D01*
D02*
G37*
G36*
X2281310Y2445694D02*
X2277903D01*
Y2446796D01*
X2281310D01*
Y2445694D01*
D02*
G37*
G36*
X2360744Y2451783D02*
X2360886Y2451576D01*
X2361055Y2451368D01*
X2361210Y2451187D01*
X2361365Y2451031D01*
X2361482Y2450902D01*
X2361534Y2450863D01*
X2361573Y2450824D01*
X2361586Y2450811D01*
X2361599Y2450798D01*
X2361871Y2450578D01*
X2362143Y2450371D01*
X2362402Y2450190D01*
X2362661Y2450047D01*
X2362881Y2449917D01*
X2362972Y2449866D01*
X2363049Y2449827D01*
X2363114Y2449788D01*
X2363166Y2449775D01*
X2363192Y2449749D01*
X2363205D01*
Y2448687D01*
X2363011Y2448764D01*
X2362816Y2448855D01*
X2362622Y2448946D01*
X2362440Y2449037D01*
X2362285Y2449114D01*
X2362155Y2449179D01*
X2362078Y2449231D01*
X2362065Y2449244D01*
X2362052D01*
X2361819Y2449386D01*
X2361611Y2449529D01*
X2361430Y2449658D01*
X2361288Y2449775D01*
X2361158Y2449866D01*
X2361080Y2449943D01*
X2361016Y2449995D01*
X2361003Y2450008D01*
Y2443000D01*
X2359902D01*
Y2452003D01*
X2360614D01*
X2360744Y2451783D01*
D02*
G37*
G36*
X2375252Y2451990D02*
X2375472Y2451977D01*
X2375679Y2451938D01*
X2375874Y2451899D01*
X2376055Y2451848D01*
X2376224Y2451796D01*
X2376379Y2451731D01*
X2376521Y2451666D01*
X2376651Y2451602D01*
X2376755Y2451537D01*
X2376845Y2451485D01*
X2376923Y2451433D01*
X2376988Y2451394D01*
X2377027Y2451355D01*
X2377053Y2451342D01*
X2377066Y2451329D01*
X2377195Y2451200D01*
X2377312Y2451057D01*
X2377428Y2450902D01*
X2377519Y2450746D01*
X2377674Y2450436D01*
X2377778Y2450125D01*
X2377817Y2449982D01*
X2377856Y2449840D01*
X2377882Y2449723D01*
X2377908Y2449619D01*
X2377921Y2449529D01*
Y2449464D01*
X2377934Y2449425D01*
Y2449412D01*
X2376806Y2449296D01*
X2376781Y2449594D01*
X2376729Y2449853D01*
X2376651Y2450086D01*
X2376560Y2450267D01*
X2376483Y2450423D01*
X2376405Y2450526D01*
X2376353Y2450591D01*
X2376327Y2450617D01*
X2376133Y2450772D01*
X2375926Y2450889D01*
X2375705Y2450980D01*
X2375511Y2451031D01*
X2375330Y2451070D01*
X2375174Y2451083D01*
X2375123Y2451096D01*
X2375045D01*
X2374773Y2451083D01*
X2374527Y2451031D01*
X2374319Y2450954D01*
X2374138Y2450876D01*
X2373996Y2450785D01*
X2373905Y2450721D01*
X2373840Y2450669D01*
X2373814Y2450643D01*
X2373659Y2450461D01*
X2373542Y2450280D01*
X2373451Y2450099D01*
X2373400Y2449917D01*
X2373361Y2449775D01*
X2373348Y2449645D01*
X2373335Y2449568D01*
Y2449555D01*
Y2449542D01*
X2373361Y2449309D01*
X2373413Y2449062D01*
X2373503Y2448842D01*
X2373594Y2448635D01*
X2373698Y2448467D01*
X2373788Y2448324D01*
X2373814Y2448272D01*
X2373840Y2448233D01*
X2373866Y2448221D01*
Y2448208D01*
X2373970Y2448065D01*
X2374099Y2447923D01*
X2374242Y2447767D01*
X2374397Y2447612D01*
X2374721Y2447301D01*
X2375045Y2446990D01*
X2375213Y2446847D01*
X2375356Y2446718D01*
X2375498Y2446601D01*
X2375615Y2446498D01*
X2375705Y2446420D01*
X2375783Y2446355D01*
X2375835Y2446316D01*
X2375848Y2446303D01*
X2376172Y2446031D01*
X2376470Y2445772D01*
X2376716Y2445539D01*
X2376910Y2445345D01*
X2377079Y2445176D01*
X2377195Y2445060D01*
X2377260Y2444982D01*
X2377286Y2444969D01*
Y2444956D01*
X2377467Y2444736D01*
X2377610Y2444529D01*
X2377739Y2444321D01*
X2377843Y2444140D01*
X2377921Y2443985D01*
X2377972Y2443868D01*
X2377998Y2443790D01*
X2378011Y2443777D01*
Y2443764D01*
X2378063Y2443622D01*
X2378089Y2443492D01*
X2378115Y2443363D01*
X2378128Y2443246D01*
X2378141Y2443143D01*
Y2443065D01*
Y2443013D01*
Y2443000D01*
X2372195D01*
Y2444062D01*
X2376612D01*
X2376457Y2444283D01*
X2376379Y2444373D01*
X2376314Y2444464D01*
X2376250Y2444541D01*
X2376198Y2444593D01*
X2376159Y2444632D01*
X2376146Y2444645D01*
X2376081Y2444710D01*
X2376003Y2444775D01*
X2375822Y2444943D01*
X2375615Y2445137D01*
X2375394Y2445332D01*
X2375187Y2445500D01*
X2375097Y2445578D01*
X2375019Y2445656D01*
X2374954Y2445707D01*
X2374902Y2445746D01*
X2374876Y2445772D01*
X2374863Y2445785D01*
X2374656Y2445966D01*
X2374449Y2446135D01*
X2374267Y2446303D01*
X2374099Y2446446D01*
X2373944Y2446588D01*
X2373814Y2446718D01*
X2373685Y2446834D01*
X2373581Y2446938D01*
X2373477Y2447042D01*
X2373400Y2447119D01*
X2373335Y2447184D01*
X2373270Y2447249D01*
X2373205Y2447327D01*
X2373179Y2447353D01*
X2372998Y2447573D01*
X2372843Y2447767D01*
X2372713Y2447961D01*
X2372609Y2448117D01*
X2372532Y2448259D01*
X2372480Y2448363D01*
X2372454Y2448428D01*
X2372441Y2448454D01*
X2372363Y2448648D01*
X2372312Y2448842D01*
X2372260Y2449024D01*
X2372234Y2449179D01*
X2372221Y2449322D01*
X2372208Y2449425D01*
Y2449490D01*
Y2449516D01*
X2372221Y2449710D01*
X2372247Y2449892D01*
X2372273Y2450073D01*
X2372324Y2450228D01*
X2372454Y2450539D01*
X2372583Y2450785D01*
X2372661Y2450902D01*
X2372726Y2450993D01*
X2372791Y2451083D01*
X2372856Y2451148D01*
X2372907Y2451200D01*
X2372933Y2451252D01*
X2372959Y2451265D01*
X2372972Y2451278D01*
X2373115Y2451407D01*
X2373270Y2451524D01*
X2373439Y2451614D01*
X2373607Y2451692D01*
X2373944Y2451822D01*
X2374281Y2451912D01*
X2374423Y2451938D01*
X2374565Y2451964D01*
X2374695Y2451977D01*
X2374799Y2451990D01*
X2374889Y2452003D01*
X2375019D01*
X2375252Y2451990D01*
D02*
G37*
G36*
X2306414Y2451783D02*
X2306557Y2451576D01*
X2306725Y2451368D01*
X2306881Y2451187D01*
X2307036Y2451031D01*
X2307153Y2450902D01*
X2307205Y2450863D01*
X2307243Y2450824D01*
X2307256Y2450811D01*
X2307269Y2450798D01*
X2307542Y2450578D01*
X2307814Y2450371D01*
X2308073Y2450190D01*
X2308332Y2450047D01*
X2308552Y2449917D01*
X2308643Y2449866D01*
X2308720Y2449827D01*
X2308785Y2449788D01*
X2308837Y2449775D01*
X2308863Y2449749D01*
X2308876D01*
Y2448687D01*
X2308681Y2448764D01*
X2308487Y2448855D01*
X2308293Y2448946D01*
X2308112Y2449037D01*
X2307956Y2449114D01*
X2307827Y2449179D01*
X2307749Y2449231D01*
X2307736Y2449244D01*
X2307723D01*
X2307490Y2449386D01*
X2307282Y2449529D01*
X2307101Y2449658D01*
X2306959Y2449775D01*
X2306829Y2449866D01*
X2306751Y2449943D01*
X2306687Y2449995D01*
X2306674Y2450008D01*
Y2443000D01*
X2305573D01*
Y2452003D01*
X2306285D01*
X2306414Y2451783D01*
D02*
G37*
G36*
X2316868D02*
X2317011Y2451576D01*
X2317179Y2451368D01*
X2317335Y2451187D01*
X2317490Y2451031D01*
X2317607Y2450902D01*
X2317659Y2450863D01*
X2317697Y2450824D01*
X2317710Y2450811D01*
X2317723Y2450798D01*
X2317995Y2450578D01*
X2318267Y2450371D01*
X2318526Y2450190D01*
X2318786Y2450047D01*
X2319006Y2449917D01*
X2319097Y2449866D01*
X2319174Y2449827D01*
X2319239Y2449788D01*
X2319291Y2449775D01*
X2319317Y2449749D01*
X2319330D01*
Y2448687D01*
X2319135Y2448764D01*
X2318941Y2448855D01*
X2318747Y2448946D01*
X2318565Y2449037D01*
X2318410Y2449114D01*
X2318280Y2449179D01*
X2318203Y2449231D01*
X2318190Y2449244D01*
X2318177D01*
X2317944Y2449386D01*
X2317736Y2449529D01*
X2317555Y2449658D01*
X2317412Y2449775D01*
X2317283Y2449866D01*
X2317205Y2449943D01*
X2317140Y2449995D01*
X2317127Y2450008D01*
Y2443000D01*
X2316026D01*
Y2452003D01*
X2316739D01*
X2316868Y2451783D01*
D02*
G37*
G36*
X2350238Y2445694D02*
X2346831D01*
Y2446796D01*
X2350238D01*
Y2445694D01*
D02*
G37*
G36*
X2302878D02*
X2299471D01*
Y2446796D01*
X2302878D01*
Y2445694D01*
D02*
G37*
G36*
X2385706Y2451990D02*
X2385926Y2451977D01*
X2386133Y2451938D01*
X2386328Y2451899D01*
X2386509Y2451848D01*
X2386678Y2451796D01*
X2386833Y2451731D01*
X2386975Y2451666D01*
X2387105Y2451602D01*
X2387209Y2451537D01*
X2387299Y2451485D01*
X2387377Y2451433D01*
X2387442Y2451394D01*
X2387481Y2451355D01*
X2387507Y2451342D01*
X2387520Y2451329D01*
X2387649Y2451200D01*
X2387766Y2451057D01*
X2387882Y2450902D01*
X2387973Y2450746D01*
X2388128Y2450436D01*
X2388232Y2450125D01*
X2388271Y2449982D01*
X2388310Y2449840D01*
X2388336Y2449723D01*
X2388362Y2449619D01*
X2388374Y2449529D01*
Y2449464D01*
X2388387Y2449425D01*
Y2449412D01*
X2387260Y2449296D01*
X2387234Y2449594D01*
X2387183Y2449853D01*
X2387105Y2450086D01*
X2387014Y2450267D01*
X2386937Y2450423D01*
X2386859Y2450526D01*
X2386807Y2450591D01*
X2386781Y2450617D01*
X2386587Y2450772D01*
X2386380Y2450889D01*
X2386159Y2450980D01*
X2385965Y2451031D01*
X2385784Y2451070D01*
X2385628Y2451083D01*
X2385576Y2451096D01*
X2385499D01*
X2385227Y2451083D01*
X2384980Y2451031D01*
X2384773Y2450954D01*
X2384592Y2450876D01*
X2384449Y2450785D01*
X2384359Y2450721D01*
X2384294Y2450669D01*
X2384268Y2450643D01*
X2384113Y2450461D01*
X2383996Y2450280D01*
X2383905Y2450099D01*
X2383853Y2449917D01*
X2383815Y2449775D01*
X2383802Y2449645D01*
X2383789Y2449568D01*
Y2449555D01*
Y2449542D01*
X2383815Y2449309D01*
X2383866Y2449062D01*
X2383957Y2448842D01*
X2384048Y2448635D01*
X2384151Y2448467D01*
X2384242Y2448324D01*
X2384268Y2448272D01*
X2384294Y2448233D01*
X2384320Y2448221D01*
Y2448208D01*
X2384424Y2448065D01*
X2384553Y2447923D01*
X2384695Y2447767D01*
X2384851Y2447612D01*
X2385175Y2447301D01*
X2385499Y2446990D01*
X2385667Y2446847D01*
X2385810Y2446718D01*
X2385952Y2446601D01*
X2386069Y2446498D01*
X2386159Y2446420D01*
X2386237Y2446355D01*
X2386289Y2446316D01*
X2386302Y2446303D01*
X2386626Y2446031D01*
X2386924Y2445772D01*
X2387170Y2445539D01*
X2387364Y2445345D01*
X2387532Y2445176D01*
X2387649Y2445060D01*
X2387714Y2444982D01*
X2387740Y2444969D01*
Y2444956D01*
X2387921Y2444736D01*
X2388064Y2444529D01*
X2388193Y2444321D01*
X2388297Y2444140D01*
X2388374Y2443985D01*
X2388426Y2443868D01*
X2388452Y2443790D01*
X2388465Y2443777D01*
Y2443764D01*
X2388517Y2443622D01*
X2388543Y2443492D01*
X2388569Y2443363D01*
X2388582Y2443246D01*
X2388595Y2443143D01*
Y2443065D01*
Y2443013D01*
Y2443000D01*
X2382649D01*
Y2444062D01*
X2387066D01*
X2386911Y2444283D01*
X2386833Y2444373D01*
X2386768Y2444464D01*
X2386703Y2444541D01*
X2386652Y2444593D01*
X2386613Y2444632D01*
X2386600Y2444645D01*
X2386535Y2444710D01*
X2386457Y2444775D01*
X2386276Y2444943D01*
X2386069Y2445137D01*
X2385848Y2445332D01*
X2385641Y2445500D01*
X2385551Y2445578D01*
X2385473Y2445656D01*
X2385408Y2445707D01*
X2385356Y2445746D01*
X2385330Y2445772D01*
X2385317Y2445785D01*
X2385110Y2445966D01*
X2384903Y2446135D01*
X2384721Y2446303D01*
X2384553Y2446446D01*
X2384398Y2446588D01*
X2384268Y2446718D01*
X2384138Y2446834D01*
X2384035Y2446938D01*
X2383931Y2447042D01*
X2383853Y2447119D01*
X2383789Y2447184D01*
X2383724Y2447249D01*
X2383659Y2447327D01*
X2383633Y2447353D01*
X2383452Y2447573D01*
X2383297Y2447767D01*
X2383167Y2447961D01*
X2383063Y2448117D01*
X2382986Y2448259D01*
X2382934Y2448363D01*
X2382908Y2448428D01*
X2382895Y2448454D01*
X2382817Y2448648D01*
X2382765Y2448842D01*
X2382713Y2449024D01*
X2382688Y2449179D01*
X2382675Y2449322D01*
X2382662Y2449425D01*
Y2449490D01*
Y2449516D01*
X2382675Y2449710D01*
X2382701Y2449892D01*
X2382726Y2450073D01*
X2382778Y2450228D01*
X2382908Y2450539D01*
X2383037Y2450785D01*
X2383115Y2450902D01*
X2383180Y2450993D01*
X2383245Y2451083D01*
X2383309Y2451148D01*
X2383361Y2451200D01*
X2383387Y2451252D01*
X2383413Y2451265D01*
X2383426Y2451278D01*
X2383569Y2451407D01*
X2383724Y2451524D01*
X2383892Y2451614D01*
X2384061Y2451692D01*
X2384398Y2451822D01*
X2384734Y2451912D01*
X2384877Y2451938D01*
X2385019Y2451964D01*
X2385149Y2451977D01*
X2385253Y2451990D01*
X2385343Y2452003D01*
X2385473D01*
X2385706Y2451990D01*
D02*
G37*
G36*
X2410098D02*
X2410318Y2451977D01*
X2410526Y2451938D01*
X2410720Y2451899D01*
X2410901Y2451848D01*
X2411070Y2451796D01*
X2411225Y2451731D01*
X2411368Y2451666D01*
X2411497Y2451602D01*
X2411601Y2451537D01*
X2411692Y2451485D01*
X2411769Y2451433D01*
X2411834Y2451394D01*
X2411873Y2451355D01*
X2411899Y2451342D01*
X2411912Y2451329D01*
X2412041Y2451200D01*
X2412158Y2451057D01*
X2412275Y2450902D01*
X2412365Y2450746D01*
X2412521Y2450436D01*
X2412624Y2450125D01*
X2412663Y2449982D01*
X2412702Y2449840D01*
X2412728Y2449723D01*
X2412754Y2449619D01*
X2412767Y2449529D01*
Y2449464D01*
X2412780Y2449425D01*
Y2449412D01*
X2411653Y2449296D01*
X2411627Y2449594D01*
X2411575Y2449853D01*
X2411497Y2450086D01*
X2411407Y2450267D01*
X2411329Y2450423D01*
X2411251Y2450526D01*
X2411199Y2450591D01*
X2411174Y2450617D01*
X2410979Y2450772D01*
X2410772Y2450889D01*
X2410552Y2450980D01*
X2410357Y2451031D01*
X2410176Y2451070D01*
X2410021Y2451083D01*
X2409969Y2451096D01*
X2409891D01*
X2409619Y2451083D01*
X2409373Y2451031D01*
X2409166Y2450954D01*
X2408984Y2450876D01*
X2408842Y2450785D01*
X2408751Y2450721D01*
X2408686Y2450669D01*
X2408660Y2450643D01*
X2408505Y2450461D01*
X2408388Y2450280D01*
X2408298Y2450099D01*
X2408246Y2449917D01*
X2408207Y2449775D01*
X2408194Y2449645D01*
X2408181Y2449568D01*
Y2449555D01*
Y2449542D01*
X2408207Y2449309D01*
X2408259Y2449062D01*
X2408349Y2448842D01*
X2408440Y2448635D01*
X2408544Y2448467D01*
X2408634Y2448324D01*
X2408660Y2448272D01*
X2408686Y2448233D01*
X2408712Y2448221D01*
Y2448208D01*
X2408816Y2448065D01*
X2408945Y2447923D01*
X2409088Y2447767D01*
X2409243Y2447612D01*
X2409567Y2447301D01*
X2409891Y2446990D01*
X2410059Y2446847D01*
X2410202Y2446718D01*
X2410344Y2446601D01*
X2410461Y2446498D01*
X2410552Y2446420D01*
X2410629Y2446355D01*
X2410681Y2446316D01*
X2410694Y2446303D01*
X2411018Y2446031D01*
X2411316Y2445772D01*
X2411562Y2445539D01*
X2411756Y2445345D01*
X2411925Y2445176D01*
X2412041Y2445060D01*
X2412106Y2444982D01*
X2412132Y2444969D01*
Y2444956D01*
X2412313Y2444736D01*
X2412456Y2444529D01*
X2412585Y2444321D01*
X2412689Y2444140D01*
X2412767Y2443985D01*
X2412819Y2443868D01*
X2412845Y2443790D01*
X2412858Y2443777D01*
Y2443764D01*
X2412909Y2443622D01*
X2412935Y2443492D01*
X2412961Y2443363D01*
X2412974Y2443246D01*
X2412987Y2443143D01*
Y2443065D01*
Y2443013D01*
Y2443000D01*
X2407041D01*
Y2444062D01*
X2411458D01*
X2411303Y2444283D01*
X2411225Y2444373D01*
X2411160Y2444464D01*
X2411096Y2444541D01*
X2411044Y2444593D01*
X2411005Y2444632D01*
X2410992Y2444645D01*
X2410927Y2444710D01*
X2410850Y2444775D01*
X2410668Y2444943D01*
X2410461Y2445137D01*
X2410241Y2445332D01*
X2410034Y2445500D01*
X2409943Y2445578D01*
X2409865Y2445656D01*
X2409800Y2445707D01*
X2409749Y2445746D01*
X2409723Y2445772D01*
X2409710Y2445785D01*
X2409502Y2445966D01*
X2409295Y2446135D01*
X2409114Y2446303D01*
X2408945Y2446446D01*
X2408790Y2446588D01*
X2408660Y2446718D01*
X2408531Y2446834D01*
X2408427Y2446938D01*
X2408324Y2447042D01*
X2408246Y2447119D01*
X2408181Y2447184D01*
X2408116Y2447249D01*
X2408052Y2447327D01*
X2408026Y2447353D01*
X2407844Y2447573D01*
X2407689Y2447767D01*
X2407559Y2447961D01*
X2407456Y2448117D01*
X2407378Y2448259D01*
X2407326Y2448363D01*
X2407300Y2448428D01*
X2407287Y2448454D01*
X2407210Y2448648D01*
X2407158Y2448842D01*
X2407106Y2449024D01*
X2407080Y2449179D01*
X2407067Y2449322D01*
X2407054Y2449425D01*
Y2449490D01*
Y2449516D01*
X2407067Y2449710D01*
X2407093Y2449892D01*
X2407119Y2450073D01*
X2407171Y2450228D01*
X2407300Y2450539D01*
X2407430Y2450785D01*
X2407507Y2450902D01*
X2407572Y2450993D01*
X2407637Y2451083D01*
X2407702Y2451148D01*
X2407754Y2451200D01*
X2407780Y2451252D01*
X2407805Y2451265D01*
X2407818Y2451278D01*
X2407961Y2451407D01*
X2408116Y2451524D01*
X2408285Y2451614D01*
X2408453Y2451692D01*
X2408790Y2451822D01*
X2409127Y2451912D01*
X2409269Y2451938D01*
X2409412Y2451964D01*
X2409541Y2451977D01*
X2409645Y2451990D01*
X2409736Y2452003D01*
X2409865D01*
X2410098Y2451990D01*
D02*
G37*
%LPC*%
G36*
X2344279Y2450967D02*
X2341455D01*
X2341105Y2450954D01*
X2340807Y2450902D01*
X2340548Y2450837D01*
X2340354Y2450759D01*
X2340186Y2450682D01*
X2340082Y2450617D01*
X2340017Y2450565D01*
X2339991Y2450552D01*
X2339836Y2450384D01*
X2339719Y2450215D01*
X2339642Y2450034D01*
X2339577Y2449879D01*
X2339551Y2449723D01*
X2339538Y2449607D01*
X2339525Y2449529D01*
Y2449516D01*
Y2449503D01*
X2339538Y2449348D01*
X2339564Y2449192D01*
X2339603Y2449062D01*
X2339642Y2448946D01*
X2339693Y2448842D01*
X2339732Y2448764D01*
X2339758Y2448713D01*
X2339771Y2448700D01*
X2339862Y2448570D01*
X2339978Y2448454D01*
X2340095Y2448363D01*
X2340211Y2448285D01*
X2340315Y2448233D01*
X2340393Y2448195D01*
X2340445Y2448169D01*
X2340471Y2448156D01*
X2340652Y2448104D01*
X2340859Y2448065D01*
X2341066Y2448039D01*
X2341274Y2448026D01*
X2341455Y2448013D01*
X2341611Y2448000D01*
X2344279D01*
Y2450967D01*
D02*
G37*
G36*
X2264975Y2450902D02*
X2262850D01*
X2262565Y2450876D01*
X2262345Y2450863D01*
X2262151Y2450837D01*
X2262008Y2450811D01*
X2261918Y2450798D01*
X2261853Y2450772D01*
X2261840D01*
X2261697Y2450721D01*
X2261568Y2450643D01*
X2261464Y2450565D01*
X2261373Y2450487D01*
X2261309Y2450423D01*
X2261257Y2450358D01*
X2261231Y2450319D01*
X2261218Y2450306D01*
X2261140Y2450177D01*
X2261088Y2450047D01*
X2261050Y2449917D01*
X2261024Y2449788D01*
X2261011Y2449684D01*
X2260998Y2449607D01*
Y2449555D01*
Y2449529D01*
X2261011Y2449360D01*
X2261037Y2449205D01*
X2261075Y2449075D01*
X2261114Y2448972D01*
X2261153Y2448881D01*
X2261192Y2448803D01*
X2261218Y2448764D01*
X2261231Y2448752D01*
X2261322Y2448648D01*
X2261438Y2448544D01*
X2261555Y2448467D01*
X2261658Y2448415D01*
X2261762Y2448363D01*
X2261840Y2448324D01*
X2261892Y2448311D01*
X2261918Y2448298D01*
X2262060Y2448272D01*
X2262241Y2448246D01*
X2262423Y2448233D01*
X2262604Y2448221D01*
X2262773Y2448208D01*
X2264975D01*
Y2450902D01*
D02*
G37*
G36*
X2403025Y2451096D02*
X2402948D01*
X2402805Y2451083D01*
X2402663Y2451070D01*
X2402533Y2451031D01*
X2402417Y2450980D01*
X2402196Y2450863D01*
X2402002Y2450734D01*
X2401860Y2450591D01*
X2401743Y2450475D01*
X2401704Y2450423D01*
X2401678Y2450384D01*
X2401652Y2450371D01*
Y2450358D01*
X2401562Y2450202D01*
X2401484Y2450021D01*
X2401406Y2449814D01*
X2401354Y2449594D01*
X2401302Y2449360D01*
X2401264Y2449114D01*
X2401199Y2448622D01*
X2401173Y2448376D01*
X2401160Y2448156D01*
X2401147Y2447948D01*
Y2447780D01*
X2401134Y2447625D01*
Y2447508D01*
Y2447443D01*
Y2447430D01*
Y2447417D01*
Y2447016D01*
X2401160Y2446653D01*
X2401186Y2446329D01*
X2401212Y2446018D01*
X2401251Y2445759D01*
X2401302Y2445513D01*
X2401354Y2445306D01*
X2401393Y2445112D01*
X2401445Y2444956D01*
X2401497Y2444827D01*
X2401536Y2444710D01*
X2401588Y2444619D01*
X2401613Y2444554D01*
X2401639Y2444516D01*
X2401665Y2444490D01*
Y2444477D01*
X2401769Y2444347D01*
X2401873Y2444244D01*
X2401976Y2444140D01*
X2402080Y2444062D01*
X2402300Y2443933D01*
X2402494Y2443842D01*
X2402676Y2443790D01*
X2402805Y2443764D01*
X2402857Y2443751D01*
X2402935D01*
X2403077Y2443764D01*
X2403207Y2443777D01*
X2403453Y2443868D01*
X2403673Y2443985D01*
X2403867Y2444114D01*
X2404010Y2444244D01*
X2404126Y2444360D01*
X2404191Y2444451D01*
X2404217Y2444464D01*
Y2444477D01*
X2404308Y2444632D01*
X2404386Y2444814D01*
X2404463Y2445021D01*
X2404515Y2445241D01*
X2404567Y2445474D01*
X2404606Y2445720D01*
X2404671Y2446226D01*
X2404697Y2446459D01*
X2404709Y2446679D01*
X2404722Y2446886D01*
Y2447055D01*
X2404735Y2447210D01*
Y2447327D01*
Y2447391D01*
Y2447417D01*
X2404722Y2447819D01*
X2404709Y2448182D01*
X2404684Y2448518D01*
X2404645Y2448829D01*
X2404606Y2449101D01*
X2404554Y2449348D01*
X2404502Y2449568D01*
X2404450Y2449762D01*
X2404398Y2449930D01*
X2404360Y2450073D01*
X2404308Y2450190D01*
X2404269Y2450293D01*
X2404230Y2450358D01*
X2404204Y2450410D01*
X2404178Y2450436D01*
Y2450449D01*
X2404088Y2450565D01*
X2403997Y2450669D01*
X2403893Y2450746D01*
X2403790Y2450824D01*
X2403582Y2450941D01*
X2403388Y2451019D01*
X2403220Y2451057D01*
X2403077Y2451083D01*
X2403025Y2451096D01*
D02*
G37*
G36*
X2392572D02*
X2392494D01*
X2392351Y2451083D01*
X2392209Y2451070D01*
X2392079Y2451031D01*
X2391963Y2450980D01*
X2391743Y2450863D01*
X2391548Y2450734D01*
X2391406Y2450591D01*
X2391289Y2450475D01*
X2391250Y2450423D01*
X2391224Y2450384D01*
X2391198Y2450371D01*
Y2450358D01*
X2391108Y2450202D01*
X2391030Y2450021D01*
X2390952Y2449814D01*
X2390901Y2449594D01*
X2390849Y2449360D01*
X2390810Y2449114D01*
X2390745Y2448622D01*
X2390719Y2448376D01*
X2390706Y2448156D01*
X2390693Y2447948D01*
Y2447780D01*
X2390680Y2447625D01*
Y2447508D01*
Y2447443D01*
Y2447430D01*
Y2447417D01*
Y2447016D01*
X2390706Y2446653D01*
X2390732Y2446329D01*
X2390758Y2446018D01*
X2390797Y2445759D01*
X2390849Y2445513D01*
X2390901Y2445306D01*
X2390939Y2445112D01*
X2390991Y2444956D01*
X2391043Y2444827D01*
X2391082Y2444710D01*
X2391134Y2444619D01*
X2391160Y2444554D01*
X2391185Y2444516D01*
X2391211Y2444490D01*
Y2444477D01*
X2391315Y2444347D01*
X2391419Y2444244D01*
X2391522Y2444140D01*
X2391626Y2444062D01*
X2391846Y2443933D01*
X2392040Y2443842D01*
X2392222Y2443790D01*
X2392351Y2443764D01*
X2392403Y2443751D01*
X2392481D01*
X2392623Y2443764D01*
X2392753Y2443777D01*
X2392999Y2443868D01*
X2393219Y2443985D01*
X2393414Y2444114D01*
X2393556Y2444244D01*
X2393673Y2444360D01*
X2393737Y2444451D01*
X2393763Y2444464D01*
Y2444477D01*
X2393854Y2444632D01*
X2393932Y2444814D01*
X2394009Y2445021D01*
X2394061Y2445241D01*
X2394113Y2445474D01*
X2394152Y2445720D01*
X2394217Y2446226D01*
X2394243Y2446459D01*
X2394256Y2446679D01*
X2394268Y2446886D01*
Y2447055D01*
X2394281Y2447210D01*
Y2447327D01*
Y2447391D01*
Y2447417D01*
X2394268Y2447819D01*
X2394256Y2448182D01*
X2394230Y2448518D01*
X2394191Y2448829D01*
X2394152Y2449101D01*
X2394100Y2449348D01*
X2394048Y2449568D01*
X2393996Y2449762D01*
X2393945Y2449930D01*
X2393906Y2450073D01*
X2393854Y2450190D01*
X2393815Y2450293D01*
X2393776Y2450358D01*
X2393750Y2450410D01*
X2393724Y2450436D01*
Y2450449D01*
X2393634Y2450565D01*
X2393543Y2450669D01*
X2393439Y2450746D01*
X2393336Y2450824D01*
X2393129Y2450941D01*
X2392934Y2451019D01*
X2392766Y2451057D01*
X2392623Y2451083D01*
X2392572Y2451096D01*
D02*
G37*
G36*
X2264975Y2447145D02*
X2262617D01*
X2262345Y2447119D01*
X2262125Y2447094D01*
X2261943Y2447068D01*
X2261801Y2447042D01*
X2261684Y2447016D01*
X2261633Y2447003D01*
X2261607Y2446990D01*
X2261438Y2446925D01*
X2261296Y2446847D01*
X2261166Y2446757D01*
X2261062Y2446666D01*
X2260985Y2446588D01*
X2260933Y2446523D01*
X2260894Y2446472D01*
X2260881Y2446459D01*
X2260791Y2446316D01*
X2260726Y2446174D01*
X2260674Y2446031D01*
X2260648Y2445902D01*
X2260622Y2445785D01*
X2260609Y2445681D01*
Y2445630D01*
Y2445604D01*
X2260622Y2445448D01*
X2260635Y2445293D01*
X2260661Y2445163D01*
X2260700Y2445060D01*
X2260739Y2444969D01*
X2260765Y2444891D01*
X2260777Y2444852D01*
X2260791Y2444839D01*
X2260868Y2444723D01*
X2260933Y2444619D01*
X2261024Y2444541D01*
X2261088Y2444464D01*
X2261153Y2444412D01*
X2261205Y2444373D01*
X2261244Y2444347D01*
X2261257Y2444334D01*
X2261477Y2444231D01*
X2261697Y2444153D01*
X2261788Y2444127D01*
X2261866Y2444114D01*
X2261918Y2444101D01*
X2261931D01*
X2262034Y2444088D01*
X2262151Y2444075D01*
X2262423Y2444062D01*
X2264975D01*
Y2447145D01*
D02*
G37*
G36*
X2353554Y2450177D02*
Y2446161D01*
X2356378D01*
X2353554Y2450177D01*
D02*
G37*
G36*
X2296932Y2450902D02*
X2294367D01*
X2294134Y2450889D01*
X2293940Y2450876D01*
X2293784Y2450863D01*
X2293681Y2450837D01*
X2293603Y2450824D01*
X2293551Y2450811D01*
X2293538D01*
X2293370Y2450746D01*
X2293227Y2450669D01*
X2293098Y2450591D01*
X2292981Y2450500D01*
X2292903Y2450410D01*
X2292839Y2450345D01*
X2292800Y2450293D01*
X2292787Y2450280D01*
X2292696Y2450125D01*
X2292619Y2449969D01*
X2292567Y2449801D01*
X2292541Y2449658D01*
X2292515Y2449529D01*
X2292502Y2449412D01*
Y2449348D01*
Y2449335D01*
Y2449322D01*
X2292528Y2449050D01*
X2292580Y2448816D01*
X2292657Y2448609D01*
X2292748Y2448441D01*
X2292839Y2448311D01*
X2292916Y2448208D01*
X2292968Y2448156D01*
X2292994Y2448130D01*
X2293085Y2448052D01*
X2293201Y2447987D01*
X2293448Y2447884D01*
X2293720Y2447806D01*
X2293992Y2447754D01*
X2294238Y2447728D01*
X2294341Y2447715D01*
X2294432D01*
X2294523Y2447702D01*
X2296932D01*
Y2450902D01*
D02*
G37*
G36*
X2288564Y2450967D02*
X2285740D01*
X2285390Y2450954D01*
X2285092Y2450902D01*
X2284833Y2450837D01*
X2284639Y2450759D01*
X2284470Y2450682D01*
X2284367Y2450617D01*
X2284302Y2450565D01*
X2284276Y2450552D01*
X2284121Y2450384D01*
X2284004Y2450215D01*
X2283926Y2450034D01*
X2283862Y2449879D01*
X2283836Y2449723D01*
X2283823Y2449607D01*
X2283810Y2449529D01*
Y2449516D01*
Y2449503D01*
X2283823Y2449348D01*
X2283849Y2449192D01*
X2283887Y2449062D01*
X2283926Y2448946D01*
X2283978Y2448842D01*
X2284017Y2448764D01*
X2284043Y2448713D01*
X2284056Y2448700D01*
X2284147Y2448570D01*
X2284263Y2448454D01*
X2284380Y2448363D01*
X2284496Y2448285D01*
X2284600Y2448233D01*
X2284678Y2448195D01*
X2284729Y2448169D01*
X2284755Y2448156D01*
X2284937Y2448104D01*
X2285144Y2448065D01*
X2285351Y2448039D01*
X2285558Y2448026D01*
X2285740Y2448013D01*
X2285895Y2448000D01*
X2288564D01*
Y2450967D01*
D02*
G37*
G36*
X2368179Y2451096D02*
X2368101D01*
X2367959Y2451083D01*
X2367816Y2451070D01*
X2367687Y2451031D01*
X2367570Y2450980D01*
X2367350Y2450863D01*
X2367156Y2450734D01*
X2367013Y2450591D01*
X2366897Y2450475D01*
X2366858Y2450423D01*
X2366832Y2450384D01*
X2366806Y2450371D01*
Y2450358D01*
X2366715Y2450202D01*
X2366638Y2450021D01*
X2366560Y2449814D01*
X2366508Y2449594D01*
X2366456Y2449360D01*
X2366417Y2449114D01*
X2366353Y2448622D01*
X2366327Y2448376D01*
X2366314Y2448156D01*
X2366301Y2447948D01*
Y2447780D01*
X2366288Y2447625D01*
Y2447508D01*
Y2447443D01*
Y2447430D01*
Y2447417D01*
Y2447016D01*
X2366314Y2446653D01*
X2366340Y2446329D01*
X2366366Y2446018D01*
X2366405Y2445759D01*
X2366456Y2445513D01*
X2366508Y2445306D01*
X2366547Y2445112D01*
X2366599Y2444956D01*
X2366651Y2444827D01*
X2366689Y2444710D01*
X2366741Y2444619D01*
X2366767Y2444554D01*
X2366793Y2444516D01*
X2366819Y2444490D01*
Y2444477D01*
X2366923Y2444347D01*
X2367026Y2444244D01*
X2367130Y2444140D01*
X2367233Y2444062D01*
X2367454Y2443933D01*
X2367648Y2443842D01*
X2367829Y2443790D01*
X2367959Y2443764D01*
X2368011Y2443751D01*
X2368089D01*
X2368231Y2443764D01*
X2368360Y2443777D01*
X2368607Y2443868D01*
X2368827Y2443985D01*
X2369021Y2444114D01*
X2369164Y2444244D01*
X2369280Y2444360D01*
X2369345Y2444451D01*
X2369371Y2444464D01*
Y2444477D01*
X2369462Y2444632D01*
X2369539Y2444814D01*
X2369617Y2445021D01*
X2369669Y2445241D01*
X2369721Y2445474D01*
X2369760Y2445720D01*
X2369824Y2446226D01*
X2369850Y2446459D01*
X2369863Y2446679D01*
X2369876Y2446886D01*
Y2447055D01*
X2369889Y2447210D01*
Y2447327D01*
Y2447391D01*
Y2447417D01*
X2369876Y2447819D01*
X2369863Y2448182D01*
X2369837Y2448518D01*
X2369798Y2448829D01*
X2369760Y2449101D01*
X2369708Y2449348D01*
X2369656Y2449568D01*
X2369604Y2449762D01*
X2369552Y2449930D01*
X2369513Y2450073D01*
X2369462Y2450190D01*
X2369423Y2450293D01*
X2369384Y2450358D01*
X2369358Y2450410D01*
X2369332Y2450436D01*
Y2450449D01*
X2369241Y2450565D01*
X2369151Y2450669D01*
X2369047Y2450746D01*
X2368943Y2450824D01*
X2368736Y2450941D01*
X2368542Y2451019D01*
X2368374Y2451057D01*
X2368231Y2451083D01*
X2368179Y2451096D01*
D02*
G37*
G36*
X2333994Y2448739D02*
X2333916D01*
X2333760Y2448726D01*
X2333618Y2448713D01*
X2333346Y2448635D01*
X2333113Y2448531D01*
X2332918Y2448415D01*
X2332763Y2448298D01*
X2332646Y2448195D01*
X2332582Y2448117D01*
X2332556Y2448104D01*
Y2448091D01*
X2332439Y2447923D01*
X2332335Y2447728D01*
X2332271Y2447534D01*
X2332206Y2447327D01*
X2332167Y2447158D01*
X2332141Y2447003D01*
Y2446951D01*
X2332128Y2446912D01*
Y2446886D01*
Y2446873D01*
X2335768D01*
X2335729Y2447171D01*
X2335652Y2447443D01*
X2335561Y2447676D01*
X2335457Y2447858D01*
X2335367Y2448013D01*
X2335276Y2448130D01*
X2335224Y2448195D01*
X2335198Y2448221D01*
X2334991Y2448389D01*
X2334784Y2448518D01*
X2334563Y2448609D01*
X2334356Y2448674D01*
X2334188Y2448713D01*
X2334045Y2448726D01*
X2333994Y2448739D01*
D02*
G37*
%LPD*%
D82*
X2290958Y2579248D02*
D03*
Y2566548D02*
D03*
X2278258Y2579248D02*
D03*
Y2566548D02*
D03*
X2265558Y2579248D02*
D03*
D83*
Y2566548D02*
D03*
D84*
X2201000Y2496000D02*
D03*
Y2542000D02*
D03*
D85*
Y2459000D02*
D03*
Y2579000D02*
D03*
M02*
